<svg id="Layer_1" enable-background="new 0 0 512.004 512.004" height="512" viewBox="0 0 512.004 512.004" width="512" xmlns="http://www.w3.org/2000/svg"><g><path d="m304.979 212.626c18.942-10.936 39.941-17.777 61.536-20.17.095-.162.195-.319.289-.482 35.289-61.123 14.272-139.561-46.851-174.851-61.123-35.289-139.562-14.272-174.851 46.852-23.744 41.127-21.996 90.091.308 128.477 21.605 2.39 42.614 9.233 61.564 20.174 19.266 11.123 35.637 25.872 48.413 43.317.117 0 .234.006.35.006.278 0 .555-.012.833-.013 12.776-17.442 29.146-32.188 48.409-43.31zm-52.526-18.719-9.262 6.087c-2.539 1.668-5.398 2.466-8.224 2.466-4.882 0-9.668-2.379-12.55-6.764-4.229-6.435-2.857-14.919 2.916-19.738-5.773-4.819-7.145-13.302-2.916-19.738 4.549-6.923 13.847-8.85 20.773-4.298l9.262 6.087 9.262-6.087c6.924-4.55 16.223-2.625 20.773 4.298 4.229 6.435 2.857 14.919-2.916 19.738 5.773 4.819 7.145 13.302 2.916 19.738-2.881 4.384-7.668 6.764-12.55 6.764-2.826 0-5.685-.797-8.224-2.466z"/><path d="m239.216 286.212c-10.864-19.183-26.808-35.808-47.242-47.605-61.123-35.29-139.562-14.273-174.851 46.851-35.289 61.123-14.272 139.561 46.851 174.851 20.108 11.61 42.081 17.124 63.784 17.124 44.268 0 87.386-22.96 111.066-63.974.132-.229.256-.461.387-.691-14.369-32.716-17.191-69.104-7.791-104.187 2.067-7.712 4.678-15.181 7.796-22.369zm-115.424 117.593c2.024 6.829-1.05 14.335-7.638 17.646-2.161 1.086-4.461 1.602-6.726 1.602-5.491 0-10.779-3.026-13.414-8.266l-4.457-8.867-9.907.573c-.295.017-.588.025-.88.025-7.888 0-14.5-6.159-14.961-14.134-.425-7.361 4.537-13.776 11.463-15.438-2.024-6.83 1.05-14.334 7.638-17.646 7.4-3.721 16.417-.737 20.139 6.665l4.457 8.867 9.907-.573c8.283-.46 15.363 5.839 15.841 14.109.427 7.36-4.535 13.775-11.462 15.437z"/><path d="m458.618 210.33c.947-.905 1.886-1.82 2.815-2.749 36.242-36.241 54.402-86.34 49.824-137.449-.539-6.023-5.312-10.796-11.335-11.335-33.062-2.963-65.694 3.603-94.432 18.411 12.445 36.731 11.423 77.846-5.253 115.148 20.63 2.168 40.442 8.357 58.381 17.974z"/><path d="m494.83 285.457c-35.29-61.124-113.727-82.14-174.851-46.851-61.123 35.289-82.14 113.727-46.851 174.851 23.682 41.019 66.793 63.974 111.066 63.974 21.699 0 43.68-5.516 63.784-17.124 61.124-35.288 82.141-113.726 46.852-174.85zm-48.686 106.927c-.461 7.975-7.074 14.134-14.961 14.134-.292 0-.584-.008-.88-.025l-9.907-.573-4.457 8.867c-2.634 5.24-7.923 8.266-13.414 8.266-2.265 0-4.564-.515-6.726-1.602-6.588-3.312-9.662-10.817-7.638-17.646-6.927-1.662-11.889-8.077-11.463-15.438.479-8.27 7.575-14.581 15.841-14.109l9.907.573 4.457-8.867c3.721-7.401 12.738-10.385 20.139-6.665 6.588 3.312 9.662 10.817 7.638 17.646 6.927 1.663 11.889 8.078 11.464 15.439z"/></g></svg>