<svg height="512pt" viewBox="0 0 511 512" width="512pt" xmlns="http://www.w3.org/2000/svg"><path d="m195.5 443c0 8.285156-6.714844 15-15 15s-15-6.714844-15-15 6.714844-15 15-15 15 6.714844 15 15zm0 0"/><path d="m285.5 443c0 8.285156-6.714844 15-15 15s-15-6.714844-15-15 6.714844-15 15-15 15 6.714844 15 15zm0 0"/><path d="m240.5 497c0 8.285156-6.714844 15-15 15s-15-6.714844-15-15 6.714844-15 15-15 15 6.714844 15 15zm0 0"/><path d="m330.5 497c0 8.285156-6.714844 15-15 15s-15-6.714844-15-15 6.714844-15 15-15 15 6.714844 15 15zm0 0"/><path d="m150.5 497c0 8.285156-6.714844 15-15 15s-15-6.714844-15-15 6.714844-15 15-15 15 6.714844 15 15zm0 0"/><path d="m497.5 33h-79.402344c-6.308594-19.144531-24.367187-33-45.597656-33h-346.4375c-14.015625 0-25.824219 11.46875-25.558594 25.484375.257813 13.582031 11.347656 24.515625 24.996094 24.515625h124c8.285156 0 15 6.714844 15 15s-6.714844 15-15 15h-123.4375c-14.015625 0-25.824219 11.46875-25.558594 25.484375.257813 13.582031 11.347656 24.515625 24.996094 24.515625h124c8.285156 0 15 6.714844 15 15s-6.714844 15-15 15h-123.4375c-14.015625 0-25.824219 11.46875-25.558594 25.484375.257813 13.582031 11.347656 24.515625 24.996094 24.515625h67.121094c-.574219.554688-1.144532 1.113281-1.707032 1.683594-19.894531 20.09375-30.691406 46.515625-30.410156 74.394531.28125 27.601563 11.179688 53.566406 30.6875 73.105469 19.507813 19.539062 45.445313 30.480468 73.039063 30.808594.179687 0 .355469.003906.53125.003906 12.027343 0 23.8125-4.851563 32.40625-13.355469 8.613281-8.523437 13.347656-19.78125 13.332031-31.703125-.035156-24.625-19.96875-44.683594-44.535156-44.933594-4.152344-.042968-8.21875-1.511718-11.136719-4.464844-2.902344-2.933593-4.4375-6.835937-4.324219-10.972656.222656-8.03125 7.226563-14.566406 15.621094-14.566406h118.75c8.390625 0 15.398438 6.535156 15.617188 14.566406.113281 4.136719-1.421876 8.039063-4.320313 10.972656-2.917969 2.953126-6.988281 4.421876-11.136719 4.464844-24.566406.25-44.503906 20.308594-44.535156 44.933594-.015625 11.925781 4.71875 23.183594 13.332031 31.703125 8.601563 8.507813 20.394531 13.355469 32.4375 13.355469.1875 0 .371094-.003906.558594-.003906 27.769531-.347657 53.816406-11.421876 73.351563-31.183594 19.550781-19.78125 30.320312-45.992188 30.320312-73.808594 0-8.644531-1.144531-17.355469-3.402344-25.996094l24.820313-26.003906h85.582031c8.285156 0 15-6.714844 15-15v-170c0-8.285156-6.714844-15-15-15zm0 0"/></svg>