<svg height="512pt" viewBox="0 -7 512.00068 512" width="512pt" xmlns="http://www.w3.org/2000/svg"><path d="m349.34375 354.847656c-38.171875-7.644531-67.761719-37.234375-75.410156-75.410156-5.242188-26.265625-25.601563-46.625-51.867188-51.871094-38.175781-7.644531-67.765625-37.234375-75.410156-75.410156-5.230469-26.1875-49.058594-69.078125-75.25-74.308594-13.976562-2.796875-26.585938-9.21875-37.773438-17.484375l-29.238281 29.238281c-3.5 3.5-5.054687 8.492188-4.132812 13.347657.890625 4.851562 4.152343 8.984375 8.667969 10.972656 6.394531 2.824219 13.136718 4.96875 20.042968 6.347656 26.1875 5.222657 70.035156 48.132813 75.253906 74.316407 7.644532 38.179687 37.226563 67.761718 75.40625 75.40625 26.269532 5.261718 46.613282 25.605468 51.871094 51.871093 3.824219 19.089844 13.125 36.035157 26.25 49.160157 13.121094 13.125 30.070313 22.425781 49.15625 26.246093 26.1875 5.222657 67.835938 46.914063 73.097656 73.097657 1.277344 6.351562 3.148438 12.449218 5.585938 18.261718 1.90625 4.578125 6.027344 7.933594 10.925781 8.9375 4.921875.964844 9.984375-.578125 13.519531-4.113281l28.628907-28.632813c-7.851563-10.996093-13.566407-23.5-16.242188-36.890624-5.226562-26.191407-46.886719-67.851563-73.082031-73.082032zm0 0"/><path d="m89.246094 4.746094-34.164063 34.167968c6.800781 4.339844 14.117188 7.894532 22.214844 9.519532 38.378906 7.660156 91.113281 59.457031 98.773437 97.835937 5.257813 26.265625 25.621094 46.625 51.882813 51.882813 38.175781 7.632812 67.765625 37.222656 75.394531 75.398437 5.261719 26.265625 25.621094 46.625 51.886719 51.882813 38.378906 7.664062 88.945313 58.230468 96.605469 96.605468 1.511718 7.539063 4.566406 14.597657 8.507812 21.105469l34.542969-34.542969c4.300781-4.296874 5.570313-10.769531 3.230469-16.382812-1.667969-4.011719-2.980469-8.226562-3.851563-12.597656-7.6875-38.386719-58.234375-88.933594-96.621093-96.621094-26.265626-5.257812-46.609376-25.601562-51.871094-51.871094-7.644532-38.179687-37.226563-67.761718-75.40625-75.40625-26.269532-5.261718-46.613282-25.605468-51.875-51.871094-7.683594-38.386718-60.398438-90.164062-98.785156-97.851562-4.765626-.949219-9.394532-2.414062-13.789063-4.359375-5.664063-2.519531-12.292969-1.273437-16.675781 3.105469zm0 0"/><path d="m126.308594 278.957031c-3.058594 1.097657-6.058594 2.335938-9.308594 2.988281-38.367188 7.664063-88.933594 58.230469-96.621094 96.640626-.941406 4.710937-2.410156 9.351562-4.359375 13.765624-2.515625 5.664063-1.273437 12.292969 3.109375 16.675782l34.242188 34.242187c4.34375-6.8125 7.824218-14.203125 9.445312-22.285156 7.660156-38.363281 58.226563-88.929687 96.605469-96.621094 11.925781-2.386719 22.539063-8.242187 31.296875-16.207031-4.71875-4.253906-10.441406-7.449219-16.96875-8.753906-17.476562-3.496094-33.449219-10.675782-47.441406-20.445313zm0 0"/><path d="m165.3125 353.777344c-26.191406 5.246094-67.851562 46.921875-73.082031 73.097656-2.800781 13.964844-8.90625 26.832031-17.199219 38.058594l28.949219 28.949218c3.5 3.5 8.484375 5.042969 13.351562 4.132813 4.859375-.902344 8.96875-4.144531 10.96875-8.667969 2.847657-6.433594 4.992188-13.179687 6.347657-20.042968 5.242187-26.1875 46.914062-67.855469 73.089843-73.089844 8.640625-1.726563 16.734375-5.03125 24.492188-8.988282-13.234375-14.699218-22.6875-32.195312-27.90625-51.3125-11.414063 8.640626-24.601563 14.984376-39.011719 17.863282zm0 0"/><path d="m406.367188 1.160156c-4.007813 1.667969-8.226563 2.980469-12.597657 3.851563-38.363281 7.664062-89.929687 59.394531-97.617187 97.78125-1.914063 9.574219-6.3125 18.117187-11.890625 25.742187 19.347656 5.214844 36.609375 14.945313 51.054687 27.75 1.382813-3.546875 2.503906-7.234375 3.273438-11.070312 7.660156-38.363282 59.226562-90.09375 97.605468-97.78125 7.574219-1.511719 14.5-4.710938 20.972657-8.628906l-34.414063-34.414063c-4.296875-4.3007812-10.773437-5.574219-16.386718-3.230469zm0 0"/><path d="m507.605469 89.242188-28.789063-28.789063c-10.933594 7.808594-23.277344 13.707031-36.746094 16.390625-26.179687 5.246094-68.839843 48.082031-74.066406 74.257812-2.140625 10.703126-6.03125 20.699219-11.324218 29.722657 8.753906 13.242187 15.253906 28.152343 18.515624 44.414062 1.332032 6.644531 4.582032 12.480469 8.957032 17.246094 13.109375-13.136719 22.46875-29.929687 26.269531-48.957031 5.242187-26.183594 47.910156-69.015625 74.097656-74.257813 6.351563-1.273437 12.449219-3.148437 18.261719-5.582031 4.621094-1.925781 7.976562-6.027344 8.9375-10.925781.964844-4.921875-.582031-9.988281-4.113281-13.519531zm0 0"/></svg>