<svg id="Capa_1" enable-background="new 0 0 512 512" height="512" viewBox="0 0 512 512" width="512" xmlns="http://www.w3.org/2000/svg"><path d="m437.02 74.98c-48.352-48.352-112.639-74.98-181.02-74.98-68.38 0-132.667 26.628-181.019 74.979-48.352 48.353-74.981 112.64-74.981 181.021 0 68.379 26.628 132.666 74.98 181.019 48.353 48.352 112.64 74.981 181.02 74.981 68.378 0 132.665-26.629 181.019-74.981 48.352-48.353 74.981-112.64 74.981-181.019 0-68.381-26.629-132.669-74.98-181.02zm-30.96 138.279c2.791-2.79 6.66-4.391 10.611-4.391 3.949 0 7.81 1.601 10.6 4.391 2.789 2.79 4.391 6.659 4.391 10.609s-1.602 7.811-4.391 10.601c-2.789 2.8-6.65 4.399-10.6 4.399-3.951 0-7.82-1.6-10.611-4.399-2.789-2.79-4.389-6.65-4.389-10.601.001-3.95 1.601-7.819 4.389-10.609zm-48.199-80.33c2.791-2.79 6.66-4.4 10.609-4.4 3.941 0 7.811 1.61 10.602 4.4 2.799 2.79 4.398 6.66 4.398 10.609 0 3.94-1.6 7.811-4.398 10.601-2.791 2.79-6.66 4.399-10.602 4.399-3.949 0-7.818-1.609-10.609-4.399-2.789-2.79-4.4-6.66-4.4-10.601 0-3.949 1.611-7.819 4.4-10.609zm-80.34-48.2c2.801-2.79 6.66-4.4 10.609-4.4 3.951 0 7.82 1.61 10.611 4.4 2.789 2.79 4.389 6.65 4.389 10.61 0 3.939-1.6 7.81-4.389 10.6-2.791 2.79-6.66 4.39-10.611 4.39-3.949 0-7.809-1.6-10.609-4.39-2.789-2.79-4.391-6.66-4.391-10.6.001-3.95 1.602-7.82 4.391-10.61zm-64.259 43.379c2.789-2.79 6.649-4.39 10.609-4.39 3.95 0 7.811 1.6 10.6 4.39 2.791 2.79 4.4 6.66 4.4 10.6 0 3.95-1.609 7.82-4.4 10.61-2.789 2.79-6.66 4.39-10.6 4.39-3.949 0-7.82-1.6-10.609-4.39-2.791-2.79-4.391-6.66-4.391-10.61.001-3.939 1.6-7.81 4.391-10.6zm-108.931 188.3c-2.79 2.8-6.66 4.4-10.61 4.4-3.94 0-7.81-1.601-10.6-4.4-2.79-2.79-4.39-6.649-4.39-10.6s1.6-7.82 4.39-10.61 6.66-4.39 10.6-4.39c3.95 0 7.82 1.6 10.61 4.39s4.39 6.66 4.39 10.61-1.599 7.81-4.39 10.6zm1.611-146.2c-2.79 2.79-6.66 4.391-10.61 4.391s-7.81-1.601-10.61-4.391c-2.79-2.8-4.39-6.659-4.39-10.609s1.6-7.811 4.39-10.61c2.8-2.79 6.66-4.39 10.61-4.39s7.82 1.6 10.61 4.39c2.79 2.8 4.39 6.66 4.39 10.61s-1.6 7.809-4.39 10.609zm14.56 61.69c0-3.95 1.6-7.81 4.389-10.61 2.791-2.79 6.66-4.39 10.611-4.39 3.949 0 7.809 1.6 10.6 4.39 2.8 2.801 4.4 6.66 4.4 10.61s-1.6 7.82-4.4 10.61c-2.791 2.79-6.65 4.39-10.6 4.39-3.951 0-7.82-1.6-10.611-4.39-2.789-2.789-4.389-6.659-4.389-10.61zm33.639 139.14c-2.789 2.79-6.659 4.391-10.609 4.391s-7.82-1.601-10.6-4.391c-2.801-2.79-4.4-6.649-4.4-10.6 0-3.96 1.6-7.82 4.4-10.61 2.779-2.79 6.649-4.399 10.6-4.399s7.82 1.609 10.609 4.399c2.791 2.79 4.391 6.65 4.391 10.61 0 3.951-1.6 7.81-4.391 10.6zm32.131-265.1c-2.79 2.79-6.66 4.39-10.6 4.39-3.951 0-7.82-1.6-10.611-4.39-2.789-2.79-4.389-6.66-4.389-10.6 0-3.95 1.6-7.82 4.389-10.61 2.791-2.79 6.66-4.4 10.611-4.4 3.939 0 7.809 1.61 10.6 4.4 2.789 2.79 4.39 6.66 4.39 10.61 0 3.94-1.601 7.81-4.39 10.6zm32.13 329.371c-2.79 2.79-6.65 4.39-10.601 4.39-3.949 0-7.819-1.6-10.609-4.39-2.79-2.8-4.391-6.66-4.391-10.61s1.601-7.81 4.391-10.609c2.79-2.79 6.66-4.391 10.609-4.391 3.95 0 7.811 1.601 10.601 4.391 2.8 2.8 4.399 6.659 4.399 10.609 0 3.949-1.599 7.81-4.399 10.61zm80.34-48.201c-2.791 2.79-6.66 4.39-10.611 4.39-3.949 0-7.809-1.6-10.6-4.39-2.799-2.79-4.4-6.66-4.4-10.61 0-3.949 1.601-7.819 4.4-10.609 2.779-2.79 6.65-4.391 10.6-4.391 3.951 0 7.82 1.601 10.611 4.391 2.789 2.8 4.389 6.66 4.389 10.609 0 3.95-1.6 7.811-4.389 10.61zm-42.742-81.841c-27.166 0-49.268-22.101-49.268-49.267s22.102-49.267 49.268-49.267c27.165 0 49.265 22.101 49.265 49.267s-22.099 49.267-49.265 49.267zm107.012 122.002c-2.801 2.8-6.66 4.399-10.609 4.399-3.951 0-7.811-1.6-10.611-4.399-2.789-2.79-4.389-6.65-4.389-10.601 0-3.949 1.6-7.819 4.389-10.609 2.801-2.79 6.66-4.391 10.611-4.391 3.939 0 7.809 1.601 10.609 4.391 2.789 2.79 4.391 6.66 4.391 10.609-.001 3.94-1.602 7.81-4.391 10.601zm24.09-128.531c-2.779 2.79-6.65 4.39-10.6 4.39-3.951 0-7.82-1.6-10.611-4.39-2.789-2.79-4.389-6.66-4.389-10.6 0-3.95 1.6-7.82 4.389-10.61 2.791-2.79 6.66-4.39 10.611-4.39 3.949 0 7.82 1.6 10.6 4.39 2.801 2.79 4.4 6.66 4.4 10.61 0 3.94-1.6 7.81-4.4 10.6zm40.17 64.271c-2.789 2.79-6.65 4.39-10.6 4.39-3.961 0-7.82-1.6-10.611-4.39-2.789-2.79-4.398-6.66-4.398-10.61s1.609-7.81 4.398-10.61c2.791-2.79 6.66-4.39 10.611-4.39 3.939 0 7.81 1.6 10.6 4.39 2.789 2.801 4.4 6.66 4.4 10.61s-1.612 7.82-4.4 10.61z"/></svg>