<svg height="512pt" viewBox="0 0 512 512" width="512pt" xmlns="http://www.w3.org/2000/svg"><path d="m211 90h80c13.785156 0 25 11.214844 25 25s-11.214844 25-25 25h-50c-8.285156 0-15 6.714844-15 15s6.714844 15 15 15h50c30.328125 0 55-24.671875 55-55s-24.671875-55-55-55h-80c-8.269531 0-15-6.730469-15-15s6.730469-15 15-15h40c8.285156 0 15-6.714844 15-15s-6.714844-15-15-15h-40c-24.8125 0-45 20.1875-45 45s20.1875 45 45 45zm0 0"/><path d="m497 230h-36.550781c.359375-4.953125.550781-9.953125.550781-15 0-8.285156-6.714844-15-15-15h-380c-8.285156 0-15 6.714844-15 15 0 5.046875.191406 10.046875.550781 15h-36.550781c-8.285156 0-15 6.714844-15 15s6.714844 15 15 15h40.988281c20.566407 91.460938 102.429688 160 200.011719 160s179.445312-68.539062 200.011719-160h40.988281c8.285156 0 15-6.714844 15-15s-6.714844-15-15-15zm0 0"/><path d="m241 449.507812v47.492188c0 8.285156 6.714844 15 15 15s15-6.714844 15-15v-47.492188c-4.960938.3125-9.960938.492188-15 .492188s-10.039062-.179688-15-.492188zm0 0"/><path d="m103.011719 489.496094c-4.144531 7.175781-1.6875 16.351562 5.488281 20.492187 2.363281 1.363281 4.941406 2.011719 7.484375 2.011719 5.1875 0 10.230469-2.691406 13.003906-7.503906l40.898438-70.835938c-9.382813-3.707031-18.46875-8.015625-27.21875-12.851562zm0 0"/><path d="m369.332031 420.808594c-8.75 4.835937-17.835937 9.144531-27.21875 12.851562l40.898438 70.835938c2.777343 4.816406 7.816406 7.503906 13.003906 7.503906 2.542969 0 5.121094-.648438 7.484375-2.011719 7.175781-4.140625 9.632812-13.316406 5.488281-20.492187zm0 0"/></svg>