<?xml version="1.0" encoding="utf-8"?>
<!-- Generator: Adobe Illustrator 16.0.0, SVG Export Plug-In . SVG Version: 6.00 Build 0)  -->
<!DOCTYPE svg PUBLIC "-//W3C//DTD SVG 1.1//EN" "http://www.w3.org/Graphics/SVG/1.1/DTD/svg11.dtd">
<svg version="1.1" id="Layer_1" xmlns="http://www.w3.org/2000/svg" xmlns:xlink="http://www.w3.org/1999/xlink" x="0px" y="0px"
	 width="512px" height="512px" viewBox="0 0 512 512" enable-background="new 0 0 512 512" xml:space="preserve">
<g>
	<path d="M102.685,144.616C107.61,119.236,129.938,100,156.725,100c4.583,0,8.293,3.708,8.293,8.293c0,4.583-3.71,8.293-8.293,8.293
		c-15.745,0-29.279,9.533-35.243,23.114c5.092-0.79,10.25-1.232,15.433-1.232c22.19,0,43.279,7.014,60.756,19.987
		c11.211-8.281,23.812-13.673,36.852-16.795c15.76-3.771,32.13-3.773,47.893,0.002c10.47,2.508,20.534,6.679,29.932,12.518
		c0.523-29.953,24.948-54.18,55.007-54.18c4.584,0,8.293,3.708,8.293,8.293c0,4.583-3.709,8.293-8.293,8.293
		c-20.259,0-36.741,15.796-38.229,35.698c15.364-8.87,32.698-13.816,50.896-13.816c21.558,0,42.631,7.092,59.939,19.611
		c-0.476-43.681-35.972-78.925-79.717-78.925c-9.031,0-17.564,1.826-25.662,4.591c-8.44-34.307-39.178-59.839-76.09-59.839
		c-36.915,0-67.653,25.539-76.092,59.847c-8.103-2.77-16.646-4.599-25.69-4.599c-43.673,0-79.04,35.105-79.659,78.66l0.066-0.021
		C84.944,152.171,93.619,147.85,102.685,144.616z M259.917,43.245c4.583,0,8.293,3.708,8.293,8.293s-3.71,8.293-8.293,8.293
		c-21.234,0-38.517,17.299-38.517,38.549c0,3.528-2.218,6.495-5.319,7.694c-0.929,0.358-1.919,0.599-2.975,0.599
		c-4.584,0-8.292-3.708-8.292-8.293c0-0.864,0.215-1.67,0.255-2.526C206.42,66.646,230.395,43.245,259.917,43.245z"/>
	<path d="M76.144,246.6c0,0,0.017,0,0.031,0c15.566-0.015,30.338-5.344,42.195-15.143l4.892-4.422
		c7.207-7.208,20.052-7.273,27.356,0.064c12.602,12.569,29.252,19.485,46.761,19.485c0.098-0.017,0.243-0.017,0.406,0
		c17.622,0,34.273-6.885,46.906-19.406l1.004-1.02c7.37-6.431,18.513-6.366,25.819,0.258l0.663,0.665
		c12.375,12.392,29.544,19.485,47.053,19.485c0.033,0,0.064,0,0.098,0c17.752,0,34.436-6.917,47.02-19.533
		c7.225-7.177,20.102-7.208,27.227-0.05l1.232,1.199c12.424,11.855,28.686,18.367,45.983,18.4c17.606,0,34.775-7.127,47.117-19.535
		c9.671-9.751,9.622-25.511-0.113-35.181c-9.751-9.685-25.493-9.653-35.18,0.098c-6.237,6.285-17.477,6.187-23.745-0.064
		l-1.134-1.102c-12.715-12.197-30.015-19.161-47.716-19.161c-18.466,0-35.813,7.175-48.917,20.279
		c-3.158,3.175-6.673,5.054-11.839,4.891c-4.146,0-8.197-1.556-11.258-4.292l-0.68-0.696c-26.952-26.854-70.814-26.871-97.734,0.017
		l-0.794,0.792c-3.109,2.722-6.997,4.196-11.159,4.196c-0.033-0.017-0.064-0.017-0.098,0c-4.405,0-8.585-1.75-11.727-4.893
		c-13.039-13.086-30.402-20.294-48.9-20.294c-16.05,0-31.777,5.717-44.072,15.873l-4.859,4.39
		c-3.158,3.175-7.369,4.924-11.839,4.939c-4.472,0-8.666-1.748-11.841-4.923c-9.717-9.719-25.461-9.719-35.18,0
		c-9.718,9.718-9.718,25.461,0,35.18C41.691,239.668,58.392,246.6,76.144,246.6z"/>
	<path d="M501.675,285.229c-3.271-3.805-8.034-5.976-13.038-5.976h-37.959h-15.979H324.14h-10.747H203.24h-12.206H82.826h-16.82
		H28.313c-5.006,0-9.768,2.186-13.023,5.976c-3.271,3.792-4.729,8.829-3.983,13.785c10.625,70.182,70.215,152.95,151.638,192.033
		c8.082,3.888,16.812,5.848,25.77,5.848H328.22c8.892,0,17.752-1.993,25.77-5.848c81.423-39.083,141.03-121.852,151.654-192.033
		C506.389,294.059,504.947,289.021,501.675,285.229z"/>
</g>
<rect x="201.625" y="91.958" fill="none" stroke="#FF0000" stroke-miterlimit="10" width="6.416" height="9.375"/>
</svg>
