<svg height="512pt" viewBox="0 0 512 512" width="512pt" xmlns="http://www.w3.org/2000/svg"><path d="m421.773438 322.121094-1.542969 4.621094-20 60c-2.09375 6.285156-7.949219 10.261718-14.226563 10.261718-1.574218 0-3.175781-.25-4.746094-.773437-7.859374-2.621094-12.105468-11.113281-9.488281-18.972657l18.417969-55.257812h-38.375l-1.582031 4.742188-20 60c-2.097657 6.285156-7.949219 10.261718-14.230469 10.261718-1.570312 0-3.171875-.25-4.742188-.773437-7.859374-2.621094-12.109374-11.117188-9.488281-18.972657l18.417969-55.257812h-38.375l-1.582031 4.738281v.003907l-20 60c-2.097657 6.285156-7.949219 10.261718-14.230469 10.261718-1.570312 0-3.171875-.25-4.746094-.773437-7.859375-2.621094-12.105468-11.117188-9.484375-18.972657l18.417969-55.257812h-38.375l-1.582031 4.738281v.003907l-20 60c-2.09375 6.285156-7.949219 10.261718-14.230469 10.261718-1.570312 0-3.171875-.25-4.746094-.773437-7.859375-2.621094-12.105468-11.113281-9.484375-18.972657l18.417969-55.257812h-38.375l-1.578125 4.734375c-.003906.003906-.003906.003906-.003906.007813l-20 60c-2.09375 6.285156-7.949219 10.261718-14.226563 10.261718-1.574218 0-3.171875-.25-4.746094-.773437-7.859374-2.621094-12.109374-11.117188-9.488281-18.972657l18.417969-55.257812h-15.1875c-52.382812 0-95 42.617188-95 95s42.617188 95 95 95h322c52.382812 0 95-42.617188 95-95 0-50.78125-40.054688-92.386719-90.226562-94.878906zm0 0"/><path d="m367 0h-124.121094c46.5 31.488281 77.121094 84.734375 77.121094 145 0 29.691406-15.660156 56.796875-40 72.078125v57.921875c0 5.257812-.914062 10.304688-2.578125 15h179.578125c8.285156 0 15-6.714844 15-15v-77.078125c23.0625-6.546875 40-27.792969 40-52.921875 0-79.953125-65.046875-145-145-145zm0 0"/><path d="m145 0c-79.953125 0-145 65.046875-145 145 0 25.128906 16.9375 46.375 40 52.921875v77.078125c0 8.285156 6.714844 15 15 15h180c8.285156 0 15-6.714844 15-15v-77.078125c23.0625-6.546875 40-27.792969 40-52.921875 0-79.953125-65.046875-145-145-145zm0 0"/></svg>