<svg id="Solid" height="512" viewBox="0 0 512 512" width="512" xmlns="http://www.w3.org/2000/svg"><circle cx="320" cy="440" r="8"/><circle cx="296" cy="384" r="8"/><circle cx="216" cy="384" r="8"/><circle cx="256" cy="440" r="8"/><path d="m224 176h-87.59l2.4 48h85.19z"/><path d="m400 152a8.009 8.009 0 0 0 -8-8h-272a8.009 8.009 0 0 0 -8 8v8h288z"/><path d="m240 176h32v48h-32z"/><path d="m288 224h85.19l2.4-48h-87.59z"/><path d="m149.71 442a39.97 39.97 0 0 0 39.95 38h132.68a39.969 39.969 0 0 0 39.95-38l10.1-202h-232.78zm194.29-2a24 24 0 1 1 -24-24 24.028 24.028 0 0 1 24 24zm-48-80a24 24 0 1 1 -24 24 24.028 24.028 0 0 1 24-24zm-16 80a24 24 0 1 1 -24-24 24.027 24.027 0 0 1 24 24zm-64-80a24 24 0 1 1 -24 24 24.027 24.027 0 0 1 24-24zm-24 56a24 24 0 1 1 -24 24 24.027 24.027 0 0 1 24-24z"/><path d="m240 32h32v96h-32z"/><circle cx="192" cy="440" r="8"/></svg>