<svg id="Capa_1" enable-background="new 0 0 512 512" height="512" viewBox="0 0 512 512" width="512" xmlns="http://www.w3.org/2000/svg"><g><path d="m502.688 398.371c5.633-2.308 9.313-7.792 9.313-13.88v-158.491c0-8.284-6.716-15-15-15h-482.001c-8.284 0-15 6.716-15 15v157.895c0 6.197 3.811 11.756 9.591 13.991 15.129 5.849 23.048 17.154 51.409 21.566v31.548h-46c-8.284 0-15 6.716-15 15s6.716 15 15 15h482c8.284 0 15-6.716 15-15s-6.716-15-15-15h-46v-31.319c28.285-3.958 37.89-15.656 51.688-21.31zm-411.688 52.629v-31.468c13.789-2.073 27.184-7.062 39.069-14.985 22.281-14.855 51.076-14.855 73.359 0 32.383 21.59 74.245 21.598 106.641 0 22.282-14.855 51.077-14.855 73.359 0 11.456 7.638 24.312 12.542 37.571 14.744v31.709z"/><path d="m481 166c0-52.807-39.181-96.624-90-103.924v-16.076c0-8.284-6.716-15-15-15s-15 6.716-15 15v16.076c-50.819 7.301-90 51.117-90 103.924v15h210z"/><path d="m241 166c0-52.807-39.181-96.624-90-103.924v-16.076c0-8.284-6.716-15-15-15s-15 6.716-15 15v16.076c-50.819 7.3-90 51.117-90 103.924v15h210z"/></g></svg>