<svg height="512pt" viewBox="0 0 512 512" width="512pt" xmlns="http://www.w3.org/2000/svg"><path d="m482 331h-271v30h15c27.242188 0 66.363281 17.253906 89.957031 47.125 23.113281-29.546875 58.519531-47.125 97.117188-47.125h68.925781zm0 0"/><path d="m344.390625 421h137.609375v-30h-68.925781c-26.652344 0-51.277344 11.085938-68.683594 30zm0 0"/><path d="m211 421h76.25c-26.117188-28.21875-60.503906-29.140625-62.976562-30h-13.273438zm0 0"/><path d="m15 151h301c8.289062 0 15-6.710938 15-15v-30c0-8.289062-6.710938-15-15-15h-135v-76c0-8.289062-6.710938-15-15-15h-90c-8.289062 0-15 6.710938-15 15s6.710938 15 15 15h75v61h-136c-8.289062 0-15 6.710938-15 15v30c0 8.289062 6.710938 15 15 15zm0 0"/><path d="m437 211h-76v-15c0-8.289062-6.710938-15-15-15s-15 6.710938-15 15v15h-75c-41.421875 0-75 33.578125-75 75 0 8.285156 6.714844 15 15 15h301c8.285156 0 15-6.714844 15-15 0-41.421875-33.578125-75-75-75zm0 0"/><path d="m181 411.132812v-82.894531c-17.421875-6.214843-30-22.707031-30-42.238281 0-11.480469 2.308594-22.332031 5.730469-32.679688-16.917969-7.980468-35.589844-12.320312-54.277344-12.320312h-65.699219l13.636719 150h52.0625c24.246094 0 48.53125 5.726562 70.257813 16.582031 2.6875 1.34375 5.507812 2.402344 8.289062 3.550781zm0 0"/><path d="m256 181h-224.703125l2.726563 30h68.429687c23.1875 0 46.347656 5.378906 67.332031 15.332031 18.980469-27.328125 50.5-45.332031 86.214844-45.332031zm0 0"/><path d="m159.289062 434.417969c-17.5625-8.773438-37.21875-13.417969-56.835937-13.417969h-49.335937l6.941406 77.363281c.703125 7.71875 7.175781 13.636719 14.941406 13.636719h91.382812c-9.519531-12.574219-15.382812-29.050781-15.382812-46 0-11.683594 4.851562-21.945312 12.199219-29.90625-1.285157-.597656-2.640625-1.042969-3.910157-1.675781zm0 0"/><path d="m497 451h-301c-8.285156 0-15 6.714844-15 15 0 24.851562 20.148438 46 45 46h241c24.851562 0 45-21.148438 45-46 0-8.285156-6.714844-15-15-15zm0 0"/></svg>