<svg height="512pt" viewBox="0 0 511 512" width="512pt" xmlns="http://www.w3.org/2000/svg"><path d="m30.5 361h78.859375c-15.367187-18.636719-38.9375-30-63.859375-30h-15zm0 0"/><path d="m482.5 271h-452v30h15c36.09375 0 70.097656 16.933594 91 45.234375 20.902344-28.300781 53.90625-45.234375 90-45.234375h256zm0 0"/><path d="m1 410.070312c15.09375 57.933594 72.886719 101.929688 135.5 101.929688h240c62.609375 0 120.40625-43.996094 135.5-101.929688 2.5-9.597656-4.699219-19.070312-14.613281-19.070312h-29.878907c-31.09375 0-60.519531 17.570312-74.425781 45.382812l-3.164062 6.328126c-2.550781 5.082031-7.734375 8.289062-13.417969 8.289062s-10.871094-3.207031-13.417969-8.289062l-3.164062-6.328126c-13.90625-27.8125-42.332031-45.382812-73.425781-45.382812h-270.878907c-9.914062 0-17.113281 9.472656-14.613281 19.070312zm0 0"/><path d="m163.640625 361h122.859375c36.09375 0 69.097656 16.933594 90 45.234375 35.859375-48.582031 87.996094-44.363281 91-45.234375h15v-30h-256c-24.921875 0-47.492188 11.363281-62.859375 30zm0 0"/><path d="m15.703125 241h481.589844c8.886719 0 16.191406-7.757812 15.097656-16.574219-15.613281-125.734375-126-224.425781-255.890625-224.425781-129.894531 0-240.28125 98.691406-255.890625 224.425781-1.09375 8.816407 6.210937 16.574219 15.09375 16.574219zm320.191406-145.605469c5.859375-5.859375 15.351563-5.859375 21.210938 0l30 30c5.859375 5.859375 5.859375 15.351563 0 21.210938s-15.351563 5.859375-21.210938 0l-30-30c-5.859375-5.859375-5.859375-15.351563 0-21.210938zm-94.394531 40.605469c0-8.289062 6.707031-15 15-15 8.289062 0 15 6.710938 15 15v30c0 8.289062-6.710938 15-15 15-8.292969 0-15-6.710938-15-15zm-115.605469-10.605469 30-30c5.859375-5.859375 15.351563-5.859375 21.210938 0s5.859375 15.351563 0 21.210938l-30 30c-5.859375 5.859375-15.351563 5.859375-21.210938 0s-5.859375-15.351563 0-21.210938zm0 0"/></svg>