<svg height="512pt" viewBox="-91 0 512 512" width="512pt" xmlns="http://www.w3.org/2000/svg"><path d="m100.914062 152.070312c-5.433593 1.609376-10.914062 6.53125-10.914062 13.929688s5.480469 12.320312 10.914062 13.929688c.714844.214843 1.238282.757812 1.902344 1.070312h2.183594c5.105469 0 10.09375.476562 15 1.195312v-16.195312c0-24.8125 20.1875-45 45-45s45 20.1875 45 45v16.199219c4.933594-.746094 9.933594-1.199219 15-1.199219h2.183594c.667968-.3125 1.1875-.855469 1.902344-1.070312 5.433593-1.609376 10.914062-6.53125 10.914062-13.929688s-5.480469-12.320312-10.914062-13.929688c-4.335938-1.289062-7.863282-4.46875-9.59375-8.644531-1.730469-4.1875-1.480469-8.921875.671874-12.90625 2.710938-4.964843 3.09375-12.316406-2.136718-17.53125-5.214844-5.273437-12.566406-4.878906-17.550782-2.152343-3.953124 2.167968-8.699218 2.414062-12.902343.671874-4.175781-1.730468-7.355469-5.257812-8.644531-9.59375-1.609376-5.433593-6.53125-10.914062-13.929688-10.914062s-12.320312 5.480469-13.929688 10.914062c-1.289062 4.335938-4.46875 7.863282-8.644531 9.59375-4.160156 1.742188-8.9375 1.496094-12.90625-.671874-4.949219-2.726563-12.316406-3.105469-17.53125 2.136718-5.246093 5.230469-4.863281 12.582032-2.152343 17.550782 2.152343 3.984374 2.398437 8.714843.671874 12.902343-1.730468 4.175781-5.257812 7.355469-9.59375 8.644531zm0 0"/><path d="m150 166v25.425781c5.289062 2.546875 10.390625 5.414063 15.15625 8.765625 4.722656-3.292968 9.707031-6.125 14.84375-8.621094v-25.570312c0-8.277344-6.722656-15-15-15s-15 6.722656-15 15zm0 0"/><path d="m330 166c0-90.980469-74.019531-166-165-166s-165 75.019531-165 166v15h62.917969c-1.726563-4.742188-2.917969-9.710938-2.917969-15 0-14.546875 7.015625-27.65625 18.414062-35.875-2.257812-13.871094 2.0625-28.09375 12.347657-38.378906 10.285156-10.269532 24.667969-14.472656 38.363281-12.332032 8.21875-11.398437 21.328125-18.414062 35.875-18.414062s27.65625 7.015625 35.875 18.414062c13.84375-2.226562 28.09375 2.078126 38.378906 12.347657 10.269532 10.269531 14.589844 24.507812 12.332032 38.363281 11.398437 8.21875 18.414062 21.328125 18.414062 35.875 0 5.261719-1.039062 10.277344-2.753906 15h62.753906zm0 0"/><path d="m255 241h75v-30h-105c-13.4375 0-26.460938 3.679688-37.878906 10.375 14.105468 17.878906 22.878906 40.140625 22.878906 64.625v15h45c8.289062 0 15 6.710938 15 15s-6.710938 15-15 15h-45v181h15c52.753906 0 96.128906-40.25 103.484375-91h-73.484375c-8.289062 0-15-6.710938-15-15s6.710938-15 15-15h75v-120h-75c-8.289062 0-15-6.710938-15-15s6.710938-15 15-15zm0 0"/><path d="m180 512v-121h-45c-8.289062 0-15-6.710938-15-15s6.710938-15 15-15h45v-75c0-41.351562-33.648438-75-75-75h-105v60h75c8.289062 0 15 6.710938 15 15s-6.710938 15-15 15h-75v105c0 5.136719.800781 10.058594 1.515625 15h103.484375c8.289062 0 15 6.710938 15 15s-6.710938 15-15 15h-94.46875c16.921875 35.34375 52.742188 61 94.46875 61zm0 0"/></svg>