<svg height="512pt" viewBox="0 -21 512.00018 512" width="512pt" xmlns="http://www.w3.org/2000/svg"><path d="m0 455c0 8.28125 6.714844 15 15 15h482c8.28125 0 15-6.71875 15-15v-35h-512zm0 0"/><path d="m0 340h512v50h-512zm0 0"/><path d="m0 260h512v50h-512zm0 0"/><path d="m15 230h482c6.695312 0 12.582031-4.441406 14.421875-10.878906s-.8125-13.316406-6.496094-16.855469l-73.496093-45.742187c-15.4375 31.632812-47.929688 53.476562-85.429688 53.476562-52.382812 0-95-42.617188-95-95 0-21.957031 7.492188-42.195312 20.046875-58.300781l-7.121094-4.433594c-4.851562-3.019531-11-3.019531-15.851562 0l-241 150c-5.683594 3.539063-8.335938 10.417969-6.496094 16.855469s7.726563 10.878906 14.421875 10.878906zm0 0"/><path d="m346 180c35.839844 0 65-29.160156 65-65 0-29.828125-20.203125-55.007812-47.632812-62.625 5.074218-13.074219 17.785156-22.375 32.632812-22.375 8.28125 0 15-6.714844 15-15s-6.71875-15-15-15c-31.191406 0-57.308594 22.085938-63.566406 51.433594-29.347656 6.257812-51.433594 32.378906-51.433594 63.566406 0 35.839844 29.160156 65 65 65zm0 0"/></svg>