<svg height="512pt" viewBox="-121 0 512 512" width="512pt" xmlns="http://www.w3.org/2000/svg"><path d="m135.035156 270.9375c-16.542968 0-30.007812 13.464844-30.007812 30.007812 0 16.542969 13.464844 30.007813 30.007812 30.007813 16.542969 0 30.007813-13.464844 30.007813-30.007813 0-16.542968-13.464844-30.007812-30.007813-30.007812zm0 0"/><path d="m270.070312 210.921875h-270.070312v180.046875h270.070312zm-135.035156 150.039063c-33.097656 0-60.015625-26.917969-60.015625-60.015626 0-33.101562 26.917969-60.015624 60.015625-60.015624 33.101563 0 60.015625 26.914062 60.015625 60.015624 0 33.097657-26.914062 60.015626-60.015625 60.015626zm0 0"/><path d="m270.070312 496.996094c0-8.292969-6.710937-15.003906-15.003906-15.003906h-9.195312l20.003906-61.015626h-261.679688l20.003907 61.015626h-9.195313c-8.292968 0-15.003906 6.710937-15.003906 15.003906 0 8.292968 6.710938 15.003906 15.003906 15.003906h240.0625c8.292969 0 15.003906-6.710938 15.003906-15.003906zm0 0"/><path d="m270.070312 104.894531c0-8.296875-6.710937-15.003906-15.003906-15.003906h-240.0625c-8.292968 0-15.003906 6.707031-15.003906 15.003906 0 8.292969 6.710938 15.003907 15.003906 15.003907h9.195313l-20.003907 61.015624h261.679688l-20.003906-61.015624h9.195312c8.292969 0 15.003906-6.710938 15.003906-15.003907zm0 0"/><path d="m87.769531 23.054688c-7.691406 10.667968-11.164062 24.167968-10.738281 36.824218h116.011719c.425781-12.65625-3.050781-26.15625-10.738281-36.824218-22.183594-30.738282-72.355469-30.738282-94.535157 0zm0 0"/></svg>