<svg height="512pt" viewBox="0 -61 512 512" width="512pt" xmlns="http://www.w3.org/2000/svg"><path d="m106 120c-8.277344 0-15 6.722656-15 15s6.722656 15 15 15 15-6.722656 15-15-6.722656-15-15-15zm0 0"/><path d="m497 0h-421c-8.289062 0-15 6.710938-15 15 0 24.8125-21.1875 45-46 45-8.289062 0-15 6.710938-15 15v300c0 8.289062 6.710938 15 15 15h61c8.289062 0 15-6.710938 15-15 0-24.8125 20.1875-45 45-45s45 20.1875 45 45c0 8.289062 6.710938 15 15 15h301c8.289062 0 15-6.710938 15-15v-212.5625c0-4.863281-2.359375-9.433594-6.34375-12.246094s-9.066406-3.515625-13.652344-1.90625c-18.703125 6.652344-41.003906-8.320312-41.003906-28.285156-.015625-19.980469 22.269531-34.949219 41.003906-28.285156 4.585938 1.609375 9.667969.90625 13.652344-1.90625s6.34375-7.382813 6.34375-12.246094v-62.5625c0-8.289062-6.710938-15-15-15zm-361 240c-8.285156 0-15-6.714844-15-15s6.714844-15 15-15 15 6.714844 15 15-6.714844 15-15 15zm-30-60c-24.8125 0-45-20.1875-45-45s20.1875-45 45-45 45 20.1875 45 45-20.1875 45-45 45zm90-90c-8.285156 0-15-6.714844-15-15s6.714844-15 15-15 15 6.714844 15 15-6.714844 15-15 15zm30 90c-8.285156 0-15-6.714844-15-15s6.714844-15 15-15 15 6.714844 15 15-6.714844 15-15 15zm75 150c-33.089844 0-60-26.910156-60-60s26.910156-60 60-60 60 26.910156 60 60-26.910156 60-60 60zm45-180c-8.289062 0-15-6.710938-15-15s6.710938-15 15-15c8.277344 0 15-6.722656 15-15s-6.722656-15-15-15-15 6.722656-15 15c0 8.289062-6.710938 15-15 15s-15-6.710938-15-15c0-24.8125 20.1875-45 45-45s45 20.1875 45 45-20.1875 45-45 45zm90 120c-8.285156 0-15-6.714844-15-15s6.714844-15 15-15 15 6.714844 15 15-6.714844 15-15 15zm0 0"/><path d="m301 240c-16.539062 0-30 13.460938-30 30s13.460938 30 30 30 30-13.460938 30-30-13.460938-30-30-30zm0 0"/></svg>