<svg height="512pt" viewBox="-6 0 512 512" width="512pt" xmlns="http://www.w3.org/2000/svg"><path d="m470 302.039062v19.960938c0 41.625-11.621094 80.585938-31.789062 113.8125 35.074218-6.261719 61.789062-36.964844 61.789062-73.8125 0-24.484375-11.796875-46.261719-30-59.960938zm0 0"/><path d="m30 302.039062c-18.203125 13.699219-30 35.476563-30 59.960938 0 36.847656 26.714844 67.546875 61.789062 73.8125-20.167968-33.226562-31.789062-72.1875-31.789062-113.8125zm0 0"/><path d="m60 221.171875v48.828125h380v-48.828125c27.960938-19.519531 45-51.777344 45-86.171875 0-57.898438-47.101562-105-105-105-16.40625 0-32.328125 3.761719-46.78125 10.972656-19.714844-25.585937-50.402344-40.972656-83.21875-40.972656s-63.503906 15.386719-83.21875 40.972656c-14.453125-7.210937-30.375-10.972656-46.78125-10.972656-57.898438 0-105 47.101562-105 105 0 34.394531 17.039062 66.652344 45 86.171875zm0 0"/><path d="m440 300h-380v22c0 104.765625 85.234375 190 190 190s190-85.234375 190-190zm-256 56c-8.285156 0-15-6.714844-15-15s6.714844-15 15-15 15 6.714844 15 15-6.714844 15-15 15zm66 91c-24.8125 0-45-20.1875-45-45 0-8.285156 6.714844-15 15-15s15 6.714844 15 15c0 8.269531 6.730469 15 15 15s15-6.730469 15-15c0-8.285156 6.714844-15 15-15s15 6.714844 15 15c0 24.8125-20.1875 45-45 45zm66-91c-8.285156 0-15-6.714844-15-15s6.714844-15 15-15 15 6.714844 15 15-6.714844 15-15 15zm0 0"/></svg>