<svg height="511pt" viewBox="1 0 511.99914 511" width="511pt" xmlns="http://www.w3.org/2000/svg"><path d="m63.742188 219.828125c5.210937 6.507813 9.539062 13.894531 13.433593 21.664063h46.109375c0-27.480469 6.78125-54.167969 19.394532-77.3125-4.871094-2.886719-10.03125-5.457032-14.355469-8.9375 7.601562-16.59375 4.570312-36.910157-9.066407-50.5625-16.976562-16.976563-46.652343-17.007813-63.644531 0-8.144531 8.144531-12.507812 18.644531-13.09375 29.324218-10.679687.585938-21.183593 4.953125-29.328125 13.097656-17.617187 17.617188-17.558594 46.097657 0 63.628907 13.667969 13.652343 33.96875 16.699219 50.550782 9.097656zm0 0"/><path d="m436.992188 271.488281h-361.984376c-8.292968 0-15 6.710938-15 15 0 8.292969 6.707032 15 15 15h16.984376l4.285156 30h319.445312l4.285156-30h16.984376c8.292968 0 15-6.707031 15-15 0-8.289062-6.707032-15-15-15zm0 0"/><path d="m411.4375 361.484375h-310.875l8.570312 60h293.734376zm0 0"/><path d="m135.003906 512.480469h241.992188c7.46875 0 13.796875-5.492188 14.851562-12.875l6.730469-48.121094h-285.15625l6.730469 48.121094c1.054687 7.382812 7.382812 12.875 14.851562 12.875zm0 0"/><path d="m469.480469 134.003906c-.585938-10.679687-4.949219-21.179687-13.09375-29.324218-17.007813-17.007813-46.683594-16.976563-63.632813 0-13.648437 13.652343-16.683594 33.96875-9.078125 50.5625-2.933593 2.355468-6.464843 4.058593-9.648437 6.140624 13.667968 23.8125 21.25 51.457032 21.25 80.109376h39.542968c3.898438-7.769532 8.226563-15.15625 13.4375-21.664063 16.609376 7.585937 36.910157 4.539063 50.550782-9.082031 17.5625-17.5625 17.613281-46.03125 0-63.644532-8.148438-8.144531-18.648438-12.511718-29.328125-13.097656zm0 0"/><path d="m335.277344 45.496094c0-24.8125-20.183594-44.996094-44.996094-44.996094-11.515625 0-22.03125 4.351562-30 11.484375-7.96875-7.136719-20.484375-11.484375-32-11.484375-24.8125 0-44.996094 20.183594-44.996094 44.996094 0 19.308594 12.214844 36.800781 29.324219 43.1875-1.214844 10.980468-4.304687 21.960937-8.691406 32.8125h110.722656c-4.386719-10.847656-7.476563-21.828125-8.6875-32.8125 17.109375-6.386719 29.324219-23.878906 29.324219-43.1875zm0 0"/><path d="m331.1875 151.492188h-143.816406c-2.222656 3.191406-4.238282 6.425781-6.738282 9.550781-17.636718 22.019531-27.347656 50.582031-27.347656 80.449219h211.992188c0-29.867188-9.710938-58.433594-27.347656-80.449219-2.503907-3.121094-4.519532-6.359375-6.742188-9.550781zm0 0"/></svg>