<svg height="512pt" viewBox="0 0 512.00019 512" width="512pt" xmlns="http://www.w3.org/2000/svg"><path d="m123.96875 321.5625-32.4375 32.4375h-36.53125c-30.324219 0-55 24.671875-55 55 0 28.09375 21.167969 51.335938 48.394531 54.605469 3.273438 27.226562 26.511719 48.394531 54.605469 48.394531 30.328125 0 55-24.671875 55-55v-36.53125l32.4375-32.4375c-16.65625-6.15625-30.425781-14.628906-41.132812-25.335938-10.710938-10.707031-19.179688-24.476562-25.335938-41.132812zm0 0"/><path d="m511.902344 174.777344c-1.511719-43.335938-21.011719-85.867188-54.914063-119.769532-33.898437-33.898437-76.433593-53.398437-119.765625-54.9101558-46.230468-1.6015622-89.734375 16.6289058-125.855468 52.7499998-17.914063 17.914063-33.007813 41.410156-44.863282 69.839844-10.546875 25.296875-18.101562 53.820312-21.839844 82.496094-3.648437 27.972656-3.554687 54.972656.269532 78.074218 4.300781 25.957032 12.90625 45.546876 25.582031 58.222657 12.675781 12.679687 32.269531 21.285156 58.226563 25.582031 11.832031 1.960938 24.6875 2.941406 38.167968 2.941406 12.84375 0 26.261719-.890625 39.90625-2.667968 28.675782-3.742188 57.199219-11.292969 82.496094-21.84375 28.429688-11.851563 51.925781-26.945313 69.839844-44.859376 36.121094-36.121093 54.359375-79.640624 52.75-125.855468zm-250.902344-36.777344c-8.285156 0-15-6.714844-15-15s6.714844-15 15-15 15 6.714844 15 15-6.714844 15-15 15zm45-46c-8.285156 0-15-6.714844-15-15s6.714844-15 15-15 15 6.714844 15 15-6.714844 15-15 15zm45 46c-8.285156 0-15-6.714844-15-15s6.714844-15 15-15 15 6.714844 15 15-6.714844 15-15 15zm0 0"/></svg>