<svg height="512pt" viewBox="0 -31 512.00175 512" width="512pt" xmlns="http://www.w3.org/2000/svg"><path d="m399.507812 25.695312c-46.085937-46.085937-124.738281-27.484374-145.40625 34.324219l-32.847656 98.578125-9.53125-22.851562c-28.71875-74.371094-123.933594-93.894532-179.691406-38.136719-42.707031 42.707031-42.707031 112.207031 0 154.914063l173.492188 173.15625c31.785156 31.789062 83.492187 31.789062 115.28125 0 13.113281-13.113282 21.433593-30.503907 23.421874-48.960938l6.480469-60.410156-66.328125-66.332032c-5.863281-5.863281-5.863281-15.351562 0-21.210937 5.859375-5.863281 15.347656-5.863281 21.210938 0l49.230468 49.226563 4.109376-38.316407-53.339844-53.339843c-5.863282-5.863282-5.863282-15.347657 0-21.210938 5.863281-5.863281 15.351562-5.863281 21.214844 0l36.234374 36.234375 4.113282-38.316406-40.347656-40.347657c-5.863282-5.859374-5.863282-15.347656 0-21.210937 5.863281-5.863281 15.351562-5.863281 21.210937 0l83.96875 83.027344c27.34375.355469 54.804687-9.628907 75.621094-30.445313 5.863281-5.863281 5.863281-15.351562 0-21.214844zm-284.835937 203.070313c-5.859375 5.855469-15.355469 5.855469-21.214844 0-5.855469-5.859375-5.855469-15.359375 0-21.214844 5.859375-5.859375 15.355469-5.859375 21.214844 0 5.859375 5.855469 5.855469 15.355469 0 21.214844zm21.210937-63.640625c-5.855468 5.855469-15.351562 5.855469-21.210937 0-5.859375-5.859375-5.859375-15.355469 0-21.214844s15.355469-5.855468 21.210937 0c5.859376 5.859375 5.859376 15.355469 0 21.214844zm42.425782 84.851562c-5.855469 5.859376-15.355469 5.859376-21.210938 0-5.859375-5.859374-5.859375-15.355468 0-21.210937 5.859375-5.859375 15.355469-5.859375 21.210938 0 5.859375 5.855469 5.859375 15.351563 0 21.210937zm0 0"/></svg>