<svg height="512pt" viewBox="-61 0 512 512" width="512pt" xmlns="http://www.w3.org/2000/svg"><path d="m390 285c0-24.8125-20.1875-45-45-45h-300c-24.8125 0-45 20.1875-45 45v30c0 7.339844 5.304688 14.59375 12.539062 15.796875l360 60c.820313.128906 1.640626.203125 2.460938.203125 3.53125 0 6.972656-1.246094 9.695312-3.558594 3.371094-2.84375 5.304688-7.03125 5.304688-11.441406zm0 0"/><path d="m120 379.117188v41.882812h150v-16.882812zm0 0"/><path d="m30 364.117188v132.882812c0 8.289062 6.710938 15 15 15h300c8.289062 0 15-6.710938 15-15v-77.882812l-60-10v26.882812c0 8.289062-6.710938 15-15 15h-180c-8.289062 0-15-6.710938-15-15v-61.882812zm0 0"/><path d="m360 120h-150v90h150zm-60 60h-30c-8.289062 0-15-6.710938-15-15s6.710938-15 15-15h30c8.289062 0 15 6.710938 15 15s-6.710938 15-15 15zm0 0"/><path d="m180 0h-135c-8.289062 0-15 6.710938-15 15v75h150zm-60 60h-30c-8.289062 0-15-6.710938-15-15s6.710938-15 15-15h30c8.289062 0 15 6.710938 15 15s-6.710938 15-15 15zm0 0"/><path d="m30 210h150v-90h-150zm60-60h30c8.289062 0 15 6.710938 15 15s-6.710938 15-15 15h-30c-8.289062 0-15-6.710938-15-15s6.710938-15 15-15zm0 0"/><path d="m345 0h-135v90h150v-75c0-8.289062-6.710938-15-15-15zm-45 60h-30c-8.289062 0-15-6.710938-15-15s6.710938-15 15-15h30c8.289062 0 15 6.710938 15 15s-6.710938 15-15 15zm0 0"/></svg>