<?xml version="1.0" encoding="iso-8859-1"?>
<!-- Generator: Adobe Illustrator 19.0.0, SVG Export Plug-In . SVG Version: 6.00 Build 0)  -->
<svg version="1.1" id="Capa_1" xmlns="http://www.w3.org/2000/svg" xmlns:xlink="http://www.w3.org/1999/xlink" x="0px" y="0px"
	 viewBox="0 0 512 512" style="enable-background:new 0 0 512 512;" xml:space="preserve">
<g>
	<g>
		<path d="M406,0H106c-8.291,0-15,6.709-15,15v46h330V15C421,6.709,414.291,0,406,0z"/>
	</g>
</g>
<g>
	<g>
		<path d="M95.1,91h-8.941c-31.529,107.239-31.529,222.761,0,330h9.014C129.344,312.58,128.685,197.814,95.1,91z"/>
	</g>
</g>
<g>
	<g>
		<path d="M385.521,421c-31.987-107.721-32.115-221.887-0.009-330H126.766c31.789,107.093,31.943,221.373-0.412,330H385.521z
			 M197.67,197.655c25.459-25.444,75-20.435,106.055,10.62c30.09,30.09,38.756,77.904,10.605,106.055
			c-24.418,24.451-71.382,24.067-106.055-10.605C173.942,269.392,172.947,222.351,197.67,197.655z"/>
	</g>
</g>
<g>
	<g>
		<path d="M282.514,229.486c-12.951-12.935-30.969-21.672-49.365-17.549l67.02,67.02
			C304.184,260.882,295.544,242.535,282.514,229.486z"/>
	</g>
</g>
<g>
	<g>
		<path d="M211.837,233.048c-4.034,18.162,4.664,36.462,17.65,49.466c14.346,14.313,34.348,20.736,49.509,17.693L211.837,233.048z"
			/>
	</g>
</g>
<g>
	<g>
		<path d="M425.841,91h-8.95c-33.924,107.888-33.682,222.522,0.11,330h8.84C457.37,313.761,457.37,198.239,425.841,91z"/>
	</g>
</g>
<g>
	<g>
		<path d="M91,451v46c0,8.291,6.709,15,15,15h300c8.291,0,15-6.709,15-15v-46H91z"/>
	</g>
</g>
<g>
</g>
<g>
</g>
<g>
</g>
<g>
</g>
<g>
</g>
<g>
</g>
<g>
</g>
<g>
</g>
<g>
</g>
<g>
</g>
<g>
</g>
<g>
</g>
<g>
</g>
<g>
</g>
<g>
</g>
</svg>
