<svg height="512pt" viewBox="-91 0 512 512" width="512pt" xmlns="http://www.w3.org/2000/svg"><path d="m330 196v-60c0-8.289062-6.710938-15-15-15h-120c-8.289062 0-15 6.710938-15 15 0 8.277344-6.722656 15-15 15s-15-6.722656-15-15c0-8.289062-6.710938-15-15-15h-120c-8.289062 0-15 6.710938-15 15v60c0 8.289062 6.710938 15 15 15h300c8.289062 0 15-6.710938 15-15zm0 0"/><path d="m255 0h-60c-5.683594 0-10.867188 3.207031-13.417969 8.289062l-25.855469 52.710938h-110.726562c-8.289062 0-15 6.710938-15 15v15h270v-15c0-8.289062-6.710938-15-15-15h-15v-46c0-8.289062-6.710938-15-15-15zm0 0"/><path d="m298.429688 241h-266.859376l10 90h63.429688c14.0625-18.691406 36.328125-30 60-30s45.9375 11.308594 60 30h63.429688zm0 0"/><path d="m285.09375 361h-68.121094c-5.363281 0-10.296875-2.855469-12.980468-7.484375-8.039063-13.886719-22.980469-22.515625-38.992188-22.515625s-30.953125 8.628906-38.992188 22.515625c-2.683593 4.628906-7.617187 7.484375-12.980468 7.484375h-68.125l3.335937 30h64.789063c5.359375 0 10.296875 2.855469 12.980468 7.484375 8.039063 13.886719 22.980469 22.515625 38.992188 22.515625s30.953125-8.628906 38.992188-22.515625c2.683593-4.628906 7.617187-7.484375 12.980468-7.484375h64.789063zm0 0"/><path d="m165 451c-23.671875 0-45.9375-11.308594-60-30h-53.429688l8.519532 77.65625c.847656 7.601562 7.265625 13.34375 14.910156 13.34375h180c7.644531 0 14.0625-5.742188 14.910156-13.34375l8.519532-77.65625h-53.429688c-14.0625 18.691406-36.328125 30-60 30zm0 0"/></svg>