<svg height="512pt" viewBox="0 -15 512 512" width="512pt" xmlns="http://www.w3.org/2000/svg"><path d="m410 202.046875v-25.046875c0-8.285156-6.714844-15-15-15h-380c-8.285156 0-15 6.714844-15 15v159.023438c0 55.09375 23.324219 106.960937 63.992188 142.296874 2.730468 2.375 6.226562 3.679688 9.839843 3.679688h262.335938c3.613281 0 7.109375-1.304688 9.839843-3.679688 21.050782-18.289062 37.4375-41.015624 48.367188-66.320312h12.625c57.898438 0 105-47.101562 105-105 0-56.894531-45.484375-103.359375-102-104.953125zm-3 179.953125h-2.542969c3.644531-14.859375 5.542969-30.285156 5.542969-45.976562v-103.949219c39.96875 1.582031 72 34.574219 72 74.925781 0 41.355469-33.644531 75-75 75zm0 0"/><path d="m90 90h75c13.785156 0 25 11.214844 25 25 0 8.285156 6.714844 15 15 15s15-6.714844 15-15c0-30.328125-24.671875-55-55-55h-75c-8.269531 0-15-6.730469-15-15s6.730469-15 15-15h185c8.285156 0 15-6.714844 15-15s-6.714844-15-15-15h-185c-24.8125 0-45 20.1875-45 45s20.1875 45 45 45zm0 0"/></svg>