<svg height="512pt" viewBox="0 -22 512.00044 512" width="512pt" xmlns="http://www.w3.org/2000/svg"><path d="m30 298.953125c0 8.285156-6.714844 15-15 15s-15-6.714844-15-15 6.714844-15 15-15 15 6.714844 15 15zm0 0"/><path d="m121 73.953125c0 8.285156-6.714844 15-15 15s-15-6.714844-15-15 6.714844-15 15-15 15 6.714844 15 15zm0 0"/><path d="m222.265625 183.460938c3.667969 0 7.378906-.289063 11.09375-.878907 30.144531-4.796875 53.652344-29.398437 57.171875-59.828125.808594-7.007812.566406-14.023437-.71875-20.847656-2.40625-12.765625-10.648438-23.308594-22.613281-28.921875-12.328125-5.785156-26.769531-5.304687-38.628907 1.28125-14.507812 8.0625-22.933593 23.324219-21.460937 38.886719.128906 1.359375.082031 2.757812-.144531 4.160156-.929688 5.828125-5.433594 11.011719-11.203125 12.902344-4.335938 1.417968-8.472657 1.011718-12.652344-1.234375-5.9375-3.199219-13.285156-2.039063-17.949219 2.839843-4.664062 4.875-5.5 12.269532-2.035156 18.0625 12.625 21.121094 35.050781 33.582032 59.140625 33.578126zm0 0"/><path d="m505.980469 22.519531c-6.011719-10.410156-15.714844-17.855469-27.324219-20.96875-11.609375-3.109375-23.734375-1.5117185-34.144531 4.496094l-109.121094 63c-3.445313 1.992187-5.957031 5.265625-6.988281 9.109375-1.027344 3.84375-.488282 7.9375 1.5 11.382812l11.140625 19.296876-37.5625 82.558593-290.285157 167.597657c-3.445312 1.988281-5.960937 5.261718-6.988281 9.105468-1.03125 3.84375-.492187 7.9375 1.5 11.382813l30 51.960937c10.015625 17.347656 26.1875 29.761719 45.539063 34.945313 6.460937 1.730469 13.019531 2.585937 19.535156 2.585937 12.992188 0 25.820312-3.40625 37.375-10.078125l190.527344-110c35.8125-20.679687 48.128906-66.640625 27.449218-102.453125l-26.136718-45.277344 27.476562-60.402343.425782.738281c2.78125 4.8125 7.820312 7.5 13.007812 7.5 2.542969 0 5.121094-.648438 7.484375-2.011719l109.117187-63c21.488282-12.402343 28.878907-39.980469 16.472657-61.46875zm0 0"/><path d="m19.140625 246.480469c1.277344.339843 2.582031.511719 3.882813.511719 2.609374 0 5.199218-.683594 7.5-2.011719l38.972656-22.5 22.5 38.972656c2.777344 4.8125 7.816406 7.5 13.003906 7.5 2.542969 0 5.121094-.648437 7.484375-2.011719 7.175781-4.140625 9.632813-13.316406 5.488281-20.488281l-22.5-38.972656 38.972656-22.5c3.445313-1.988281 5.960938-5.265625 6.988282-9.109375 1.03125-3.839844.492187-7.9375-1.5-11.378906-10.015625-17.351563-26.1875-29.761719-45.539063-34.945313-19.351562-5.183594-39.5625-2.523437-56.914062 7.492187-35.808594 20.675782-48.125 66.636719-27.445313 102.453126 1.988282 3.445312 5.261719 5.957031 9.105469 6.988281zm0 0"/></svg>