<svg height="512pt" viewBox="0 0 512 512.00127" width="512pt" xmlns="http://www.w3.org/2000/svg"><path d="m13.160156 498.84375c17.546875 17.542969 46.09375 17.542969 63.640625 0l77.972657-77.972656c-13.570313-6.4375-26.472657-14.746094-37.6875-25.957032-11.210938-11.210937-19.515626-24.117187-25.953126-37.683593l-77.972656 77.972656c-17.546875 17.546875-17.546875 46.09375 0 63.640625zm0 0"/><path d="m498.925781 13.074219c-15.867187-15.871094-40.65625-17.238281-58.25-4.402344 13.320313 6.410156 26.007813 14.585937 37.035157 25.617187 11.03125 11.027344 19.207031 23.714844 25.617187 37.035157 12.835937-17.589844 11.46875-42.378907-4.402344-58.25zm0 0"/><path d="m194.050781 307.242188c7.019531 1.410156 13.949219-.695313 19.015625-5.757813 5.066406-5.066406 7.167969-11.996094 5.757813-19.019531-3.355469-16.777344 1.863281-34.011719 13.960937-46.113282 12.101563-12.097656 29.335938-17.316406 46.117188-13.960937 7.023437 1.40625 13.949218-.695313 19.015625-5.761719 5.066406-5.0625 7.167969-11.992187 5.761719-19.015625-3.359376-16.78125 1.863281-34.015625 13.960937-46.113281s29.332031-17.320312 46.113281-13.964844c7.023438 1.410156 13.953125-.691406 19.019532-5.757812 5.0625-5.066406 7.164062-11.996094 5.757812-19.015625-3.355469-16.78125 1.863281-34.015625 13.960938-46.117188 12.097656-12.097656 29.332031-17.316406 46.117187-13.960937 1.585937.316406 2.992187.054687 4.480469.035156-41.136719-37.808594-105.207032-37.09375-145.082032 2.78125l-169.707031 169.707031c-39.265625 39.265625-40.449219 101.941407-4.375 143.132813-.050781-.347656.117188-.671875.046875-1.019532-2.890625-18.945312 2.859375-35.570312 14.894532-47.027343 12.027343-11.425781 28.910156-16.3125 45.183593-13.050781zm0 0"/><path d="m473.425781 78.601562c-9.351562 4.136719-19.933593 5.648438-30.703125 3.496094-7.023437-1.40625-13.949218.699219-19.015625 5.761719-5.066406 5.066406-7.167969 11.992187-5.761719 19.015625 3.359376 16.78125-1.863281 34.015625-13.960937 46.113281-12.097656 12.097657-29.332031 17.320313-46.113281 13.964844-7.023438-1.410156-13.953125.691406-19.015625 5.757813-5.070313 5.066406-7.171875 11.992187-5.761719 19.019531 3.355469 16.777343-1.863281 34.015625-13.960938 46.109375-12.097656 12.097656-29.332031 17.320312-46.113281 13.964844-7.023437-1.410157-13.953125.691406-19.019531 5.757812s-7.167969 11.992188-5.757812 19.019531c3.355468 16.777344-1.863282 34.015625-13.960938 46.113281-12.097656 12.09375-29.335938 17.316407-46.113281 13.960938-6.816407-1.367188-13.601563.589844-18.625 5.386719-5.046875 4.796875-7.363281 11.464843-6.339844 18.292969 2.082031 10.496093.8125 20.628906-2.769531 29.777343 40.113281 23.007813 92.132812 17.808594 126.359375-16.417969l169.707031-169.707031c33.957031-33.949219 39.300781-85.40625 16.925781-125.386719zm0 0"/></svg>