<svg height="512.00043pt" viewBox="0 0 512.00043 512.00043" width="512.00043pt" xmlns="http://www.w3.org/2000/svg"><path d="m248.042969 30.613281c-15.167969 15.164063-25.171875 34.699219-28.859375 55.996094-21.296875 3.6875-40.832032 13.695313-55.996094 28.859375-30.96875 30.96875-39.109375 76.976562-21.355469 116.667969-17.753906 39.695312-9.613281 85.703125 21.355469 116.675781 30.972656 30.96875 76.984375 39.109375 116.675781 21.359375 39.691407 17.75 85.699219 9.609375 116.671875-21.359375 15.164063-15.164062 25.171875-34.699219 28.855469-55.996094 21.296875-3.6875 40.832031-13.691406 55.996094-28.855468 30.96875-30.972657 39.113281-76.980469 21.359375-116.675782 17.753906-39.691406 9.609375-85.699218-21.359375-116.671875-30.972657-30.96875-76.980469-39.109375-116.671875-21.355469-39.695313-17.753906-85.703125-9.613281-116.671875 21.355469zm0 0"/><path d="m76.800781 498.839844 102.625-102.625c-13.5625-6.488282-26.320312-15.054688-37.449219-26.191406-11.136718-11.132813-19.703124-23.886719-26.1875-37.449219l-102.628906 102.625c-17.546875 17.546875-17.546875 46.09375 0 63.640625s46.09375 17.546875 63.640625 0zm0 0"/></svg>