<svg height="512pt" viewBox="0 0 512 512" width="512pt" xmlns="http://www.w3.org/2000/svg"><path d="m401 347c0-8.269531-6.730469-15-15-15h-60c-8.269531 0-15 6.730469-15 15s6.730469 15 15 15h60c8.269531 0 15-6.730469 15-15zm0 0"/><path d="m497 222h-482c-8.285156 0-15 6.714844-15 15v200c0 8.285156 6.714844 15 15 15h126v-60h-15c-24.8125 0-45-20.1875-45-45s20.1875-45 45-45h60c24.8125 0 45 20.1875 45 45s-20.1875 45-45 45h-15v60h170v-60h-15c-24.8125 0-45-20.1875-45-45s20.1875-45 45-45h60c24.8125 0 45 20.1875 45 45s-20.1875 45-45 45h-15v60h126c8.285156 0 15-6.714844 15-15v-200c0-8.285156-6.714844-15-15-15zm0 0"/><path d="m341 482h-25c-8.285156 0-15 6.714844-15 15s6.714844 15 15 15h80c8.285156 0 15-6.714844 15-15s-6.714844-15-15-15h-25v-30h-30zm0 0"/><path d="m141 482h-25c-8.285156 0-15 6.714844-15 15s6.714844 15 15 15h80c8.285156 0 15-6.714844 15-15s-6.714844-15-15-15h-25v-30h-30zm0 0"/><path d="m201 347c0-8.269531-6.730469-15-15-15h-60c-8.269531 0-15 6.730469-15 15s6.730469 15 15 15h60c8.269531 0 15-6.730469 15-15zm0 0"/><path d="m15 30h46v31.765625c-28.632812 6.792969-50 32.554687-50 63.234375v10c0 8.285156 6.714844 15 15 15h100c8.285156 0 15-6.714844 15-15v-10c0-30.679688-21.367188-56.441406-50-63.234375v-31.765625h150v31.765625c-28.632812 6.792969-50 32.554687-50 63.234375v10c0 8.285156 6.714844 15 15 15h100c8.285156 0 15-6.714844 15-15v-10c0-30.679688-21.367188-56.441406-50-63.234375v-31.765625h150v31.765625c-28.632812 6.792969-50 32.554687-50 63.234375v10c0 8.285156 6.714844 15 15 15h100c8.285156 0 15-6.714844 15-15v-10c0-30.679688-21.367188-56.441406-50-63.234375v-31.765625h46c8.285156 0 15-6.714844 15-15s-6.714844-15-15-15h-482c-8.285156 0-15 6.714844-15 15s6.714844 15 15 15zm0 0"/></svg>