<svg id="Capa_1" enable-background="new 0 0 512.869 512.869" height="512" viewBox="0 0 512.869 512.869" width="512" xmlns="http://www.w3.org/2000/svg"><g><path d="m255.5 0c-77.542 0-154.845 24.093-221.768 68.525h114.833c14.09 0 27.931 1.229 41.411 3.608 15.099-20.307 39.266-33.49 66.458-33.49s51.359 13.183 66.458 33.49c13.48-2.379 27.321-3.608 41.411-3.608h116.536c-26.484-17.813-54.925-32.388-84.955-43.503-44.861-16.603-92.093-25.022-140.384-25.022z"/><path d="m223.105 80.535c11.511 3.847 22.648 8.587 33.329 14.169 10.681-5.581 21.818-10.321 33.329-14.169-9.094-7.428-20.699-11.892-33.329-11.892s-24.235 4.465-33.329 11.892z"/><path d="m148.565 98.525h-134.394l102.786 178.031h16.118c3.381-31.703 13.436-62.953 30.182-91.957 16.385-28.378 37.83-52.291 62.881-70.9-24.055-9.899-50.281-15.174-77.573-15.174z"/><path d="m395.912 276.556 102.786-178.031h-134.395c-73.08 0-138.525 37.785-175.065 101.074-14.032 24.304-22.654 50.421-25.909 76.957z"/><path d="m192.886 408.069 58.986 102.166c1.323 2.291 3.425 2.633 4.561 2.633 1.137 0 3.242-.343 4.567-2.639l58.983-102.161h-127.097z"/><path d="m336.99 378.612 41.602-72.056h-244.315l41.288 71.513s160.165.199 161.425.543z"/></g></svg>