<svg id="Capa_1" enable-background="new 0 0 512 512" height="512" viewBox="0 0 512 512" width="512" xmlns="http://www.w3.org/2000/svg"><g><path d="m308.257 297.435c-6.75 0-12.751 2.03-17.011 6.29-6.901 6.901-6.642 16.961-5.873 22.344 1.533 10.732 7.556 22.03 16.524 30.998s20.267 14.991 30.999 16.524c1.949.278 4.514.484 7.318.314l-27.577-27.577c-5.858-5.857-5.858-15.355 0-21.213 5.857-5.858 15.355-5.858 21.213 0l27.607 27.607c.748-11.974-5.265-26.743-16.867-38.347-10.96-10.958-24.748-16.94-36.333-16.94z"/><path d="m209.64 392.734c-6.574-6.575-19.256-7.871-28.977-7.585-.28 9.71 1.009 22.396 7.587 28.975 6.62 6.62 19.411 7.833 28.978 7.571.278-9.709-1.013-22.386-7.588-28.961.001 0 .001 0 0 0z"/><path d="m225.876 146.291c7.064-6.668 15.124-16.55 15.124-25.854 0-9.299-8.053-19.177-15.126-25.854-7.064 6.668-15.124 16.55-15.124 25.854 0 9.299 8.053 19.178 15.126 25.854z"/><path d="m135.5 210.75c-16.363 0-30.188 20.722-30.188 45.25 0 16.409 6.192 31.105 15.188 39.042v-39.042c0-8.284 6.716-15 15-15s15 6.716 15 15v39.042c8.996-7.937 15.188-22.633 15.188-39.042 0-24.528-13.825-45.25-30.188-45.25z"/><path d="m328.776 165.063c5.858-5.858 15.355-5.858 21.213 0s5.858 15.355 0 21.213l-27.607 27.607c11.974.748 26.743-5.264 38.346-16.867 8.968-8.968 14.991-20.267 16.524-30.999.769-5.383 1.028-15.443-5.873-22.344-5.024-5.025-11.724-6.254-17.073-6.254-1.998 0-3.807.171-5.271.38-10.732 1.533-22.03 7.556-30.999 16.524-8.968 8.968-14.99 20.266-16.523 30.999-.278 1.949-.485 4.514-.314 7.317z"/><path d="m437.02 74.98c-48.353-48.351-112.64-74.98-181.02-74.98s-132.667 26.629-181.02 74.98c-48.351 48.353-74.98 112.64-74.98 181.02s26.629 132.667 74.98 181.02c48.353 48.351 112.64 74.98 181.02 74.98s132.667-26.629 181.02-74.98c48.351-48.353 74.98-112.64 74.98-181.02s-26.629-132.667-74.98-181.02zm-165.206 106.1c2.467-17.274 11.349-34.31 25.009-47.969 13.66-13.66 30.695-22.542 47.969-25.009 18.597-2.658 36.018 2.577 47.8 14.358s17.015 29.203 14.358 47.8c-2.468 17.273-11.35 34.309-25.009 47.969-13.66 13.659-30.695 22.541-47.969 25.008-3.176.454-6.32.678-9.405.678-14.98 0-28.625-5.267-38.395-15.036-11.781-11.781-17.014-29.204-14.358-47.799zm-54.302-118.283c5.058-3.396 11.668-3.396 16.726 0 3.762 2.527 36.762 25.614 36.762 57.641s-33 55.113-36.762 57.64c-2.529 1.698-5.446 2.547-8.363 2.547s-5.834-.849-8.363-2.547c-3.763-2.527-36.762-25.613-36.762-57.64s33-55.114 36.762-57.641zm-82.012 57.703c8.409 0 14.636 6.873 15 15 .363 8.101-7.154 15-15 15-8.409 0-14.636-6.873-15-15-.363-8.101 7.154-15 15-15zm-43.953 187.103c-10.469-13.959-16.235-32.285-16.235-51.603s5.766-37.644 16.235-51.603c11.271-15.028 27.291-23.647 43.953-23.647s32.682 8.619 43.953 23.647c10.469 13.959 16.235 32.285 16.235 51.603s-5.766 37.644-16.235 51.603c-11.271 15.028-27.291 23.647-43.953 23.647s-32.682-8.619-43.953-23.647zm154.07 130.671c-1.175 5.978-5.849 10.652-11.827 11.827-1.794.353-9.318 1.703-19.143 1.703-14.532 0-34.098-2.955-47.609-16.466-22.646-22.646-15.637-62.305-14.763-66.752 1.175-5.978 5.849-10.652 11.827-11.827 4.448-.875 44.106-7.883 66.753 14.763 22.645 22.645 15.635 62.304 14.762 66.752zm-6.117-182.441c-8.409 0-14.636-6.873-15-15-.363-8.101 7.154-15 15-15 8.409 0 14.636 6.873 15 15 .363 8.101-7.154 15-15 15zm52.833 195.917c-8.409 0-14.636-6.873-15-15-.363-8.101 7.154-15 15-15 8.409 0 14.636 6.873 15 15 .363 8.101-7.153 15-15 15zm84.12-62.819c-9.769 9.769-23.417 15.036-38.395 15.036-3.086 0-6.229-.223-9.405-.677-17.273-2.468-34.309-11.35-47.969-25.009s-22.542-30.695-25.009-47.969c-2.657-18.596 2.577-36.019 14.358-47.8 11.781-11.782 29.206-17.017 47.8-14.358 17.273 2.467 34.309 11.349 47.969 25.008 13.659 13.66 22.541 30.695 25.008 47.969 2.657 18.596-2.576 36.018-14.357 47.8zm30.172-117.931c-8.409 0-14.636-6.873-15-15-.363-8.101 7.154-15 15-15 8.409 0 14.636 6.873 15 15 .363 8.101-7.154 15-15 15z"/></g></svg>