<svg height="512pt" viewBox="0 -46 512 512" width="512pt" xmlns="http://www.w3.org/2000/svg"><path d="m422 105v-60c0-8.289062-6.710938-15-15-15h-60c-19.53125 0-36.023438 12.578125-42.238281 30h-49.761719c-8.289062 0-15 6.710938-15 15s6.710938 15 15 15h49.761719c4.894531 13.722656 16.183593 24.289062 30.339843 28.199219-20.863281 22.40625-33.101562 51.957031-33.101562 83.875v67.925781h-66.1875l-20.003906-60h-184.058594c-16.167969 15.789062-26.90625 36.789062-30.253906 60.210938 18.957031-18.636719 44.886718-30.210938 73.503906-30.210938h30c57.890625 0 105 47.109375 105 105v15h152v-62.578125c0-34.425781 15.027344-67 41.234375-89.355469 3.953125-3.371094 8.527344-5.777344 12.851563-8.582031l-19.878907-79.484375h10.792969c8.289062 0 15-6.710938 15-15zm0 0"/><path d="m452 300c-33.136719 0-60 26.863281-60 60s26.863281 60 60 60 60-26.863281 60-60-26.863281-60-60-60zm0 75c-8.285156 0-15-6.714844-15-15s6.714844-15 15-15 15 6.714844 15 15-6.714844 15-15 15zm0 0"/><path d="m30 180h195c8.285156 0 15-6.714844 15-15 0-24.851562-20.148438-45-45-45h-165c-16.570312 0-30 13.429688-30 30 0 16.566406 13.429688 30 30 30zm0 0"/><path d="m31.519531 90h146.960938c-5.976563-29.324219-29.164063-52.355469-58.480469-58.355469v-16.644531c0-8.289062-6.710938-15-15-15s-15 6.710938-15 15v16.644531c-29.316406 6-52.503906 29.03125-58.480469 58.355469zm0 0"/><path d="m15 360h165v-15c0-41.421875-33.578125-75-75-75h-30c-41.421875 0-75 33.578125-75 75 0 8.285156 6.714844 15 15 15zm0 0"/><path d="m90 420c22.152344 0 41.285156-12.140625 51.679688-30h-103.359376c10.394532 17.859375 29.527344 30 51.679688 30zm0 0"/><path d="m457.027344 213.0625c-12.753906 3.660156-24.480469 9.425781-34.324219 17.828125-18.371094 15.679687-29 38.15625-30.222656 62.121094 15.902343-14.144531 36.609375-23.011719 59.519531-23.011719 22.265625 0 42.402344 8.425781 58.132812 21.867188 1.09375-2.085938 1.867188-4.351563 1.867188-6.867188 0-34.371094-23.378906-63.109375-54.972656-71.9375zm0 0"/></svg>