<svg height="512pt" viewBox="0 -58 512 512" width="512pt" xmlns="http://www.w3.org/2000/svg"><path d="m120 60.839844c-67.40625 7.484375-120 64.792968-120 134.160156v5h120zm0 0"/><path d="m115 275c-33.085938 0-60 26.914062-60 60s26.914062 60 60 60 60-26.914062 60-60-26.914062-60-60-60zm0 75c-8.269531 0-15-6.730469-15-15s6.730469-15 15-15 15 6.730469 15 15-6.730469 15-15 15zm0 0"/><path d="m397 275c-33.085938 0-60 26.914062-60 60s26.914062 60 60 60 60-26.914062 60-60-26.914062-60-60-60zm0 75c-8.269531 0-15-6.730469-15-15s6.730469-15 15-15 15 6.730469 15 15-6.730469 15-15 15zm0 0"/><path d="m497 0h-285v350h96.257812c-1.074218-6.378906-1.488281-12.980469-1.132812-19.734375 2.460938-46.875 41.089844-84.296875 88.019531-85.246094 50.46875-1.023437 91.855469 39.738281 91.855469 89.980469 0 5.109375-.433594 10.121094-1.257812 15h11.257812c8.285156 0 15-6.714844 15-15v-320c0-8.285156-6.714844-15-15-15zm-60 216h-180c-8.285156 0-15-6.714844-15-15s6.714844-15 15-15h1.257812c6.339844-37.632812 36.109376-67.402344 73.742188-73.742188v-11.257812h-5c-8.285156 0-15-6.714844-15-15s6.714844-15 15-15h40c8.285156 0 15 6.714844 15 15s-6.714844 15-15 15h-5v11.257812c37.632812 6.339844 67.402344 36.113282 73.742188 73.742188h1.257812c8.285156 0 15 6.714844 15 15s-6.714844 15-15 15zm0 0"/><path d="m347 141c-27.90625 0-51.425781 19.148438-58.101562 45h116.203124c-6.675781-25.851562-30.195312-45-58.101562-45zm0 0"/><path d="m150 215c0 8.25-6.75 15-15 15h-135v105c0 8.285156 6.714844 15 15 15h11.257812c-1.074218-6.378906-1.488281-12.980469-1.132812-19.734375 2.460938-46.875 41.089844-84.296875 88.019531-85.246094 27.324219-.554687 51.980469 11.144531 68.855469 29.960938v-214.980469h-32zm0 0"/></svg>