<svg id="Layer_1" enable-background="new 0 0 510 510" height="512" viewBox="0 0 510 510" width="512" xmlns="http://www.w3.org/2000/svg"><g><path d="m469.771 212.676c.151-2.291.229-4.776.229-7.542 0-23.807-11.611-46.216-31.061-59.945l-40.435-28.542c16.287 30.257 23.334 63.011 20.727 96.029z"/><path d="m301.061 145.19c-19.45 13.729-31.061 36.138-31.061 59.945 0 2.526.134 5.043.388 7.542h50.112c-2.598-32.908 4.395-65.553 20.565-95.725z"/><path d="m189.231 212.676h50.54c.151-2.291.229-4.776.229-7.542 0-23.807-11.611-46.216-31.061-59.945l-40.435-28.542c16.287 30.257 23.334 63.012 20.727 96.029z"/><path d="m30 242.676h450v45h-450z"/><path d="m111.065 116.952-40.004 28.238c-19.45 13.729-31.061 36.138-31.061 59.945 0 2.526.134 5.043.388 7.542h50.112c-2.598-32.908 4.395-65.554 20.565-95.725z"/><path d="m369.865 126.867c-15.493 26.937-22.057 56.319-19.253 85.809h38.506c2.804-29.488-3.759-58.871-19.253-85.809z"/><path d="m226.24 120.681c11.765 8.305 21.487 18.869 28.76 30.87 7.273-12.002 16.995-22.565 28.76-30.87l2.34-1.652c-6.749-33.5-16.293-62.502-28.44-86.302l-2.758-5.404-2.758 5.404c-12.134 23.771-21.669 52.731-28.416 86.179z"/><path d="m312.737 100.227 34.225-24.159c-5.737-8.267-12.967-15.534-21.444-21.396l-35.978-24.878c9.419 20.645 17.18 44.229 23.197 70.433z"/><path d="m139.865 126.867c-15.493 26.937-22.057 56.319-19.253 85.809h38.506c2.804-29.488-3.759-58.871-19.253-85.809z"/><path d="m330 317.676h90v165h-90z"/><path d="m450 317.676h60v165h-60z"/><path d="m210 317.676h90v165h-90z"/><path d="m90 317.676h90v165h-90z"/><path d="m197.092 100.106c5.992-26.068 13.711-49.545 23.074-70.11l-35.685 24.675c-8.477 5.862-15.707 13.129-21.444 21.396z"/><path d="m0 317.676h60v165h-60z"/></g></svg>