<svg height="512pt" viewBox="0 0 512 512" width="512pt" xmlns="http://www.w3.org/2000/svg"><path d="m256 211c-24.8125 0-45 20.1875-45 45s20.1875 45 45 45 45-20.1875 45-45-20.1875-45-45-45zm0 0"/><path d="m383.28125 158.660156c0-16.464844-14.105469-29.941406-31.4375-29.941406-27.65625 0-54.886719-11.496094-74.691406-31.566406-5.492188-5.492188-13.039063-8.554688-21.152344-8.554688-8.246094 0-15.789062 3.191406-21.824219 9.242188-19.644531 19.894531-46.453125 30.878906-75.425781 30.878906-16.273438 0-30.03125 14.136719-30.03125 30.878906.175781 27.804688-11.335938 55.269532-31.550781 75.25-5.464844 5.449219-8.46875 12.980469-8.410157 21.125.058594 8.289063 3.28125 16.054688 9.097657 21.867188 19.761719 19.511718 31.027343 47.066406 30.863281 75.5 0 16.464844 14.105469 29.941406 31.4375 29.941406 27.65625 0 54.886719 11.496094 74.691406 31.566406 11.058594 11.058594 30.996094 11.292969 42.980469-.6875 19.644531-19.894531 46.449219-30.878906 75.410156-30.878906 16.289063 0 30.042969-14.136719 30.042969-30.878906-.175781-27.804688 11.335938-55.269532 31.554688-75.25 5.460937-5.449219 8.464843-12.980469 8.40625-21.125-.058594-8.289063-3.28125-16.054688-9.097657-21.867188-19.761719-19.511718-31.027343-47.066406-30.863281-75.5zm-127.28125-37.660156c8.285156 0 15 6.714844 15 15s-6.714844 15-15 15-15-6.714844-15-15 6.714844-15 15-15zm-95.460938 39.539062c5.859376-5.855468 15.355469-5.855468 21.214844 0 5.859375 5.859376 5.859375 15.355469 0 21.214844s-15.355468 5.859375-21.214844 0c-5.855468-5.859375-5.855468-15.355468 0-21.214844zm-24.539062 110.460938c-8.285156 0-15-6.714844-15-15s6.714844-15 15-15 15 6.714844 15 15-6.714844 15-15 15zm45.753906 80.460938c-5.859375 5.855468-15.355468 5.855468-21.214844 0-5.859374-5.859376-5.859374-15.355469 0-21.214844 5.859376-5.859375 15.355469-5.859375 21.214844 0s5.859375 15.355468 0 21.214844zm74.246094 39.539062c-8.285156 0-15-6.714844-15-15s6.714844-15 15-15 15 6.714844 15 15-6.714844 15-15 15zm0-60c-41.351562 0-75-33.648438-75-75s33.648438-75 75-75 75 33.648438 75 75-33.648438 75-75 75zm95.460938 20.460938c-5.859376 5.855468-15.355469 5.855468-21.214844 0-5.859375-5.859376-5.859375-15.355469 0-21.214844s15.355468-5.859375 21.214844 0c5.855468 5.859375 5.855468 15.355468 0 21.214844zm0-169.707032c-5.859376 5.859375-15.355469 5.859375-21.214844 0s-5.859375-15.355468 0-21.214844c5.859375-5.859374 15.355468-5.859374 21.214844 0 5.855468 5.859376 5.855468 15.355469 0 21.214844zm24.539062 89.246094c-8.285156 0-15-6.714844-15-15s6.714844-15 15-15 15 6.714844 15 15-6.714844 15-15 15zm0 0"/><path d="m256 0c-140.609375 0-256 115.390625-256 256s115.390625 256 256 256 256-115.390625 256-256-115.390625-256-256-256zm179.984375 298.4375c-14.574219 14.398438-22.820313 34.011719-22.703125 53.875 0 33.664062-26.925781 60.96875-60.03125 60.96875-20.886719 0-40.105469 7.820312-54.125 22.015625-11.851562 11.867187-26.746094 18.105469-43.125 18.105469-16.144531 0-31.199219-6.179688-42.4375-17.417969-14.265625-14.457031-33.71875-22.703125-53.40625-22.703125-33.882812 0-61.4375-26.925781-61.4375-60.027344.117188-20.496094-7.894531-40.195312-22.015625-54.144531-11.484375-11.46875-17.84375-26.703125-17.945313-42.933594-.117187-16.246093 6.019532-31.375 17.257813-42.613281 14.574219-14.398438 22.820313-34.011719 22.703125-53.875 0-33.664062 26.925781-60.96875 60.027344-60.96875 20.890625 0 40.109375-7.820312 54.125-22.015625 23.511718-23.570313 62.917968-23.335937 85.5625-.6875 14.269531 14.457031 33.722656 22.703125 53.410156 22.703125 33.882812 0 61.433594 26.925781 61.433594 60.03125-.117188 20.492188 7.898437 40.195312 22.019531 54.140625 11.484375 11.46875 17.839844 26.703125 17.941406 42.933594.121094 16.246093-6.015625 31.375-17.253906 42.613281zm0 0"/></svg>