<svg height="512pt" viewBox="-61 0 512 512.001" width="512pt" xmlns="http://www.w3.org/2000/svg"><path d="m360.0625 15c0-8.289062-6.707031-15-15-15h-30c-24.617188 0-46.316406 12.085938-60 30.464844-13.679688-18.378906-35.378906-30.464844-60-30.464844h-30c-8.289062 0-15 6.710938-15 15 0 41.128906 33.300781 74.570312 74.34375 74.933594-1.429688 1.925781-2.734375 3.632812-4.265625 5.734375 20.554687 9.53125 34.921875 30.222656 34.921875 54.332031v80.082031l89.691406-40.898437c-16.066406-38.238282-41.457031-75.6875-58.960937-99.257813 41.011719-.402343 74.269531-33.820312 74.269531-74.925781zm0 0"/><path d="m386.464844 215.398438c-4.199219-5.097657-11.402344-6.898438-17.703125-4.199219l-292.199219 132.902343 105.902344 161.296876c2.996094 4.203124 7.800781 6.601562 12.597656 6.601562 4.847656 0 10.046875-2.769531 12.597656-6.601562l180-272c3.601563-5.699219 3.304688-12.898438-1.195312-18zm0 0"/><path d="m195.0625 120c-8.28125 0-15 6.714844-15 15v115.589844l15.015625 6.84375 29.984375-13.671875v-93.761719c0-16.570312-13.429688-30-30-30zm0 0"/><path d="m3.664062 215.398438c-4.5 5.101562-4.800781 12.300781-1.199218 18l57.175781 85.417968 99.203125-44.929687-137.480469-62.6875c-6.300781-2.699219-13.5-.898438-17.699219 4.199219zm0 0"/><path d="m105.0625 216.394531 45 20.515625v-11.910156c0-24.851562-20.144531-45-45-45zm0 0"/><path d="m30.0625 182.644531c1.03125.355469 2.097656.542969 3.105469.972657l41.894531 19.101562v-97.71875c0-8.285156-6.714844-15-15-15-16.566406 0-30 13.429688-30 30zm0 0"/></svg>