<svg height="512pt" viewBox="0 0 512.00123 512" width="512pt" xmlns="http://www.w3.org/2000/svg"><path d="m510.238281 15.472656c.347657 4.238282-1.09375 8.59375-4.335937 11.835938l-56.566406 56.570312c-2.929688 2.929688-6.769532 4.394532-10.605469 4.394532-3.839844 0-7.679688-1.464844-10.605469-4.394532-5.859375-5.859375-5.859375-15.355468 0-21.214844l56.566406-56.566406c3.242188-3.242187 7.601563-4.683594 11.839844-4.335937-5.0625-.546875-45.507812-4.558594-96.675781 1.742187-31.652344 3.894532-60.878907 10.957032-86.863281 20.988282-33.015626 12.746093-60.894532 30.351562-82.871094 52.328124-21.976563 21.976563-39.582032 49.859376-52.328125 82.871094-10.035157 25.988282-17.097657 55.214844-20.992188 86.863282-3.832031 31.15625-3.847656 58.335937-3.148437 75.972656l-51.035156-12.46875c-30.386719-7.597656-68.941407 6.414062-98.222657 35.691406-3.820312 3.820312-5.292969 9.402344-3.851562 14.609375 1.441406 5.207031 5.578125 9.238281 10.820312 10.546875 69.832031 17.460938 112.269531 59.894531 129.726563 129.730469 1.3125 5.242187 5.339844 9.375 10.550781 10.816406 1.320313.367187 2.667969.546875 4 .546875 3.925781 0 7.757813-1.542969 10.609375-4.394531 29.277344-29.28125 43.289062-67.835938 35.710938-98.148438l-12.492188-51.113281c5.253906.210938 11.34375.355469 18.136719.355469 16.03125 0 35.957031-.808594 57.835937-3.5 31.652344-3.894531 60.878906-10.957031 86.863282-20.992188 33.015624-12.746093 60.898437-30.351562 82.875-52.328125 21.972656-21.976562 39.582031-49.859375 52.328124-82.871094 3.011719-7.800781 5.75-15.902343 8.222657-24.265624-.613281 1.003906-1.335938 1.957031-2.203125 2.824218-22.417969 22.421875-51.867188 33.632813-81.316406 33.632813-29.449219 0-58.898438-11.210938-81.316407-33.632813-5.859375-5.855468-5.859375-15.351562 0-21.210937 5.855469-5.855469 15.355469-5.855469 21.210938 0 33.144531 33.140625 87.066406 33.140625 120.210937 0 5.855469-5.855469 15.355469-5.855469 21.210938 0 2.9375 2.933593 4.398437 6.785156 4.394531 10.628906 4.664063-17.265625 8.207031-35.601563 10.578125-54.839844 6.296875-51.144531 2.292969-91.582031 1.738281-96.671875zm-135.148437 93.15625c-5.859375 5.855469-15.355469 5.855469-21.210938 0-5.859375-5.859375-5.859375-15.355468 0-21.214844 5.855469-5.859374 15.351563-5.859374 21.210938 0 5.859375 5.859376 5.859375 15.355469 0 21.214844zm0 0"/></svg>