<svg height="512pt" viewBox="0 0 512 512" width="512pt" xmlns="http://www.w3.org/2000/svg"><path d="m497 200h-482c-8.285156 0-15 6.714844-15 15s6.714844 15 15 15h36v157c0 8.285156 6.714844 15 15 15h17v21.921875c-18.492188 5.59375-32 22.785156-32 43.078125 0 24.8125 20.1875 45 45 45s45-20.1875 45-45c0-18.800781-11.59375-34.933594-28-41.65625v-23.34375h286v23.34375c-16.40625 6.722656-28 22.855469-28 41.65625 0 24.8125 20.1875 45 45 45s45-20.1875 45-45c0-20.292969-13.507812-37.484375-32-43.078125v-21.921875h17c8.285156 0 15-6.714844 15-15v-157h36c8.285156 0 15-6.714844 15-15s-6.714844-15-15-15zm-401 282c-8.269531 0-15-6.730469-15-15s6.730469-15 15-15 15 6.730469 15 15-6.730469 15-15 15zm335-15c0 8.269531-6.730469 15-15 15s-15-6.730469-15-15 6.730469-15 15-15 15 6.730469 15 15zm0 0"/><path d="m271 40.992188v-10.992188h5c8.285156 0 15-6.714844 15-15s-6.714844-15-15-15h-40c-8.285156 0-15 6.714844-15 15s6.714844 15 15 15h5v10.992188c-40.925781 5.359374-75.15625 32.300781-90.824219 69.007812h211.648438c-15.667969-36.707031-49.898438-63.648438-90.824219-69.007812zm0 0"/><path d="m136 170h240c8.285156 0 15-6.714844 15-15s-6.714844-15-15-15h-240c-8.285156 0-15 6.714844-15 15s6.714844 15 15 15zm0 0"/></svg>