<svg height="512pt" viewBox="0 -23 512 511" width="512pt" xmlns="http://www.w3.org/2000/svg"><path d="m121 435.503906c0 16.566406-13.429688 30-30 30s-30-13.433594-30-30c0-16.570312 13.429688-30 30-30s30 13.429688 30 30zm0 0"/><path d="m211 435.503906c0 16.566406-13.429688 30-30 30s-30-13.433594-30-30c0-16.570312 13.429688-30 30-30s30 13.429688 30 30zm0 0"/><path d="m421 435.503906c0 16.566406-13.429688 30-30 30s-30-13.433594-30-30c0-16.570312 13.429688-30 30-30s30 13.429688 30 30zm0 0"/><path d="m166 255.503906c8.277344 0 15-6.726562 15-15v-15h-30v15c0 8.273438 6.722656 15 15 15zm0 0"/><path d="m211 240.503906c0 8.273438 6.722656 15 15 15s15-6.726562 15-15v-15h-30zm0 0"/><path d="m196 273.796875c-7.980469 7.199219-18.433594 11.707031-30 11.707031s-22.019531-4.507812-30-11.707031c-7.980469 7.199219-18.433594 11.707031-30 11.707031-5.285156 0-10.285156-1.082031-15-2.765625v32.765625h150v-32.765625c-4.714844 1.683594-9.714844 2.765625-15 2.765625-11.566406 0-22.019531-4.507812-30-11.707031zm0 0"/><path d="m391 225.503906v60h85.8125l-19.996094-60zm0 0"/><path d="m106 255.503906c8.277344 0 15-6.726562 15-15v-15h-30v15c0 8.273438 6.722656 15 15 15zm0 0"/><path d="m331 435.503906c0-22.113281 12.152344-41.25 30-51.65625v-68.34375h-30zm0 0"/><path d="m503.210938 315.503906h-112.210938v60c33.136719 0 60 26.859375 60 60h46c8.285156 0 15-6.71875 15-15v-90c0-3.984375-1.582031-7.792968-4.394531-10.605468zm0 0"/><path d="m497 135.503906h-482c-8.285156 0-15 6.710938-15 15v270c0 8.289063 6.710938 15 15 15h16c0-33.09375 26.910156-60 60-60 18.007812 0 33.996094 8.132813 45 20.726563 11.003906-12.59375 26.992188-20.726563 45-20.726563 33.089844 0 60 26.90625 60 60h60c0-6.28125 0-232.671875 0-225 0-8.289062 6.714844-15 15-15h181c8.285156 0 15-6.71875 15-15v-30c0-8.289062-6.714844-15-15-15zm-226 195c0 8.289063-6.710938 15-15 15h-179.996094c-8.289062 0-15.003906-6.542968-15.003906-14.828125 0-42.699219 0-123.257812 0-120.171875 0-8.292968 6.710938-15 15-15h180c8.289062 0 15 6.707032 15 15 0 5.613282 0 127.792969 0 120zm0 0"/><path d="m331 225.503906h30v60h-30zm0 0"/><path d="m382.710938 28.921875c7.410156-3.707031 10.414062-12.714844 6.707031-20.128906-3.691407-7.425781-12.714844-10.398438-20.128907-6.707031-24.960937 12.976562-21.140624 9.742187-25.320312 13.554687-7.847656-6.265625-17.574219-9.804687-27.996094-9.804687-9.800781 0-19.117187 3.105468-26.96875 8.976562-26.527344 19.878906-59.5625 30.820312-93.03125 30.820312-33.472656 0-66.503906-10.941406-92.988281-30.835937-7.808594-5.84375-17.109375-8.949219-26.882813-8.949219-10.4375 0-20.1875 3.542969-28.054687 9.804688-4.148437-3.792969-.277344-.539063-25.335937-13.570313-7.429688-3.6875-16.4375-.714843-20.128907 6.710938-3.703125 7.410156-.703125 16.421875 6.710938 20.125l22.101562 11.046875c.289063.144531.609375.089844.902344.210937-1.335937 5.496094-1.675781 11.242188-.84375 17.015625 1.699219 11.910156 7.925781 22.425782 17.550781 29.632813 9.378906 7.03125 19.425782 13.097656 29.730469 18.675781h234.523437c10.308594-5.582031 20.359376-11.652344 29.738282-18.6875 9.625-7.195312 15.851562-17.710938 17.550781-29.621094.832031-5.769531.5-11.515625-.835937-17.011718.292968-.125.605468-.070313.894531-.214844zm0 0"/></svg>