<svg height="512pt" viewBox="-61 0 512 512.00075" width="512pt" xmlns="http://www.w3.org/2000/svg"><path d="m4.890625 153.910156c-3.808594 3.488282-5.582031 8.6875-4.644531 13.769532l24.058594 133.320312h341.386718l24.054688-133.320312c.941406-5.082032-.832032-10.28125-4.640625-13.769532-3.808594-3.484375-9.171875-4.757812-14.152344-3.351562l-94.40625 26.425781c-4.910156 1.375-8.789063 5.140625-10.285156 10.019531-9.796875 31.699219-38.421875 52.996094-71.265625 52.996094-32.839844 0-61.464844-21.296875-71.261719-52.996094-1.496094-4.878906-5.378906-8.644531-10.285156-10.019531l-94.40625-26.429687c-4.996094-1.402344-10.3125-.128907-14.152344 3.355468zm0 0"/><path d="m360.234375 331h-330.472656l10.910156 60h308.65625zm0 0"/><path d="m46.125 421 14.121094 78.679688c.792968 4.441406 3.546875 8.265624 7.484375 10.445312 3.941406 2.167969 8.671875 2.460938 12.832031.804688 93.046875-37.207032 135.820312-37.207032 228.867188 0 4.070312 1.636718 8.804687 1.417968 12.832031-.804688 3.941406-2.183594 6.695312-6.003906 7.484375-10.445312l14.125-78.679688zm0 0"/><path d="m374.996094 15.019531c0-11.148437-11.734375-18.402343-21.707032-13.417969l-30 15c-5.082031 2.542969-8.292968 7.738282-8.292968 13.417969v105.050781l47.871094-13.398437c3.90625-1.113281 8.003906-1.667969 12.128906-1.667969zm0 0"/><path d="m224.996094 197.550781v-167.53125c0-5.679687-3.207032-10.875-8.289063-13.417969l-30-15c-9.972656-4.984374-21.710937 2.269532-21.710937 13.417969v182.542969c8.042968 7.582031 18.421875 12.4375 30 12.4375s21.957031-4.855469 30-12.449219zm0 0"/><path d="m284.996094 143.464844v-62.738282l-30-15v89.035157c4.085937-2.84375 8.488281-5.269531 13.449218-6.664063zm0 0"/><path d="m134.996094 154.769531v-89.042969l-30 15v62.742188l16.539062 4.628906c4.972656 1.390625 9.375 3.824219 13.460938 6.671875zm0 0"/><path d="m74.996094 135.074219v-120.054688c0-11.148437-11.734375-18.402343-21.707032-13.417969l-30 15c-5.082031 2.542969-8.292968 7.738282-8.292968 13.417969v89.984375c4.113281 0 8.210937.554688 12.175781 1.679688zm0 0"/></svg>