<svg height="512pt" viewBox="-30 0 511 512" width="512pt" xmlns="http://www.w3.org/2000/svg"><path d="m444.765625 76.519531-81-54c-4.605469-3.070312-10.523437-3.355469-15.398437-.746093-4.878907 2.613281-7.921876 7.695312-7.921876 13.226562v69.035156c-7.507812-3.847656-16-6.035156-25-6.035156-30.328124 0-55 24.675781-55 55 0 30.328125 24.671876 55 55 55 30.324219 0 55-24.671875 55-55v-89.972656l57.679688 38.453125c6.890625 4.59375 16.207031 2.734375 20.800781-4.160157 4.59375-6.890624 2.730469-16.207031-4.160156-20.800781zm0 0"/><path d="m249.058594 328.28125c8.59375-15.855469 13.085937-33.371094 13.085937-51.28125 0-47.722656-32.363281-90.382812-80-107.300781v-69.699219h15c8.285157 0 15-6.714844 15-15s-6.714843-15-15-15h-15v-20h15c8.285157 0 15-6.714844 15-15s-6.714843-15-15-15h-15v-5c0-8.285156-6.714843-15-15-15h-60c-8.285156 0-15 6.714844-15 15v5h-15c-8.285156 0-15 6.714844-15 15s6.714844 15 15 15h15v20h-15c-8.285156 0-15 6.714844-15 15s6.714844 15 15 15h15v69.699219c-47.636719 16.917969-80 59.578125-80 107.300781 0 17.910156 4.496094 35.425781 13.085938 51.28125-.058594.070312-.113281.140625-.171875.210938-27.113282 34.023437-32.171875 79.613281-13.207032 118.980468 19.175782 39.800782 58.464844 64.527344 102.527344 64.527344h45.53125c44.066406 0 83.351563-24.726562 102.527344-64.527344 18.964844-39.367187 13.90625-84.957031-13.207031-118.980468-.058594-.070313-.113281-.140626-.171875-.210938zm-71.914063 84.71875h-80c-8.285156 0-15-6.714844-15-15s6.714844-15 15-15h80c8.285157 0 15 6.714844 15 15s-6.714843 15-15 15zm-40-81c-30.328125 0-55-24.671875-55-55s24.671875-55 55-55 55 24.671875 55 55-24.671875 55-55 55zm0 0"/><path d="m137.144531 252c-13.785156 0-25 11.214844-25 25s11.214844 25 25 25c13.785157 0 25-11.214844 25-25s-11.214843-25-25-25zm0 0"/></svg>