<svg height="512pt" viewBox="0 0 512 512" width="512pt" xmlns="http://www.w3.org/2000/svg"><path d="m208 165c-19.300781 0-35 15.699219-35 35s15.699219 35 35 35 35-15.699219 35-35-15.699219-35-35-35zm0 0"/><path d="m261.023438 335.382812c-2.089844-.457031-4.175782-.917968-6.261719-1.378906-31.988281-7.070312-62.367188-13.785156-91.761719-4.328125v19.5c33.695312-8.070312 66.414062-.855469 98.238281 6.175781 31.988281 7.070313 62.367188 13.78125 91.761719 4.328126v-19.484376c-31.472656 7.539063-62.089844 1.726563-91.925781-4.804687-.015625 0-.035157-.003906-.050781-.007813zm0 0"/><path d="m254.761719 384.644531c-31.988281-7.066406-62.371094-13.78125-91.761719-4.324219v19.484376c10.5625-2.53125 21.027344-3.558594 31.402344-3.558594 22.71875 0 44.984375 4.921875 66.835937 9.75 31.988281 7.070312 62.367188 13.785156 91.761719 4.328125v-19.496094c-10.5625 2.53125-21.03125 3.566406-31.402344 3.566406-22.71875.003907-44.984375-4.917969-66.835937-9.75zm0 0"/><path d="m256 0c-141.386719 0-256 114.613281-256 256s114.613281 256 256 256 256-114.613281 256-256-114.613281-256-256-256zm177 250c0 27.175781-22.109375 49.285156-49.285156 49.285156-18.28125 0-34.773438-10.25-43.25-25.714844-1.105469-.007812-2.199219-.066406-3.289063-.148437-8.023437 14.996094-18.871093 28.378906-31.777343 39.378906 19.320312 2.039063 38.113281.980469 56.539062-7.164062 4.636719-2.050781 10-1.617188 14.25 1.152343 4.25 2.765626 6.8125 7.496094 6.8125 12.566407v50.367187.089844 50.832031c0 5.9375-3.503906 11.320313-8.9375 13.71875-17.75 7.847657-35.238281 10.675781-52.464844 10.675781-22.71875 0-44.984375-4.921874-66.835937-9.75-35.242188-7.785156-68.53125-15.144531-100.699219-.925781-4.640625 2.050781-10 1.617188-14.25-1.152343-4.25-2.765626-6.8125-7.496094-6.8125-12.566407v-50.367187c0-.03125 0-.0625 0-.089844v-50.832031c0-1.382813.199219-2.734375.558594-4.027344-31.628906-25.390625-50.558594-64.019531-50.558594-105.328125 0-74.4375 60.5625-135 135-135 32.179688 0 63.347656 11.511719 87.757812 32.417969 20.945313 17.9375 35.859376 41.824219 42.804688 68.21875.070312.011719.144531.019531.214844.03125 8.25-15.816407 24.714844-26.382813 43.507812-26.382813 27.175782 0 49.285156 22.109375 49.285156 49.285156 0 12.28125-4.476562 23.746094-12.40625 32.605469 2.511719 5.957031 3.835938 12.351563 3.835938 18.824219zm0 0"/><path d="m286.246094 130.207031c-18.980469-16.253906-43.21875-25.207031-68.246094-25.207031-57.898438 0-105 47.101562-105 105 0 36.113281 18.617188 69.597656 48.949219 88.78125 34.066406-8.472656 67.132812-1.175781 99.285156 5.929688.488281.105468.972656.214843 1.457031.320312 19.460938-9.1875 35.824219-24.375 46.511719-43-10.769531-9.046875-17.632813-22.609375-17.632813-37.746094 0-19.210937 11.054688-35.878906 27.132813-44.003906-5.707031-19.332031-16.949219-36.792969-32.457031-50.074219zm-78.246094 134.792969c-35.839844 0-65-29.160156-65-65s29.160156-65 65-65 65 29.160156 65 65-29.160156 65-65 65zm0 0"/><path d="m392.285156 179.285156c-9.789062 0-17.957031 7.417969-19.003906 17.253906-.542969 5.089844-3.640625 9.550782-8.21875 11.835938s-10.007812 2.078125-14.398438-.550781c-3.132812-1.875-6.433593-2.824219-9.808593-2.824219-10.632813 0-19.285157 8.652344-19.285157 19.285156 0 10.636719 8.652344 19.285156 19.285157 19.285156 1.464843 0 3.128906-.277343 5.234375-.875 1.34375-.382812 2.726562-.574218 4.101562-.574218 2.703125 0 5.382813.734375 7.746094 2.15625 3.558594 2.148437 6.070312 5.675781 6.929688 9.742187 1.871093 8.847657 9.796874 15.265625 18.847656 15.265625 10.632812 0 19.285156-8.648437 19.285156-19.285156 0-5.65625-2.550781-9.847656-4.6875-12.363281-2.855469-3.363281-4.082031-7.816407-3.359375-12.167969s3.324219-8.164062 7.113281-10.421875c5.953125-3.550781 9.503906-9.707031 9.503906-16.476563 0-10.632812-8.648437-19.285156-19.285156-19.285156zm0 0"/></svg>