<svg height="512pt" viewBox="-36 0 512 512" width="512pt" xmlns="http://www.w3.org/2000/svg"><path d="m395 200h-35v-25c0-8.285156-6.714844-15-15-15h-195v67h25c16.542969 0 30 13.457031 30 30v120c0 16.542969-13.457031 30-30 30h-80c-16.542969 0-30-13.457031-30-30v-120c0-16.542969 13.457031-30 30-30h25v-67h-105c-8.285156 0-15 6.714844-15 15v37.226562c0 30.535157 2.546875 61.289063 7.566406 91.40625l32.636719 195.832032c1.207031 7.234375 7.464844 12.535156 14.796875 12.535156h250c7.332031 0 13.589844-5.300781 14.796875-12.535156l11.578125-69.464844h63.625c24.8125 0 45-20.1875 45-45v-140c0-24.8125-20.1875-45-45-45zm15 185c0 8.269531-6.730469 15-15 15h-58.625l16.0625-96.367188c4.042969-24.28125 6.480469-48.976562 7.273438-73.632812h35.289062c8.269531 0 15 6.730469 15 15zm0 0"/><path d="m65 90h75c13.785156 0 25 11.214844 25 25 0 8.285156 6.714844 15 15 15s15-6.714844 15-15c0-30.328125-24.671875-55-55-55h-75c-8.269531 0-15-6.730469-15-15s6.730469-15 15-15h185c8.285156 0 15-6.714844 15-15s-6.714844-15-15-15h-185c-24.8125 0-45 20.1875-45 45s20.1875 45 45 45zm0 0"/><path d="m95 377h80 .019531l-.019531-120h-80zm0 0"/></svg>