<svg height="511.99948pt" viewBox="0 0 511.99948 511.99948" width="511.99948pt" xmlns="http://www.w3.org/2000/svg"><path d="m57.429688 263.652344 206.222656-206.222656c8.667968-8.667969 18.445312-15.375 28.609375-21.1875-39.316407-14.9375-85.476563-6.796876-117.089844 24.8125l-114.117187 114.117187c-31.609376 31.609375-39.75 77.773437-24.8125 117.089844 5.8125-10.164063 12.519531-19.941407 21.1875-28.609375zm0 0"/><path d="m475.757812 219.738281c-5.8125 10.164063-12.519531 19.941407-21.1875 28.609375l-206.222656 206.222656c-8.667968 8.667969-18.445312 15.375-28.609375 21.1875 39.3125 14.9375 85.476563 6.796876 117.085938-24.8125l114.121093-114.121093c31.609376-31.609375 39.75-77.773438 24.8125-117.085938zm0 0"/><path d="m68.035156 507.601562c3.410156 3.410157 8.246094 4.972657 13.011719 4.207032 4.753906-.777344 8.867187-3.792969 11.007813-8.113282l9.8125-19.621093c-16.175782-6.578125-31.332032-16.402344-44.4375-29.503907-13.101563-13.105468-22.925782-28.261718-29.503907-44.4375l-19.625 9.808594c-4.316406 2.144532-7.332031 6.257813-8.109375 11.011719-.765625 4.765625.796875 9.601563 4.207032 13.007813zm0 0"/><path d="m484.074219 101.867188 19.621093-9.8125c4.320313-2.140626 7.335938-6.253907 8.113282-11.007813.765625-4.765625-.796875-9.601563-4.207032-13.011719l-63.640624-63.636718c-3.40625-3.410157-8.242188-4.972657-13.007813-4.207032-4.753906.777344-8.867187 3.792969-11.011719 8.109375l-9.808594 19.625c16.175782 6.578125 31.332032 16.402344 44.4375 29.503907 13.101563 13.105468 22.925782 28.261718 29.503907 44.4375zm0 0"/><path d="m78.640625 284.863281c-40.933594 40.9375-40.933594 107.558594 0 148.492188 40.9375 40.933593 107.558594 40.933593 148.492187 0l206.222657-206.222657c40.933593-40.933593 40.933593-107.554687 0-148.492187-40.933594-40.933594-107.554688-40.933594-148.492188 0zm276.746094-180.039062c24.503906-3.375 47.207031 13.816406 50.6875 38.203125 5.203125 25.933594-3.074219 53.371094-22.277344 72.574218-16.324219 16.324219-38.554687 24.757813-61.207031 23.648438 1.109375 22.675781-7.320313 44.882812-23.648438 61.207031-16.320312 16.324219-38.550781 24.753907-61.203125 23.648438 1.109375 22.671875-7.320312 44.878906-23.648437 61.203125-19.210938 19.214844-46.589844 27.492187-73.21875 22.15625-24.363282-4.859375-40.191406-28.617188-35.28125-52.972656 4.136718-20.675782 21.660156-34.734376 40.96875-36.054688-1.328125-22.871094 7.113281-45.398438 23.613281-61.898438 16.328125-16.324218 38.542969-24.765624 61.195313-23.65625-1.105469-22.632812 7.324218-44.863281 23.65625-61.199218 16.398437-16.394532 38.761718-24.835938 61.527343-23.636719.632813-21.554687 16.78125-40.1875 38.835938-43.222656zm0 0"/><path d="m237.5 263.789062c-16.78125-3.355468-34.015625 1.863282-46.113281 13.960938-12.097657 12.101562-17.320313 29.335938-13.953125 46.125 1.390625 7.042969-.714844 13.953125-5.769532 19.007812-5.054687 5.054688-11.964843 7.160157-18.953124 5.777344-8.285157-1.671875-16.089844 3.675782-17.703126 11.738282-1.585937 7.796874 3.839844 16.085937 11.734376 17.636718 16.800781 3.378906 34.039062-1.84375 46.132812-13.941406 12.097656-12.097656 17.320312-29.332031 13.964844-46.113281-1.410156-7 .683594-13.941407 5.757812-19.015625 5.054688-5.054688 11.976563-7.167969 18.988282-5.769532 16.808593 3.363282 34.046874-1.855468 46.144531-13.953124 12.097656-12.097657 17.316406-29.332032 13.960937-46.113282-1.410156-7 .683594-13.941406 5.761719-19.015625 5.054687-5.058593 11.972656-7.171875 18.984375-5.769531 16.8125 3.363281 34.046875-1.855469 46.144531-13.953125 12.097657-12.097656 17.308594-29.410156 13.929688-46.3125-1.289063-8.894531-8.828125-14.691406-17.035157-13.535156-8.183593 1.117187-13.933593 8.707031-12.804687 16.902343 1.855469 9.765626-.25 16.675782-5.304687 21.730469-5.0625 5.066407-11.992188 7.167969-19.015626 5.757813-16.78125-3.355469-34.015624 1.867187-46.113281 13.964844-12.097656 12.097656-17.320312 29.332031-13.953125 46.121093 1.390625 7.046875-.714844 13.953125-5.769531 19.007813-5.0625 5.066406-11.992187 7.167968-19.015625 5.761718zm0 0"/></svg>