<?xml version="1.0" encoding="iso-8859-1"?>
<!-- Generator: Adobe Illustrator 19.0.0, SVG Export Plug-In . SVG Version: 6.00 Build 0)  -->
<svg version="1.1" id="Capa_1" xmlns="http://www.w3.org/2000/svg" xmlns:xlink="http://www.w3.org/1999/xlink" x="0px" y="0px"
	 viewBox="0 0 511.999 511.999" style="enable-background:new 0 0 511.999 511.999;" xml:space="preserve">
<g>
	<g>
		<path d="M489.141,91.048c30.497-20.31,30.456-67.733,0-88.016c-7.063-4.71-16.555-2.808-21.25,4.256
			c-4.695,7.05-2.794,16.456,4.256,21.151c12.261,8.184,12.312,26.181,0,34.4c-30.464,20.289-30.457,67.833-0.001,88.116
			c6.984,4.669,16.529,2.827,21.251-4.256c4.695-7.035,2.794-16.556-4.256-21.251C476.86,117.23,476.86,99.267,489.141,91.048z"/>
	</g>
</g>
<g>
	<g>
		<path d="M414.258,91.048c30.497-20.31,30.456-67.733,0-88.016c-7.064-4.71-16.541-2.809-21.251,4.256
			c-4.695,7.05-2.794,16.456,4.256,21.151c12.261,8.184,12.312,26.181,0,34.4c-30.463,20.289-30.456,67.833,0,88.116
			c6.984,4.669,16.529,2.827,21.251-4.256c4.695-7.035,2.794-16.556-4.256-21.251C401.977,117.23,401.977,99.267,414.258,91.048z"/>
	</g>
</g>
<g>
	<g>
		<path d="M39.839,91.048c14.319-9.536,22.875-28.209,22.875-45.409S54.158,12.568,39.839,3.033
			c-7.063-4.711-16.555-2.809-21.25,4.255c-4.695,7.05-2.794,16.456,4.256,21.151c5.85,3.905,9.2,10.165,9.2,17.2
			s-3.35,13.294-9.201,17.199c-30.463,20.289-30.456,67.833,0,88.116c6.984,4.669,16.529,2.827,21.251-4.256
			c4.695-7.035,2.794-16.556-4.256-21.251C27.558,117.23,27.558,99.267,39.839,91.048z"/>
	</g>
</g>
<g>
	<g>
		<path d="M114.723,91.048c30.497-20.31,30.456-67.733,0-88.016c-7.063-4.71-16.555-2.808-21.25,4.256
			c-4.695,7.05-2.794,16.456,4.256,21.151c12.261,8.184,12.312,26.181,0,34.4c-30.464,20.289-30.457,67.833-0.001,88.116
			c6.984,4.669,16.529,2.827,21.251-4.256c4.695-7.035,2.794-16.556-4.256-21.251C102.442,117.23,102.442,99.267,114.723,91.048z"/>
	</g>
</g>
<g>
	<g>
		<path d="M329.839,41.632c-1.404-6.991-7.547-12.137-14.684-12.137H195.341c-7.137,0-13.28,5.146-14.684,12.137l-21.555,110.478
			h192.291L329.839,41.632z"/>
	</g>
</g>
<g>
	<g>
		<path d="M494.875,182.064c-204.023,0-269.129,0-479.256,0c-8.278,0-14.977,6.699-14.977,14.977
			c0,73.711,53.473,133.464,121.178,165.505c38.857,18.388,84.469,29.193,133.427,29.193c48.958,0,94.572-10.805,133.429-29.193
			c67.336-31.871,121.176-91.612,121.176-165.505C509.852,188.763,503.154,182.064,494.875,182.064z"/>
	</g>
</g>
<g>
	<g>
		<path d="M407.721,457.803l-13.028-65.147c-41.256,18.402-88.774,29.036-139.445,29.036c-50.672,0-98.192-10.631-139.448-29.036
			l-13.026,65.147c-5.579,27.772,15.726,53.75,44.053,53.75h216.841C391.995,511.552,413.3,485.575,407.721,457.803z"/>
	</g>
</g>
<g>
</g>
<g>
</g>
<g>
</g>
<g>
</g>
<g>
</g>
<g>
</g>
<g>
</g>
<g>
</g>
<g>
</g>
<g>
</g>
<g>
</g>
<g>
</g>
<g>
</g>
<g>
</g>
<g>
</g>
</svg>
