<svg height="512pt" viewBox="-91 0 512 512" width="512pt" xmlns="http://www.w3.org/2000/svg"><path d="m266.398438 30h48.601562c8.402344 0 15-6.597656 15-15s-6.597656-15-15-15h-60c-6.597656 0-12.597656 4.5-14.398438 10.800781l-17.703124 62.398438c9.300781 4.199219 18.300781 9.902343 26.402343 16.5zm0 0"/><path d="m120 195v8.320312c0 5.332032-2.84375 10.269532-7.457031 12.964844-9.488281 5.519532-16.101563 13.972656-19.621094 23.714844h144.320313c-6.203126-17.433594-22.703126-30-42.242188-30-24.8125 0-45-20.1875-45-45v-12.4375c-17.460938 6.199219-30 22.882812-30 42.4375zm0 0"/><path d="m15 240h46.800781c3.597657-17.699219 13.5-33.601562 28.199219-44.699219v-.300781c0-41.398438 33.601562-75 75-75 8.402344 0 15 6.597656 15 15v30c0 7.5 5.097656 13.5 12.300781 14.699219l30.597657-106.5c-17.699219-8.398438-37.199219-13.199219-57.898438-13.199219-70.199219 0-128.101562 53.699219-134.398438 122.402344-16.800781 5.699218-29.101562 21-30.300781 39.597656-.300781.898438-.300781 1.800781-.300781 3 0 8.402344 6.597656 15 15 15zm0 0"/><path d="m268.5 240h46.5c8.402344 0 15-6.597656 15-15 0-1.199219 0-2.101562-.300781-3-1.199219-18.597656-13.5-33.898438-30.300781-39.597656-3.296876-37.5-22.199219-70.503906-50.097657-92.703125l-27.296875 95.402343c23.695313 8.996094 41.398438 29.699219 46.496094 54.898438zm0 0"/><path d="m298.238281 270h-266.476562l9.375 76h63.863281c14.0625-18.691406 36.328125-30 60-30s45.9375 11.308594 60 30h63.863281zm0 0"/><path d="m285.113281 376h-68.140625c-5.363281 0-10.296875-2.855469-12.980468-7.484375-8.039063-13.886719-22.980469-22.515625-38.992188-22.515625s-30.953125 8.628906-38.992188 22.515625c-2.683593 4.628906-7.617187 7.484375-12.980468 7.484375h-68.144532l3.75 30h64.394532c5.359375 0 10.296875 2.855469 12.980468 7.484375 8.039063 13.886719 22.980469 22.515625 38.992188 22.515625s30.953125-8.628906 38.992188-22.515625c2.683593-4.628906 7.617187-7.484375 12.980468-7.484375h64.394532zm0 0"/><path d="m165 466c-23.671875 0-45.9375-11.308594-60-30h-52.613281l7.730469 62.859375c.9375 7.5 7.324218 13.140625 14.882812 13.140625h180c7.558594 0 13.945312-5.640625 14.882812-13.140625l7.734376-62.859375h-52.617188c-14.0625 18.691406-36.328125 30-60 30zm0 0"/></svg>