<svg height="511pt" viewBox="0 -9 511.99943 511" width="511pt" xmlns="http://www.w3.org/2000/svg"><path d="m146.976562 177.148438c-3.632812-3.632813-6.804687-7.550782-9.53125-11.679688l-11.679687 11.679688c-17.546875 17.546874-17.546875 46.09375 0 63.640624l127.277344 127.277344c17.546875 17.546875 46.09375 17.546875 63.640625 0l14.515625-14.515625c-9.046875-4.289062-17.648438-9.828125-25.125-17.304687zm0 0"/><path d="m507.601562 92.296875c4.289063-4.289063 5.582032-10.742187 3.253907-16.347656-2.300781-5.632813-7.789063-9.257813-13.859375-9.257813-23.015625 0-45.546875-9.332031-61.816406-25.605468l-23.035157-23.035157c-23.398437-23.402343-61.457031-23.402343-84.855469 0-7.945312 7.941407-12.96875 17.625-15.519531 27.804688-17.628906-13.253907-42.679687-12.03125-58.726562 4.011719-17.574219 17.574218-17.574219 46.066406 0 63.640624l-21.210938-21.214843c-17.574219-17.570313-46.066406-17.570313-63.640625 0-17.574218 17.574219-17.574218 46.066406 0 63.640625l159.097656 159.097656c23.429688 23.433594 61.421876 23.433594 84.855469 0 18.574219-18.574219 22.175781-46.203125 11.300781-68.574219 11.394532-2.171875 22.316407-7.472656 31.125-16.277343 20.859376-20.863282 23.355469-54.433594 4.429688-79.714844l-15.515625-15.703125c15.703125-2.132813 30.859375-9.207031 42.902344-21.253907zm0 0"/><path d="m7.644531 413.5c-12.648437 21.058594-9.347656 47.894531 8.023438 65.265625 17.371093 17.371094 44.207031 20.675781 65.269531 8.027344l153.867188-94.539063-133.226563-133.226562zm0 0"/></svg>