<svg height="512pt" viewBox="0 0 512 512" width="512pt" xmlns="http://www.w3.org/2000/svg"><path d="m497 301h-338.96875c14.269531-15.9375 22.96875-36.972656 22.96875-60 0-49.628906-40.371094-90-90-90-33.089844 0-60 26.910156-60 60s26.910156 60 60 60c8.289062 0 15-6.710938 15-15s-6.710938-15-15-15c-16.539062 0-30-13.460938-30-30s13.460938-30 30-30c33.089844 0 60 26.910156 60 60s-26.910156 60-60 60h-76c-8.289062 0-15 6.710938-15 15s6.710938 15 15 15h15v60h126.351562c14.191407-20.46875 56.828126-30 99.648438-30s85.453125 9.53125 99.648438 30h126.351562v-60h15c8.289062 0 15-6.710938 15-15s-6.710938-15-15-15zm0 0"/><path d="m256 451c-42.820312 0-85.453125-9.53125-99.648438-30h-124.835937c7.355469 50.75 51.730469 91 104.484375 91h240c52.753906 0 97.128906-40.25 104.484375-91h-124.835937c-14.195313 20.46875-56.828126 30-99.648438 30zm0 0"/><path d="m329.636719 406c-7.042969-5.550781-32.183594-15-73.636719-15s-66.59375 9.449219-73.636719 15c7.042969 5.550781 32.183594 15 73.636719 15s66.59375-9.449219 73.636719-15zm0 0"/><path d="m512 15c0-8.289062-6.710938-15-15-15h-195.054688c7.734376 9.625 13.972657 20.355469 17.585938 32.460938 8.214844 27.511718 3.808594 56.980468-12.117188 80.859374-14.851562 22.28125-14.851562 52.078126 0 74.359376 16.695313 25.042968 20.328126 55.707031 11.207032 83.320312h60c9.121094-27.613281 5.488281-58.28125-11.207032-83.320312-14.851562-22.28125-14.851562-52.078126 0-74.359376 4.898438-7.347656 8.53125-15.21875 11.207032-23.320312h118.378906c8.289062 0 15-6.710938 15-15s-6.710938-15-15-15h-113.390625c0-10.140625-1.765625-20.242188-4.988281-30h118.378906c8.289062 0 15-6.710938 15-15zm0 0"/><path d="m181 75c0 8.289062 6.710938 14.988281 15 14.988281h29.601562c-1.132812 2.203125-1.746093 4.582031-3.148437 6.683594-21.589844 32.386719-21.589844 75.261719 0 107.648437 13.457031 20.183594 14.070313 45.488282 3.148437 66.679688h60c10.921876-21.191406 10.308594-46.496094-3.148437-66.679688-21.589844-32.386718-21.589844-75.253906 0-107.640624 10.957031-16.4375 13.992187-36.707032 8.335937-55.621094-5.285156-17.710938-17.894531-31.894532-35.300781-41.058594h-59.488281c-8.289062 0-15 6.710938-15 15s6.710938 15 15 15h29.601562c4.894532 9.492188 7.996094 19.636719 7.996094 30h-37.597656c-8.289062 0-15 6.710938-15 15zm0 0"/></svg>