<svg height="512pt" viewBox="-31 0 512 512" width="512pt" xmlns="http://www.w3.org/2000/svg"><path d="m135 0c-8.289062 0-15 6.710938-15 15v47.761719c-17.421875 6.214843-30 23.707031-30 43.238281 0 24.8125 20.1875 45 45 45s45-20.1875 45-45c0-19.53125-12.578125-37.023438-30-43.238281v-47.761719c0-8.289062-6.710938-15-15-15zm0 0"/><path d="m300 346c0 8.289062 6.710938 15 15 15h15v106c0 24.8125 20.1875 45 45 45s45-20.1875 45-45v-106h15c8.289062 0 15-6.710938 15-15s-6.710938-15-15-15c-5.957031 0-123.164062 0-120 0-8.289062 0-15 6.710938-15 15zm0 0"/><path d="m385.605469 4.394531c-5.859375-5.859375-15.351563-5.859375-21.210938 0-21.855469 21.855469-34.394531 53.121094-34.394531 84.027344v212.578125h90v-212.578125c0-30.90625-12.539062-62.171875-34.394531-84.027344zm0 0"/><path d="m0 436c0 8.289062 6.710938 14.988281 15 14.988281 4.953125 0 110.648438 0 105 0v46.011719c0 8.289062 6.710938 15 15 15s15-6.710938 15-15v-46.011719c9.46875 0 109.433594 0 105 0 8.289062 0 15-6.699219 15-14.988281s-6.710938-15-15-15h-47.761719c1.679688-4.714844 2.761719-9.714844 2.761719-15 0-5.84375-1.128906-11.441406-3.164062-16.582031 19.085937-5.199219 33.164062-22.703125 33.164062-43.417969 0-5.84375-1.128906-11.441406-3.164062-16.582031 19.085937-5.199219 33.164062-22.703125 33.164062-43.417969 0-11.566406-4.507812-22.019531-11.703125-30 7.195313-7.980469 11.703125-18.433594 11.703125-30s-4.507812-22.019531-11.703125-30c7.195313-7.980469 11.703125-18.433594 11.703125-30 0-24.8125-20.1875-45-45-45h-16.519531c-6.96875 34.191406-37.265625 60-73.480469 60s-66.511719-25.808594-73.480469-60h-16.519531c-24.8125 0-45 20.1875-45 45 0 11.566406 4.507812 22.019531 11.703125 30-7.195313 7.980469-11.703125 18.433594-11.703125 30s4.507812 22.019531 11.703125 30c-7.195313 7.980469-11.703125 18.433594-11.703125 30 0 20.742188 14.179688 38.078125 33.304688 43.265625-2.089844 5.183594-3.304688 10.8125-3.304688 16.734375 0 20.714844 14.078125 38.21875 33.164062 43.417969-2.035156 5.140625-3.164062 10.738281-3.164062 16.582031 0 5.285156 1.082031 10.285156 2.761719 15h-47.761719c-8.289062 0-15 6.710938-15 15zm0 0"/></svg>