<svg height="512pt" viewBox="0 0 512 512" width="512pt" xmlns="http://www.w3.org/2000/svg"><path d="m15 90h111c8.285156 0 15-6.714844 15-15v-60c0-8.285156-6.714844-15-15-15h-111c-8.285156 0-15 6.714844-15 15v60c0 8.285156 6.714844 15 15 15zm0 0"/><path d="m497 0h-111c-8.285156 0-15 6.714844-15 15v60c0 8.285156 6.714844 15 15 15h111c8.285156 0 15-6.714844 15-15v-60c0-8.285156-6.714844-15-15-15zm0 0"/><path d="m121 512h270v-210h-270zm60-135c0-8.285156 6.714844-15 15-15h120c8.285156 0 15 6.714844 15 15v60c0 8.285156-6.714844 15-15 15h-120c-8.285156 0-15-6.714844-15-15zm0 0"/><path d="m211 392h90v30h-90zm0 0"/><path d="m131 215c0 8.285156 6.714844 15 15 15h220c8.285156 0 15-6.714844 15-15v-45h-250zm0 0"/><path d="m373.210938 140-32.210938-40.261719v-84.738281c0-8.285156-6.714844-15-15-15h-140c-8.285156 0-15 6.714844-15 15v84.738281l-32.210938 40.261719zm0 0"/><path d="m497 302h-76v60h91v-45c0-8.285156-6.714844-15-15-15zm0 0"/><path d="m421 512h76c8.285156 0 15-6.714844 15-15v-105h-91zm0 0"/><path d="m0 317v45h91v-60h-76c-8.285156 0-15 6.714844-15 15zm0 0"/><path d="m0 497c0 8.285156 6.714844 15 15 15h76v-120h-91zm0 0"/></svg>