<?xml version="1.0" encoding="iso-8859-1"?>
<!-- Generator: Adobe Illustrator 19.0.0, SVG Export Plug-In . SVG Version: 6.00 Build 0)  -->
<svg version="1.1" id="Capa_1" xmlns="http://www.w3.org/2000/svg" xmlns:xlink="http://www.w3.org/1999/xlink" x="0px" y="0px"
	 viewBox="0 0 512 512" style="enable-background:new 0 0 512 512;" xml:space="preserve">
<g>
	<g>
		<g>
			<path d="M351.688,132.917l-53.021-13.25v-13c5.896,0,10.667-4.771,10.667-10.667V10.667C309.333,4.771,304.563,0,298.667,0
				h-85.333c-5.896,0-10.667,4.771-10.667,10.667V96c0,5.896,4.771,10.667,10.667,10.667v13l-53.021,13.25
				C141.292,137.688,128,154.708,128,174.313v295.021C128,492.854,147.146,512,170.667,512h170.667
				C364.854,512,384,492.854,384,469.333V174.313C384,154.708,370.708,137.688,351.688,132.917z M341.333,458.667
				c0,5.896-4.771,10.667-10.667,10.667H181.333c-5.896,0-10.667-4.771-10.667-10.667v-256c0-3.563,1.792-6.896,4.75-8.875
				c1.417-0.938,35.208-23.125,80.583-23.125s79.167,22.188,80.583,23.125c2.958,1.979,4.75,5.313,4.75,8.875V458.667z"/>
			<path d="M309.333,320H202.667c-5.896,0-10.667,4.771-10.667,10.667c0,5.896,4.771,10.667,10.667,10.667h106.667
				c5.896,0,10.667-4.771,10.667-10.667C320,324.771,315.229,320,309.333,320z"/>
			<path d="M309.333,384H202.667c-5.896,0-10.667,4.771-10.667,10.667s4.771,10.667,10.667,10.667h106.667
				c5.896,0,10.667-4.771,10.667-10.667S315.229,384,309.333,384z"/>
			<circle cx="256" cy="256" r="42.667"/>
		</g>
	</g>
</g>
<g>
</g>
<g>
</g>
<g>
</g>
<g>
</g>
<g>
</g>
<g>
</g>
<g>
</g>
<g>
</g>
<g>
</g>
<g>
</g>
<g>
</g>
<g>
</g>
<g>
</g>
<g>
</g>
<g>
</g>
</svg>
