<svg height="512pt" viewBox="-41 0 512 512" width="512pt" xmlns="http://www.w3.org/2000/svg"><path d="m215 184c-27.90625 0-51.425781 19.148438-58.101562 45h116.203124c-6.675781-25.851562-30.195312-45-58.101562-45zm0 0"/><path d="m215 90c-68.925781 0-125 56.074219-125 125s56.074219 125 125 125 125-56.074219 125-125-56.074219-125-125-125zm90 139c8.285156 0 15 6.714844 15 15s-6.714844 15-15 15h-180c-8.285156 0-15-6.714844-15-15s6.714844-15 15-15h1.257812c6.339844-37.632812 36.109376-67.402344 73.742188-73.742188v-11.257812h-5c-8.285156 0-15-6.714844-15-15s6.714844-15 15-15h40c8.285156 0 15 6.714844 15 15s-6.714844 15-15 15h-5v11.257812c37.632812 6.339844 67.402344 36.113282 73.742188 73.742188zm0 0"/><path d="m367.027344 62.972656c-40.605469-40.609375-94.597656-62.972656-152.027344-62.972656s-111.421875 22.363281-152.027344 62.972656c-40.609375 40.605469-62.972656 94.597656-62.972656 152.027344 0 42.5625 11.121094 84.707031 33.054688 125.261719 17.316406 32.011719 41.371093 63.078125 71.496093 92.332031 50.9375 49.46875 101.285157 76.519531 103.402344 77.648438 2.203125 1.171874 4.625 1.757812 7.046875 1.757812s4.84375-.585938 7.046875-1.757812c2.117187-1.128907 52.464844-28.179688 103.402344-77.648438 30.125-29.253906 54.179687-60.320312 71.496093-92.332031 21.933594-40.554688 33.054688-82.699219 33.054688-125.261719 0-57.429688-22.363281-111.421875-62.972656-152.027344zm-152.027344 307.027344c-85.46875 0-155-69.53125-155-155s69.53125-155 155-155 155 69.53125 155 155-69.53125 155-155 155zm0 0"/></svg>