<svg height="511pt" viewBox="0 1 511 511.9995" width="511pt" xmlns="http://www.w3.org/2000/svg"><path d="m160.398438 203.589844c-14.136719-14.136719-25.53125-33.003906-31.394532-55.949219-10.351562 42.5-6.269531 87.703125 12.242188 127.972656 32.910156 30.960938 68.003906 38.546875 96.816406 31.328125 40.132812-10.035156 66.832031-45.785156 67.789062-85.289062-38.273437 22.609375-86.546874 22.820312-125.554687-2.0625-6.953125-4.421875-13.664063-9.765625-19.898437-16zm0 0"/><path d="m379.035156 301.96875c2.570313-34.890625-14.605468-66.445312-43.089844-83.625.523438 54.242188-35.734374 103.976562-90.601562 117.695312-19.179688 4.796876-40.488281 4.785157-62.269531-1.535156 33.015625 31.75 74.472656 49.683594 117.058593 53.597656 46.808594-13.90625 75.835938-44.671874 78.902344-86.132812zm0 0"/><path d="m453.503906 53.90625c-33.070312-31.953125-74.667968-49.980469-117.398437-53.90625-46.804688 13.902344-75.835938 44.671875-78.902344 86.128906-2.558594 34.890625 14.609375 66.421875 43.105469 83.617188-.632813-48.109375 27.296875-92.71875 73.703125-112.09375 22.898437-9.554688 50.714843-11.96875 79.492187-3.746094zm0 0"/><path d="m477.367188 306.257812c11.4375-48.464843-1.890626-89.816406-37.65625-112.53125-28.410157-18.054687-63.328126-18.402343-91.582032-2.949218 40.019532 22.351562 64.332032 65.539062 60.808594 113.398437-1.925781 26.179688-13.351562 54.351563-36.851562 77.148438 30.742187-8.804688 59.746093-25.21875 83.917968-49.386719 8.03125-8.035156 15.027344-16.695312 21.363282-25.679688zm0 0"/><path d="m494.851562 112.179688c-38.578124-36.183594-79.53125-39.261719-109.28125-26.847657-29.65625 12.394531-54.78125 42.914063-55.363281 81.222657 38.246094-22.675782 86.546875-22.960938 125.589844 1.847656 22.820313 14.542968 42.890625 39.285156 51.304687 72.597656 3.882813-15.753906 5.480469-31.882812 5.394532-48-.144532-27.632812-5.824219-55.230469-17.644532-80.820312zm0 0"/><path d="m227.300781 83.921875c1.925781-26.179687 13.351563-54.347656 36.851563-77.148437-30.746094 8.804687-59.75 25.21875-83.917969 49.390624-8.039063 8.035157-15.039063 16.703126-21.378906 25.695313-11.421875 48.460937 1.929687 89.800781 37.566406 112.449219 28.34375 18.0625 63.179687 18.492187 91.433594 3.160156-9.65625-5.410156-18.464844-11.9375-26.09375-19.566406-23.96875-23.96875-37.144531-57.714844-34.460938-93.980469zm0 0"/><path d="m159.019531 353.148438c-10.894531-10.894532-20.425781-22.644532-28.613281-35.027344l-56.714844 56.878906h111.164063c-8.984375-6.613281-17.710938-13.726562-25.835938-21.851562zm0 0"/><path d="m170.871094 405h-127.09375l-30.121094 30.199219c-.53125.53125-.695312 1.25-1.195312 1.800781h126.496093zm0 0"/><path d="m77.296875 498.839844 31.746094-31.839844h-108.542969c-.003906 11.53125 4.378906 23.0625 13.15625 31.839844 17.546875 17.546875 46.09375 17.546875 63.640625 0zm0 0"/></svg>