<svg height="511pt" viewBox="1 -72 511.99953 511" width="511pt" xmlns="http://www.w3.org/2000/svg"><path d="m458.324219 53.863281c-34.496094-34.414062-80.425781-53.363281-129.324219-53.363281-51.699219 0-101.230469 22.027344-135.890625 60.4375-13.507813 14.964844-32.5 23.550781-52.109375 23.550781-77.75 0-141 63.253907-141 141 0 77.746094 63.25 141 141 141h186c.136719 0 .273438-.003906.410156-.007812l.046875.003906c.511719.007813 1.023438.015625 1.542969.015625 48.960938 0 94.972656-19.089844 129.554688-53.753906 34.578124-34.660156 53.558593-80.71875 53.445312-129.6875-.117188-48.902344-19.179688-94.78125-53.675781-129.195313zm-6.324219 129.632813c0 67.761718-55.128906 122.941406-122.886719 123.003906-.007812 0-.011719 0-.019531 0-.074219 0-.152344 0-.226562-.003906l-1.398438-.019532-186.46875.011719c-44.664062 0-81-36.335937-81-81 0-44.664062 36.335938-81 81-81 36.5625 0 71.789062-15.804687 96.652344-43.355469 23.304687-25.820312 56.597656-40.632812 91.347656-40.632812 32.902344 0 63.78125 12.730469 86.949219 35.839844 23.171875 23.113281 35.972656 53.960937 36.050781 86.859375zm0 0"/><path d="m329 90.5c-26.273438 0-51.449219 11.199219-69.074219 30.730469-30.542969 33.847656-73.890625 53.257812-118.925781 53.257812-28.121094 0-51 22.878907-51 51 0 28.121094 22.878906 51 51 51l188.203125.011719c51.179687-.109375 92.796875-41.804688 92.796875-93.003906v-.261719c-.058594-24.863281-9.730469-48.195313-27.238281-65.65625-17.503907-17.460937-40.859375-27.078125-65.761719-27.078125zm-187 149.988281c-8.285156 0-15-6.714843-15-15 0-8.285156 6.714844-15 15-15s15 6.714844 15 15c0 8.285157-6.714844 15-15 15zm187-11.988281c-24.8125 0-45-20.1875-45-45s20.1875-45 45-45 45 20.1875 45 45-20.1875 45-45 45zm0 0"/><path d="m329 168.5c-8.273438 0-15 6.726562-15 15 0 8.269531 6.726562 15 15 15 8.269531 0 15-6.730469 15-15 0-8.273438-6.730469-15-15-15zm0 0"/></svg>