<svg height="511pt" viewBox="0 0 511 511.99915" width="511pt" xmlns="http://www.w3.org/2000/svg"><path d="m166.109375 408.84375c2.53125-1.878906 49.914063-55.824219 163.671875-81.78125 21.808594-4.992188 41.722656-16 57.566406-31.84375 46.777344-46.777344 46.777344-122.894531 0-169.675781-44-44-110.292968-45.238281-154.820312-12.695313-31.9375 23.363282-43.464844 53.261719-47.515625 74.234375-12.113281 62.613281-31.503907 107.113281-78.882813 154.492188-18.269531 18.265625-21.25 46.289062-6.804687 63.800781 18.234375 22.054688 49.011719 21.246094 66.785156 3.46875zm136.402344-262.089844c17.546875-17.542968 46.085937-17.542968 63.628906 0 17.542969 17.542969 17.542969 46.082032 0 63.628906-17.542969 17.542969-46.082031 17.542969-63.628906 0-17.542969-17.546874-17.542969-46.085937 0-63.628906zm0 0"/><path d="m38.96875 472.605469c53.449219 53.453125 139 51.632812 190.769531-.132813 2.496094-1.859375 32.640625-37.734375 120.058594-57.683594 38.351563-8.75 73.332031-28.097656 101.179687-55.941406 81.179688-81.183594 82.332032-213.191406.824219-295.988281-74.773437-75.953125-190.425781-82.550781-272.378906-22.644531-43.320313 31.65625-72.707031 77.761718-82.753906 129.789062-8.6875 44.894532-19.527344 73.300782-54.167969 107.941406-52.472656 52.472657-58.15625 140.035157-3.53125 194.660157zm45.949219-152.242188c43.132812-43.132812 59.667969-82.269531 70.644531-138.976562 5.066406-26.234375 19.449219-63.628907 59.257812-92.75 55.375-40.472657 138.605469-39.433594 193.738282 15.699219 58.46875 58.472656 58.46875 153.621093 0 212.089843-19.84375 19.84375-44.78125 33.636719-72.109375 39.882813-101.640625 23.179687-133.847657 62.414062-149.132813 73.746094-29.304687 29.304687-76.738281 29.304687-106.054687-.011719-30.707031-30.707031-26.167969-79.855469 3.65625-109.679688zm0 0"/><path d="m344.933594 167.980469c-5.859375-5.855469-15.351563-5.855469-21.210938 0-5.855468 5.855469-5.855468 15.351562 0 21.207031 5.859375 5.859375 15.351563 5.859375 21.210938 0 5.855468-5.855469 5.855468-15.351562 0-21.207031zm0 0"/></svg>