<svg height="512pt" viewBox="0 0 512 512" width="512pt" xmlns="http://www.w3.org/2000/svg"><path d="m0 15v482c0 8.285156 6.714844 15 15 15h226v-512h-226c-8.285156 0-15 6.714844-15 15zm60.5 80c0-8.285156 6.714844-15 15-15s15 6.714844 15 15v141c0 8.269531 6.730469 15 15 15h15v-156c0-8.285156 6.714844-15 15-15s15 6.714844 15 15v156h15c8.269531 0 15-6.730469 15-15v-141c0-8.285156 6.714844-15 15-15s15 6.714844 15 15v141c0 24.8125-20.1875 45-45 45h-15v136c0 8.285156-6.714844 15-15 15s-15-6.714844-15-15v-136h-15c-24.8125 0-45-20.1875-45-45zm0 0"/><path d="m341.5 170h70v52h-70zm0 0"/><path d="m497 0h-226v512h226c8.285156 0 15-6.714844 15-15v-482c0-8.285156-6.714844-15-15-15zm-70.5 432h-100c-8.285156 0-15-6.714844-15-15s6.714844-15 15-15h100c8.285156 0 15 6.714844 15 15s-6.714844 15-15 15zm0-60h-100c-8.285156 0-15-6.714844-15-15s6.714844-15 15-15h100c8.285156 0 15 6.714844 15 15s-6.714844 15-15 15zm0-60h-100c-8.285156 0-15-6.714844-15-15s6.714844-15 15-15h100c8.285156 0 15 6.714844 15 15s-6.714844 15-15 15zm15-75c0 8.285156-6.714844 15-15 15h-100c-8.285156 0-15-6.714844-15-15v-82c0-8.285156 6.714844-15 15-15h100c8.285156 0 15 6.714844 15 15zm-15-127h-100c-8.285156 0-15-6.714844-15-15s6.714844-15 15-15h100c8.285156 0 15 6.714844 15 15s-6.714844 15-15 15zm0 0"/></svg>