<svg height="512pt" viewBox="-91 0 512 512" width="512pt" xmlns="http://www.w3.org/2000/svg"><path d="m60 150c0 16.570312 13.429688 30 30 30h210c16.570312 0 30-13.429688 30-30s-13.429688-30-30-30h-210c-16.570312 0-30 13.429688-30 30zm0 0"/><path d="m313.734375 210h-237.179687c-7.917969 15.960938-13.03125 35.3125-14.832032 56.816406-2.796875 33.417969 2.570313 68.503906 15.117188 98.796875 10.398437 25.097657 25.582031 46.105469 43.910156 60.753907 12.792969 10.226562 26.945312 17.398437 42.292969 21.507812l-38.515625 38.519531c-4.292969 4.289063-5.574219 10.742188-3.253906 16.34375 2.324218 5.605469 7.792968 9.261719 13.859374 9.261719h120c6.066407 0 11.535157-3.65625 13.859376-9.261719 2.320312-5.601562 1.035156-12.054687-3.253907-16.34375l-38.589843-38.589843c37.828124-10.25 68.417968-38.984376 86.347656-82.277344 12.542968-30.277344 17.90625-65.332032 15.105468-98.707032-1.804687-21.496093-6.929687-40.851562-14.867187-56.820312zm0 0"/><path d="m25.605469 55.605469c9.78125-9.78125 24.953125-10.167969 35.695312-2.054688-.484375 2.140625-1.300781 4.160157-1.300781 6.449219 0 16.566406 13.429688 30 30 30s30-13.433594 30-30c0-16.570312-13.429688-30-30-30-2.78125 0-5.285156.871094-7.839844 1.582031-22.53125-19.273437-56.453125-18.5-77.765625 2.8125-5.859375 5.859375-5.859375 15.351563 0 21.210938s15.351563 5.859375 21.210938 0zm0 0"/><path d="m298.988281 62.503906c-5.8125-35.625-38.992187-62.503906-77.195312-62.503906h-56.792969c-8.289062 0-15 6.710938-15 15s6.710938 15 15 15h30c8.277344 0 15 6.722656 15 15s-6.722656 15-15 15h-30c-5.171875 0-10.199219 1.054688-15.210938 2.097656-.359374 10.171875-3.304687 19.621094-8.132812 27.902344h156.421875c1.832031-8.945312 2.421875-18.199219.910156-27.496094zm0 0"/></svg>