<svg height="512pt" viewBox="-46 0 512 512" width="512pt" xmlns="http://www.w3.org/2000/svg"><path d="m150 60c0 33.089844 26.910156 60 60 60s60-26.910156 60-60-26.910156-60-60-60-60 26.910156-60 60zm0 0"/><path d="m30 392c-8.289062 0-15 6.710938-15 15 0 57.890625 47.109375 105 105 105h180c57.890625 0 105-47.109375 105-105 0-8.289062-6.710938-15-15-15h-15.4375l-34.746094 65.960938c-7.78125 14.824218-23.042968 24.039062-39.816406 24.039062h-180c-16.773438 0-32.035156-9.214844-39.828125-24.066406l-34.730469-65.933594zm0 0"/><path d="m367.894531 158.511719c-2.800781-1.300781-5.695312-2.207031-8.570312-3.203125-13.738281-29.300782-36.007813-53.785156-63.191407-70.648438-10.804687 37.59375-45.113281 65.339844-86.132812 65.339844s-75.328125-27.746094-86.132812-65.339844c-27.179688 16.863282-49.449219 41.339844-63.183594 70.636719-2.878906 1-5.773438 1.910156-8.578125 3.214844-31.65625 14.71875-52.105469 47.714843-52.105469 82.488281 0 49.628906 40.371094 90 90 90 22.515625 0 43.621094-8.277344 60-23.160156 32.753906 29.765625 87.246094 29.765625 120 0 16.378906 14.882812 37.484375 23.160156 60 23.160156 49.628906 0 90-40.371094 90-90 0-34.773438-20.449219-67.769531-52.105469-82.488281zm-277.894531 112.488281c-8.285156 0-15-6.714844-15-15s6.714844-15 15-15 15 6.714844 15 15-6.714844 15-15 15zm120 0c-8.285156 0-15-6.714844-15-15s6.714844-15 15-15 15 6.714844 15 15-6.714844 15-15 15zm120 0c-8.285156 0-15-6.714844-15-15s6.714844-15 15-15 15 6.714844 15 15-6.714844 15-15 15zm0 0"/><path d="m254.28125 351.960938c-13.824219 5.316406-28.789062 8.203124-44.28125 8.203124s-30.457031-2.886718-44.28125-8.203124l17.089844 100.039062h54.382812zm0 0"/><path d="m120 452h32.367188l-17.074219-99.964844c-14.234375 5.84375-29.574219 8.964844-45.292969 8.964844-9.847656 0-19.28125-1.53125-28.449219-3.777344l45.179688 86.765625c2.589843 4.9375 7.703125 8.011719 13.269531 8.011719zm0 0"/><path d="m313.269531 443.988281 45.179688-86.769531c-9.167969 2.25-18.601563 3.78125-28.449219 3.78125-15.71875 0-31.058594-3.121094-45.292969-8.964844l-17.074219 99.964844h32.367188c5.566406 0 10.679688-3.074219 13.269531-8.011719zm0 0"/></svg>