<svg height="512pt" viewBox="-91 0 512 512" width="512pt" xmlns="http://www.w3.org/2000/svg"><path d="m93.546875 271h32.179687l29.019532-58.035156c2.589844-5.175782 6.292968-9.386719 10.410156-13.09375l-16.738281-33.488282c-5.1875-10.402343-21.648438-10.402343-26.835938 0l-41.453125 82.90625c-3.386718 6.753907-.675781 12.453126.65625 14.59375 1.320313 2.136719 5.199219 7.117188 12.761719 7.117188zm0 0"/><path d="m140.785156 323.882812c1.320313 2.136719 5.199219 7.117188 12.761719 7.117188h82.90625c7.5625 0 11.441406-4.980469 12.761719-7.117188 1.332031-2.140624 4.042968-7.839843.65625-14.59375l-41.453125-82.90625c-2.59375-5.203124-7.617188-8.292968-13.417969-8.292968s-10.824219 3.089844-13.417969 8.292968l-41.453125 82.90625c-3.386718 6.753907-.675781 12.453126.65625 14.59375zm0 0"/><path d="m0 497c0 8.289062 6.710938 15 15 15h300c8.289062 0 15-6.710938 15-15 0-24.621094-12.085938-47.316406-30.464844-61 18.378906-13.683594 30.464844-35.378906 30.464844-60v-240c0-24.621094-12.085938-46.316406-30.464844-60 18.378906-13.683594 30.464844-36.378906 30.464844-61 0-8.289062-6.710938-15-15-15h-300c-8.289062 0-15 6.710938-15 15 0 24.621094 12.085938 47.316406 30.464844 61-18.378906 13.683594-30.464844 35.378906-30.464844 60v240c0 24.621094 12.085938 46.316406 30.464844 60-18.378906 13.683594-30.464844 36.378906-30.464844 61zm195-46h-60c-8.289062 0-15-6.710938-15-15s6.710938-15 15-15h60c8.289062 0 15 6.710938 15 15s-6.710938 15-15 15zm-60-390h60c8.289062 0 15 6.710938 15 15s-6.710938 15-15 15h-60c-8.289062 0-15-6.710938-15-15s6.710938-15 15-15zm-81.710938 174.871094 41.457032-82.90625c7.675781-15.355469 23.101562-24.875 40.253906-24.875s32.578125 9.519531 40.253906 24.875l17.699219 35.410156c.699219-.03125 1.34375-.285156 2.046875-.285156 17.152344 0 32.578125 9.519531 40.253906 24.875l41.457032 82.90625c7.027343 14.050781 6.28125 30.425781-1.964844 43.785156-8.261719 13.359375-22.574219 21.34375-38.292969 21.34375h-82.90625c-15.71875 0-30.03125-7.984375-38.292969-21.34375-7.277344-11.785156-8.351562-25.84375-3.761718-38.65625h-17.945313c-15.71875 0-30.03125-7.984375-38.292969-21.34375-8.246094-13.359375-8.992187-29.734375-1.964844-43.785156zm0 0"/></svg>