<svg height="512pt" viewBox="0 -6 512 512" width="512pt" xmlns="http://www.w3.org/2000/svg"><path d="m124.492188 485c0 8.285156 6.71875 15 15 15h233.015624c8.285157 0 15-6.714844 15-15v-30h-263.015624zm0 0"/><path d="m497 180h-265v-60.796875l263.824219 20.75c.398437.03125.796875.046875 1.191406.046875 7.75 0 14.320313-5.964844 14.9375-13.824219.648437-8.261719-5.519531-15.480469-13.777344-16.128906l-266.175781-20.9375v-44.109375h265c8.285156 0 15-6.714844 15-15s-6.714844-15-15-15h-265c0-8.285156-6.714844-15-15-15s-15 6.714844-15 15h-30c0-8.285156-6.714844-15-15-15s-15 6.714844-15 15h-30c0-8.285156-6.714844-15-15-15s-15 6.714844-15 15h-30c-8.285156 0-15 6.714844-15 15s6.714844 15 15 15h30v32.3125l-28.824219-2.265625c-8.230469-.65625-15.480469 5.519531-16.128906 13.777344-.652344 8.257812 5.519531 15.480469 13.777344 16.128906l31.175781 2.453125v72.59375h-67c-8.285156 0-15 6.714844-15 15v19c0 84.75 41.980469 163.503906 111.023438 211h289.953124c69.042969-47.496094 111.023438-126.25 111.023438-211v-19c0-8.285156-6.714844-15-15-15zm-295 0h-30v-65.515625l30 2.359375zm0-135v41.753906l-30-2.363281v-39.390625zm-90 0h30v37.03125l-30-2.359375zm0 64.765625 30 2.359375v67.875h-30zm0 0"/></svg>