<svg height="512pt" viewBox="0 0 512 512" width="512pt" xmlns="http://www.w3.org/2000/svg"><path d="m0 15c0 8.289062 6.710938 15 15 15h16v30h-16c-8.289062 0-15 6.710938-15 15s6.710938 15 15 15h16v150h30v-210h30v151.300781c8.59375-11.675781 18.558594-22.164062 30-30.84375v-120.457031h30v103.179688c9.585938-4.25 19.5625-7.632813 30-9.785157v-33.394531h255c8.289062 0 15-6.710938 15-15s-6.710938-15-15-15h-255v-30h255c8.289062 0 15-6.710938 15-15s-6.710938-15-15-15h-421c-8.289062 0-15 6.710938-15 15zm0 0"/><path d="m497 270h-482c-8.289062 0-15 6.710938-15 15v45h512v-45c0-8.289062-6.710938-15-15-15zm0 0"/><path d="m136 512h240c8.289062 0 15-6.710938 15-15v-15.835938c62.433594-6.929687 112.582031-58.757812 119.585938-121.164062h-509.171876c7.003907 62.40625 57.152344 114.234375 119.585938 121.164062v15.835938c0 8.289062 6.710938 15 15 15zm0 0"/><path d="m295.472656 240h31.265625c-13.417969-51.609375-59.992187-90-115.738281-90s-102.320312 38.390625-115.738281 90h31.265625c12.425781-34.84375 45.414062-60 84.472656-60s72.046875 25.15625 84.472656 60zm0 0"/><path d="m159.34375 240h103.3125c-10.40625-17.847656-29.542969-30-51.65625-30s-41.25 12.152344-51.65625 30zm0 0"/><path d="m348.488281 211.710938c2.828125 6.695312 5.410157 13.542968 7.28125 20.746093l1.964844 7.542969h54.921875c-10.40625-17.847656-29.542969-30-51.65625-30-4.339844 0-8.445312.820312-12.511719 1.710938zm0 0"/><path d="m445.472656 240h31.265625c-13.417969-51.609375-59.992187-90-115.738281-90-17.316406 0-33.550781 4.0625-48.378906 10.714844 7.667968 7.175781 14.746094 14.964844 20.8125 23.671875 8.675781-2.828125 17.929687-4.386719 27.566406-4.386719 39.058594 0 72.046875 25.15625 84.472656 60zm0 0"/></svg>