<svg height="512pt" viewBox="0 -47 512 512" width="512pt" xmlns="http://www.w3.org/2000/svg"><path d="m433.421875 289.90625 31.828125 31.828125 10.621094-10.617187c17.523437-17.550782 17.523437-46.097657-.011719-63.648438l-42.4375-42.421875c-17.550781-17.546875-46.085937-17.546875-63.632813 0l-31.820312 31.820313 31.820312 31.828124c5.859376 5.859376 5.859376 15.367188 0 21.210938-5.859374 5.859375-15.351562 5.859375-21.210937 0l-31.820313-31.828125-10.617187 10.617187c-16.238281 16.238282-16.753906 41.582032-2.910156 59.238282h126.796875l-17.816406-16.816406c-5.859376-5.859376-5.859376-15.351563 0-21.210938 5.859374-5.859375 15.351562-5.859375 21.210937 0zm0 0"/><path d="m150.691406 104c0 17.109375 8.496094 32.988281 22.734375 42.480469 7.015625 4.652343 16.28125 2.632812 20.800781-4.160157 4.601563-6.898437 2.738282-16.199218-4.160156-20.800781-5.960937-3.96875-9.375-10.355469-9.375-17.519531s3.414063-13.550781 9.375-17.519531c14.238282-9.492188 22.734375-25.371094 22.734375-42.480469s-8.496093-31.988281-22.734375-41.480469c-6.941406-4.597656-16.214844-2.722656-20.800781 4.160157-4.601563 6.898437-2.726563 16.21875 4.160156 20.800781 5.960938 3.972656 9.375 9.359375 9.375 16.519531 0 7.164062-3.414062 13.550781-9.375 17.523438-14.238281 9.492187-22.734375 25.371093-22.734375 42.476562zm0 0"/><path d="m225.691406 104c0 17.109375 8.496094 32.988281 22.734375 42.480469 7.015625 4.652343 16.28125 2.632812 20.800781-4.160157 4.601563-6.898437 2.738282-16.199218-4.160156-20.800781-5.960937-3.96875-9.375-10.355469-9.375-17.519531s3.414063-13.550781 9.375-17.519531c14.238282-9.492188 22.734375-25.371094 22.734375-42.480469s-8.496093-31.988281-22.734375-41.480469c-6.941406-4.597656-16.214844-2.722656-20.800781 4.160157-4.601563 6.898437-2.726563 16.21875 4.160156 20.800781 5.960938 3.972656 9.375 9.359375 9.375 16.519531 0 7.164062-3.414062 13.550781-9.375 17.523438-14.238281 9.492187-22.734375 25.371093-22.734375 42.476562zm0 0"/><path d="m300.691406 104c0 17.109375 8.496094 32.988281 22.734375 42.480469 7.015625 4.652343 16.28125 2.632812 20.800781-4.160157 4.601563-6.898437 2.738282-16.199218-4.160156-20.800781-5.960937-3.96875-9.375-10.355469-9.375-17.519531s3.414063-13.550781 9.375-17.519531c14.238282-9.492188 22.734375-25.371094 22.734375-42.480469s-8.496093-31.988281-22.734375-41.480469c-6.957031-4.597656-16.214844-2.722656-20.800781 4.160157-4.601563 6.898437-2.726563 16.21875 4.160156 20.800781 5.960938 3.972656 9.375 9.359375 9.375 16.519531 0 7.164062-3.414062 13.550781-9.375 17.523438-14.238281 9.492187-22.734375 25.371093-22.734375 42.476562zm0 0"/><path d="m497 357.933594h-482c-8.285156 0-15 6.714844-15 15 0 24.851562 20.148438 45 45 45h422c24.851562 0 45-20.148438 45-45 0-8.285156-6.714844-15-15-15zm0 0"/><path d="m284.929688 247.484375 48.839843-48.839844c-17.203125-9.9375-39.277343-8.300781-53.980469 6.402344l-31.816406 31.816406 25.796875 25.800781c3.113281-5.347656 6.5625-10.582031 11.160157-15.179687zm0 0"/><path d="m268.855469 327.933594c-4.132813-10.363282-5.175781-21.398438-4.582031-32.339844l-37.511719-37.515625-10.621094 10.617187c-16.238281 16.238282-16.753906 41.582032-2.910156 59.238282zm0 0"/><path d="m194.929688 247.484375 48.839843-48.839844c-17.203125-9.9375-39.277343-8.300781-53.980469 6.402344l-31.816406 31.816406 25.796875 25.800781c3.113281-5.347656 6.5625-10.582031 11.160157-15.179687zm0 0"/><path d="m178.855469 327.933594c-4.132813-10.363282-5.175781-21.398438-4.582031-32.339844l-37.511719-37.515625-10.621094 10.617187c-16.238281 16.238282-16.753906 41.582032-2.910156 59.238282zm0 0"/><path d="m104.929688 247.484375 48.839843-48.839844c-17.203125-9.9375-39.277343-8.300781-53.980469 6.402344l-31.816406 31.816406 25.792969 25.804688c3.117187-5.351563 6.566406-10.585938 11.164063-15.183594zm0 0"/><path d="m36.140625 268.695312c-16.238281 16.238282-16.753906 41.582032-2.910156 59.238282h55.625c-4.132813-10.363282-5.175781-21.398438-4.582031-32.339844l-37.511719-37.519531zm0 0"/></svg>