<svg height="512pt" viewBox="0 -46 512 512" width="512pt" xmlns="http://www.w3.org/2000/svg"><path d="m489.785156 240h-467.570312l233.785156 147.304688zm0 0"/><path d="m263.953125 417.714844c-2.429687 1.523437-5.199219 2.285156-7.953125 2.285156h181c6.136719 0 11.644531-3.734375 13.929688-9.433594l61.070312-149.171875zm0 0"/><path d="m0 261.394531 61.070312 149.171875c2.285157 5.699219 8.792969 9.433594 14.929688 9.433594h180c-2.753906 0-5.523438-.761719-7.953125-2.285156zm0 0"/><path d="m331 90c0-8.277344-6.722656-15-15-15s-15 6.722656-15 15 6.722656 15 15 15 15-6.722656 15-15zm0 0"/><path d="m196 90c0-8.277344-6.722656-15-15-15s-15 6.722656-15 15 6.722656 15 15 15 15-6.722656 15-15zm0 0"/><path d="m391 90c5.085938 0 9.929688.882812 14.847656 1.5.007813-.511719.152344-.984375.152344-1.5 0-49.707031-40.292969-90-90-90-27.035156 0-51.003906 12.167969-67.5 31.039062-16.496094-18.871093-40.464844-31.039062-67.5-31.039062-49.707031 0-90 40.292969-90 90 0 1.414062.351562 2.730469.417969 4.132812 9.515625-2.4375 19.316406-4.132812 29.582031-4.132812 5.078125 0 10.113281.34375 15.101562.996094-.007812-.339844-.101562-.652344-.101562-.996094 0-24.8125 20.1875-45 45-45s45 20.1875 45 45c0 1.507812-.300781 2.933594-.445312 4.398438 9.78125-2.582032 19.863281-4.398438 30.445312-4.398438 5.1875 0 10.140625.890625 15.15625 1.53125-.019531-.519531-.15625-1.003906-.15625-1.53125 0-24.8125 20.1875-45 45-45s45 20.1875 45 45c0 1.390625-.285156 2.699219-.410156 4.058594 9.917968-2.699219 20.078125-4.058594 30.410156-4.058594zm0 0"/><path d="m391 120c-16.242188 0-31.265625 4.644531-44.421875 12.171875 9.765625 11.351563 17.363281 24.410156 22.367187 38.84375 6.546876-3.71875 14-6.015625 22.054688-6.015625 24.8125 0 45 20.1875 45 45h45c0-49.707031-40.292969-90-90-90zm0 0"/><path d="m301 210h45c0-49.707031-40.292969-90-90-90s-90 40.292969-90 90h45c0-24.8125 20.1875-45 45-45s45 20.1875 45 45zm0 0"/><path d="m165.421875 132.171875c-13.15625-7.527344-28.179687-12.171875-44.421875-12.171875-49.707031 0-90 40.292969-90 90h45c0-24.8125 20.1875-45 45-45 8.054688 0 15.507812 2.296875 22.054688 6.015625 5.003906-14.433594 12.601562-27.492187 22.367187-38.84375zm0 0"/><path d="m391 195c-8.277344 0-15 6.722656-15 15h30c0-8.277344-6.722656-15-15-15zm0 0"/><path d="m241 210h30c0-8.277344-6.722656-15-15-15s-15 6.722656-15 15zm0 0"/><path d="m106 210h30c0-8.277344-6.722656-15-15-15s-15 6.722656-15 15zm0 0"/></svg>