<svg height="512pt" viewBox="-81 0 512 512" width="512pt" xmlns="http://www.w3.org/2000/svg"><path d="m0 478.386719c0 18.535156 15.699219 33.613281 35 33.613281h280c19.300781 0 35-15.078125 35-33.613281v-117.386719h-350zm175-56.386719c8.285156 0 15 6.714844 15 15s-6.714844 15-15 15-15-6.714844-15-15 6.714844-15 15-15zm0 0"/><path d="m175 179c-30.679688 0-56.464844 21.363281-63.253906 50h126.507812c-6.789062-28.636719-32.574218-50-63.253906-50zm0 0"/><path d="m315 0h-280c-19.300781 0-35 15.699219-35 35v296h350v-296c0-19.300781-15.699219-35-35-35zm-40 259h-200c-8.285156 0-15-6.714844-15-15s6.714844-15 15-15h6.1875c6.433594-40.394531 38.417969-72.378906 78.8125-78.8125v-11.1875h-5c-8.285156 0-15-6.714844-15-15s6.714844-15 15-15h40c8.285156 0 15 6.714844 15 15s-6.714844 15-15 15h-5v11.1875c40.394531 6.433594 72.378906 38.417969 78.8125 78.8125h6.1875c8.285156 0 15 6.714844 15 15s-6.714844 15-15 15zm0 0"/></svg>