<svg height="512pt" viewBox="-52 0 512 512" width="512pt" xmlns="http://www.w3.org/2000/svg"><path d="m210 142c0-57.898438-47.101562-105-105-105s-105 47.101562-105 105 47.101562 105 105 105 105-47.101562 105-105zm-55.292969 56.09375c-7.476562 6.632812-16.28125 11.792969-25.964843 15.03125l-23.742188-41.125-23.742188 41.125c-9.683593-3.238281-18.488281-8.394531-25.964843-15.027344l23.726562-41.097656h-47.511719c-.988281-4.847656-1.507812-9.863281-1.507812-15s.519531-10.152344 1.507812-15h47.511719l-23.726562-41.09375c7.476562-6.632812 16.28125-11.792969 25.964843-15.03125l23.742188 41.125 23.742188-41.125c9.683593 3.238281 18.488281 8.394531 25.964843 15.027344l-23.726562 41.097656h47.511719c.988281 4.847656 1.507812 9.863281 1.507812 15s-.519531 10.152344-1.507812 15h-47.511719zm0 0"/><path d="m392 0h-50c-24.8125 0-45 20.1875-45 45v52h30v-52c0-8.269531 6.730469-15 15-15h50c8.285156 0 15-6.714844 15-15s-6.714844-15-15-15zm0 0"/><path d="m375 127h-135.839844c.550782 4.925781.839844 9.929688.839844 15 0 27.730469-8.410156 53.535156-22.804688 75h163.417969l9.269531-73.113281c.539063-4.273438-.78125-8.574219-3.628906-11.804688s-6.945312-5.082031-11.253906-5.082031zm0 0"/><path d="m106.988281 276.976562 28.132813 221.910157c.949218 7.496093 7.324218 13.113281 14.878906 13.113281h180c7.554688 0 13.933594-5.617188 14.882812-13.113281l31.925782-251.886719h-187.058594c-22.707031 18.363281-51.460938 29.519531-82.761719 29.976562zm0 0"/></svg>