<svg height="512pt" viewBox="0 0 512 512" width="512pt" xmlns="http://www.w3.org/2000/svg"><path d="m347 48h-32.207031c-5.574219-27.355469-29.816407-48-58.792969-48s-53.21875 20.644531-58.792969 48h31.304688c4.640625-10.585938 15.210937-18 27.488281-18s22.847656 7.414062 27.488281 18h-54.976562c-1.609375 3.675781-2.511719 7.734375-2.511719 12 0 16.542969 13.457031 30 30 30 8.285156 0 15 6.714844 15 15s-6.714844 15-15 15c-33.085938 0-60-26.914062-60-60 0-4.109375.417969-8.121094 1.207031-12h-32.414062c-5.574219-27.355469-29.816407-48-58.792969-48s-53.21875 20.644531-58.792969 48h31.304688c4.640625-10.585938 15.210937-18 27.488281-18s22.847656 7.414062 27.488281 18h-54.976562c-1.609375 3.675781-2.511719 7.734375-2.511719 12 0 16.542969 13.457031 30 30 30 8.285156 0 15 6.714844 15 15s-6.714844 15-15 15c-33.085938 0-60-26.914062-60-60 0-4.109375.417969-8.121094 1.207031-12h-32.207031c-8.285156 0-15 6.714844-15 15v434c0 8.285156 6.714844 15 15 15h332c8.285156 0 15-6.714844 15-15v-434c0-8.285156-6.714844-15-15-15zm-272 134h90c8.285156 0 15 6.714844 15 15s-6.714844 15-15 15h-90c-8.285156 0-15-6.714844-15-15s6.714844-15 15-15zm212 210h-212c-8.285156 0-15-6.714844-15-15s6.714844-15 15-15h212c8.285156 0 15 6.714844 15 15s-6.714844 15-15 15zm0-60h-212c-8.285156 0-15-6.714844-15-15s6.714844-15 15-15h212c8.285156 0 15 6.714844 15 15s-6.714844 15-15 15zm0-60h-212c-8.285156 0-15-6.714844-15-15s6.714844-15 15-15h212c8.285156 0 15 6.714844 15 15s-6.714844 15-15 15zm0 0"/><path d="m392 215v141c0 19.300781 15.699219 35 35 35h50c19.300781 0 35-15.699219 35-35v-141zm0 0"/><path d="m505.382812 185-32.28125-52.472656c-4.375-7.109375-12.460937-11.527344-21.101562-11.527344s-16.726562 4.417969-21.101562 11.527344l-32.28125 52.472656zm0 0"/></svg>