<svg height="512pt" viewBox="0 0 512 512" width="512pt" xmlns="http://www.w3.org/2000/svg"><path d="m166 181h180c24.8125 0 45-20.1875 45-45 0-19.835938-12.90625-37.722656-30.761719-43.6875-6.285156-51.941406-50.640625-92.3125-104.238281-92.3125 25.648438 0 45 32.242188 45 75 0 8.289062-6.710938 15-15 15s-15-6.710938-15-15c0-29.03125-11.265625-45-15-45s-15 15.96875-15 45c0 8.289062-6.710938 15-15 15s-15-6.710938-15-15c0-42.757812 19.351562-75 45-75-53.597656 0-97.953125 40.371094-104.238281 92.3125-17.855469 5.964844-30.761719 23.851562-30.761719 43.6875 0 24.8125 20.1875 45 45 45zm0 0"/><path d="m45 512h422c24.851562 0 45-21.148438 45-46 0-8.285156-6.714844-15-15-15h-482c-8.285156 0-15 6.714844-15 15 0 24.851562 20.148438 46 45 46zm0 0"/><path d="m60 421h392c16.570312 0 30-13.429688 30-30s-13.429688-30-30-30h-213.761719c-6.214843 17.421875-22.707031 30-42.238281 30s-36.023438-12.578125-42.238281-30h-93.761719c-16.570312 0-30 13.429688-30 30s13.429688 30 30 30zm0 0"/><path d="m256 271c-8.277344 0-15 6.722656-15 15v45h32.761719c-1.679688-4.714844-2.761719-9.714844-2.761719-15v-30c0-8.277344-6.722656-15-15-15zm0 0"/><path d="m452 271h-91v45c0 5.285156-1.082031 10.285156-2.761719 15h93.761719c16.570312 0 30-13.429688 30-30s-13.429688-30-30-30zm0 0"/><path d="m60 331h91v-60h-91c-16.570312 0-30 13.429688-30 30s13.429688 30 30 30zm0 0"/><path d="m316 331c8.277344 0 15-6.722656 15-15v-90c0-5.152344.71875-10.128906 1.761719-15h-153.5c1.027343 4.859375 1.738281 9.828125 1.738281 15v120c0 8.277344 6.722656 15 15 15s15-6.722656 15-15v-60c0-24.8125 20.1875-45 45-45s45 20.1875 45 45v30c0 8.277344 6.722656 15 15 15zm0 0"/><path d="m361 226v15h91c16.570312 0 30-13.429688 30-30s-13.429688-30-30-30h-46.382812c-9.996094 13.203125-24.160157 22.914062-40.613282 27.257812-2.40625 5.515626-4.003906 11.417969-4.003906 17.742188zm0 0"/><path d="m60 241h91v-15c0-6.253906-1.292969-12.203125-3.605469-17.617188-16.609375-4.28125-30.902343-14.046874-40.976562-27.339843-.144531-.003907-.273438-.042969-.417969-.042969h-46c-16.570312 0-30 13.429688-30 30s13.429688 30 30 30zm0 0"/></svg>