<svg height="512pt" viewBox="0 0 512 512" width="512pt" xmlns="http://www.w3.org/2000/svg"><path d="m234.847656 150c-109.714844 0-202.761718 77.039062-227.855468 179.117188.109374-.046876.191406-.136719.304687-.183594 37.785156-15.515625 98.941406-14.007813 136.761719 6.605468 13.207031 7.148438 30.769531 8.199219 43.269531 1.160157 42.328125-23.964844 97.269531-24.203125 140.027344.117187 12.523437 7.066406 30.265625 5.617188 43.449219-1.480468 19.699218-10.664063 47.519531-16.785157 76.257812-16.785157 14.796875 0 36.636719 1.640625 56.734375 9.445313.398437.15625.699219.472656 1.097656.636718-25.265625-101.832031-118.203125-178.632812-227.742187-178.632812zm-58.242187 116.605469-30 30c-5.859375 5.859375-15.351563 5.859375-21.210938 0s-5.859375-15.351563 0-21.210938l30-30c5.859375-5.859375 15.351563-5.859375 21.210938 0s5.859375 15.351563 0 21.210938zm94.394531 19.394531c0 8.289062-6.710938 15-15 15s-15-6.710938-15-15v-30c0-8.289062 6.710938-15 15-15s15 6.710938 15 15zm65.394531-40.605469c5.859375-5.859375 15.351563-5.859375 21.210938 0l30 30c5.859375 5.859375 5.859375 15.351563 0 21.210938s-15.351563 5.859375-21.210938 0l-30-30c-5.859375-5.859375-5.859375-15.351563 0-21.210938zm0 0"/><path d="m426.027344 441.992188c-45.152344 30.128906-102.316406 30.796874-146.75 6.546874-12.941406-7.070312-30.636719-8.160156-43.171875-1.054687-44.765625 25.367187-104.015625 24.253906-148.640625-5.492187-3.984375-2.59375-17.316406-5.460938-30.101563-2.328126l34.453125 64.484376c2.621094 4.832031 7.691406 7.851562 13.183594 7.851562h302c5.507812 0 10.5625-3.019531 13.183594-7.851562l34.785156-65.222657c-11.605469-2.546875-25.074219.496094-28.941406 3.066407zm0 0"/><path d="m497 60c-8.289062 0-15 6.710938-15 15 0 8.277344-6.722656 15-15 15h-60c-24.8125 0-45 20.1875-45 45 0 8.289062 6.710938 15 15 15s15-6.710938 15-15c0-8.277344 6.722656-15 15-15h60c24.8125 0 45-20.1875 45-45 0-8.289062-6.710938-15-15-15zm0 0"/><path d="m452 15c0-8.289062-6.710938-15-15-15s-15 6.710938-15 15c0 8.277344-6.722656 15-15 15h-60c-24.8125 0-45 20.1875-45 45 0 8.289062 6.710938 15 15 15s15-6.710938 15-15c0-8.277344 6.722656-15 15-15h60c24.8125 0 45-20.1875 45-45zm0 0"/><path d="m492.914062 355.960938c-29.964843-11.664063-79.71875-9.441407-107.886718 5.785156-23.128906 12.453125-51.535156 13.007812-72.496094 1.144531-33.339844-18.957031-77.066406-18.96875-110.453125-.074219-21.105469 11.925782-49.511719 11.441406-72.378906-.9375-29.144531-15.878906-80.925781-17.554687-111.023438-5.1875-11.175781 4.585938-18.675781 16.011719-18.675781 28.417969 0 20.640625 22.28125 35.917969 41.265625 28.113281 21.546875-8.871094 49.914063-4.820312 62.839844 3.808594 34.308593 22.878906 81.4375 24.621094 117.238281 4.335938 21.105469-11.9375 50.65625-11.542969 73.304688.832031 35.226562 19.21875 79.378906 18.421875 114.738281-5.167969 13.085937-8.722656 41.25-12.910156 61.203125-4.730469 17.328125 7.101563 41.410156-4.324219 41.410156-28.039062 0-12.496094-7.675781-23.875-19.085938-28.300781zm0 0"/></svg>