<svg height="512pt" viewBox="0 0 512 512" width="512pt" xmlns="http://www.w3.org/2000/svg"><path d="m30 331h331v30h-331zm0 0"/><path d="m69.34375 241h-24.34375c-8.285156 0-15 6.714844-15 15v45h93.761719c-1.679688-4.714844-2.761719-9.714844-2.761719-15v-15c-22.113281 0-41.25-12.152344-51.65625-30zm0 0"/><path d="m211 271v15c0 5.285156-1.082031 10.285156-2.761719 15h35.523438c-1.679688-4.714844-2.761719-9.714844-2.761719-15v-15zm0 0"/><path d="m482 421v-165c0-8.285156-6.714844-15-15-15h-84.34375c-10.40625 17.847656-29.542969 30-51.65625 30v15c0 5.285156-1.082031 10.285156-2.761719 15h47.761719c8.289062 0 15 6.707031 15 15v105zm0 0"/><path d="m30 391h331v30h-331zm0 0"/><path d="m45 512h422c24.851562 0 45-21.148438 45-46 0-8.285156-6.714844-15-15-15h-482c-8.285156 0-15 6.714844-15 15 0 24.851562 20.148438 46 45 46zm0 0"/><path d="m121 181c-16.570312 0-30 13.429688-30 30 0 16.566406 13.429688 30 30 30h30v45c0 8.273438 6.722656 15 15 15s15-6.726562 15-15v-45h90v45c0 8.273438 6.722656 15 15 15s15-6.726562 15-15v-45h30c16.570312 0 30-13.433594 30-30 0-16.570312-13.429688-30-30-30h-21.167969c-23.84375 19.101562-52.875 30.015625-83.847656 30.015625-30.96875 0-60-10.914063-83.835937-30.015625zm0 0"/><path d="m300.238281 4.394531c-5.859375-5.859375-15.351562-5.859375-21.210937 0l-58.761719 58.085938c2.734375-1.160157 5.664063-1.777344 8.679687-1.1875l101.695313 20.34375c1.066406-27.222657-8.863281-55.71875-30.402344-77.242188zm0 0"/><path d="m151.761719 129.027344c-5.859375 5.859375-5.859375 15.351562 0 21.210937 21.949219 21.964844 51.132812 31.78125 79.839843 30.242188l-20.308593-101.539063c-.640625-3.210937.136719-6.324218 1.5-9.207031zm0 0"/><path d="m300.238281 150.238281c11.617188-11.617187 19.570313-25.054687 24.613281-39.167969l-79.734374-15.953124 15.90625 79.53125c14.285156-5.0625 27.777343-12.972657 39.214843-24.410157zm0 0"/></svg>