<svg height="512pt" viewBox="0 0 512.00034 512" width="512pt" xmlns="http://www.w3.org/2000/svg"><path d="m418.863281 313.425781c-18.234375-50.265625-47.859375-96.816406-85.667969-134.621093-37.808593-37.8125-84.359374-67.433594-134.621093-85.667969l-14.101563-5.117188.203125-.554687-63.363281 139.402344c40.921875 8.460937 71.6875 44.703124 71.6875 88.132812 0 49.707031-40.296875 90-90 90-20.421875 0-39.253906-6.804688-54.355469-18.269531l-47.300781 104.0625c-2.585938 5.691406-1.3710938 12.394531 3.050781 16.8125 2.875 2.875 6.710938 4.394531 10.609375 4.394531 2.097656 0 4.210938-.4375 6.203125-1.34375l403.328125-183.332031-.554687.199219zm-135.507812-53.070312c-9.75 9.75-22.554688 14.621093-35.355469 14.621093-12.804688 0-25.609375-4.871093-35.355469-14.621093-19.496093-19.492188-19.496093-51.214844 0-70.710938 9.75-9.746093 22.554688-14.617187 35.355469-14.617187 12.804688 0 25.609375 4.871094 35.355469 14.617187 19.492187 19.496094 19.492187 51.214844 0 70.710938zm70.25 35.253906c-5.859375 5.855469-15.355469 5.855469-21.214844 0-5.855469-5.859375-5.855469-15.355469 0-21.214844 5.859375-5.859375 15.355469-5.859375 21.214844 0 5.855469 5.855469 5.855469 15.355469 0 21.214844zm0 0"/><path d="m511.097656 272.792969c-22.507812-62.035157-59.070312-119.492188-105.734375-166.15625-46.667969-46.664063-104.125-83.226563-166.15625-105.734375-7.359375-2.667969-15.535156.769531-18.773437 7.894531l-23.550782 51.8125 11.925782 4.324219c54.359375 19.722656 104.707031 51.765625 145.601562 92.65625 40.890625 40.894531 72.929688 91.242187 92.65625 145.601562l4.324219 11.925782 51.8125-23.550782c7.125-3.242187 10.566406-11.414062 7.894531-18.773437zm0 0"/><path d="m248 205.023438c-5.359375 0-10.382812 2.074218-14.144531 5.835937-7.796875 7.796875-7.796875 20.484375 0 28.285156 3.761719 3.761719 8.785156 5.832031 14.140625 5.832031 5.359375 0 10.378906-2.070312 14.140625-5.832031 7.800781-7.800781 7.800781-20.488281.003906-28.285156-3.761719-3.761719-8.785156-5.835937-14.140625-5.835937zm0 0"/><path d="m163 315c0-31.3125-23.992188-57.007812-54.59375-59.746094l-46.863281 103.097656c10.777343 10.308594 25.371093 16.648438 41.457031 16.648438 33.136719 0 60-26.863281 60-60zm0 0"/></svg>