<svg height="512pt" viewBox="-16 0 512 512" width="512pt" xmlns="http://www.w3.org/2000/svg"><path d="m195.003906 135c0-4.246094-1.148437-8.210938-2.8125-11.976562-19.488281 2.355468-38.851562 5.988281-57.058594 10.777343-.015624.410157-.128906.789063-.128906 1.199219 0 16.539062 13.460938 30 30 30 16.535156 0 30-13.460938 30-30zm0 0"/><path d="m434.988281 162.261719c-11.707031 0-22.96875-2.652344-33.472656-7.898438-8.277344-4.132812-17.578125-7.882812-27.320313-11.390625-3.785156 21.007813-22.109374 37.027344-44.191406 37.027344-24.816406 0-45-20.1875-45-45v-12.351562c-15.148437-1.726563-30.320312-2.691407-45.015625-2.691407-5.59375 0-11.292969.234375-16.996093.492188 1.195312 4.753906 2.011718 9.609375 2.011718 14.550781 0 33.09375-26.910156 60-60 60-30.367187 0-55.253906-22.734375-59.195312-52.035156-9.722656 3.503906-19.003906 7.246094-27.261719 11.371094-10.078125 5.039062-21.460937 7.722656-32.914063 7.722656-.722656 0-1.394531-.277344-2.117187-.296875l31.488281 58.449219v154.789062c0 24.8125 20.183594 45 45 45 21.3125 0 39.195313-14.882812 43.839844-34.804688l62.945312 118.910157c2.621094 4.863281 7.691407 7.894531 13.214844 7.894531 5.519532 0 10.589844-3.03125 13.210938-7.894531l45.0625-85.695313c-4.285156.972656-8.699219 1.589844-13.273438 1.589844-33.140625 0-60-26.863281-60-60s26.859375-60 60-60c25.726563 0 47.492188 16.273438 56.019532 39.023438l95.277343-176.945313c-.449219.007813-.859375.183594-1.3125.183594zm-224.984375 122.738281c-24.816406 0-45-20.1875-45-45 0-8.289062 6.707032-15 15-15 8.289063 0 15 6.710938 15 15 0 8.277344 6.722656 15 15 15 8.273438 0 15-6.722656 15-15 0-8.289062 6.707032-15 15-15 8.289063 0 15 6.710938 15 15 0 24.8125-20.1875 45-45 45zm90-45c-8.285156 0-15-6.714844-15-15s6.714844-15 15-15c8.28125 0 15 6.714844 15 15s-6.71875 15-15 15zm0 0"/><path d="m285.003906 330c-16.539062 0-30 13.460938-30 30s13.460938 30 30 30c16.535156 0 30-13.460938 30-30s-13.464844-30-30-30zm0 0"/><path d="m475.257812 107.371094c11.085938-22.175782 2.0625-49.261719-20.128906-60.378906-57.964844-28.988282-140.375-46.992188-215.082031-46.992188-74.75 0-157.191406 18.003906-215.15625 46.992188-22.207031 11.117187-31.246094 38.1875-20.140625 60.394531 10.851562 21.605469 38.640625 30.996093 60.378906 20.113281 45.628906-22.808594 114.257813-37.542969 174.859375-37.542969 24.390625 0 50.042969 2.480469 75.015625 6.820313v38.222656c0 8.285156 6.714844 15 15 15 8.28125 0 15-6.714844 15-15v-31.929688c25.890625 6.3125 50.097656 14.554688 69.871094 24.445313 22.082031 10.988281 49.097656 2.378906 60.382812-20.144531zm0 0"/></svg>