<svg height="512pt" viewBox="-31 0 512 512" width="512pt" xmlns="http://www.w3.org/2000/svg"><path d="m417.085938 181c-2.910157-8.027344-7.789063-15.144531-14.414063-20.332031 6.574219-11.660157 7.953125-26.105469 2.488281-39.285157-5.464844-13.1875-16.652344-23.429687-29.546875-27.019531 1.613281-13.285156-2.636719-27.15625-12.726562-37.25-10.078125-10.078125-23.832031-14.28125-37.25-12.726562-3.589844-12.894531-12.832031-24.082031-26.019531-29.546875-13.167969-5.464844-27.609376-4.058594-39.269532 2.488281-8.261718-10.53125-21.066406-17.328125-35.347656-17.328125s-27.085938 6.796875-35.332031 17.328125c-11.6875-6.574219-26.074219-7.980469-39.285157-2.488281-13.1875 5.464844-22.429687 16.652344-26.019531 29.546875-13.417969-1.582031-27.171875 2.648437-37.25 12.726562-10.09375 10.09375-14.339843 23.964844-12.726562 37.25-12.894531 3.589844-24.082031 13.832031-29.546875 27.019531-5.464844 13.183594-4.085938 27.625 2.488281 39.285157-6.625 5.1875-11.503906 12.304687-14.414063 20.332031zm0 0"/><path d="m145.683594 321.226562c15.9375-10.460937 38.230468-17.4375 64.316406-19.414062v-90.8125h-76.5625zm0 0"/><path d="m150.074219 360.738281.097656.867188c.902344 12.207031 29.773437 29.394531 74.828125 29.394531 45.089844 0 73.976562-17.214844 74.839844-29.421875l.089844-.828125c-.375-12.222656-29.449219-29.75-74.929688-29.75-45.464844 0-74.53125 17.519531-74.925781 29.738281zm0 0"/><path d="m166.765625 512h43.234375v-91.8125c-21.265625-1.613281-40-6.539062-54.878906-13.992188zm0 0"/><path d="m294.878906 406.195312c-14.878906 7.453126-33.613281 12.378907-54.878906 13.992188v91.8125h43.234375zm0 0"/><path d="m0 226c0 8.289062 6.710938 15 15 15h17.964844l57.386718 259.253906c1.523438 6.867188 7.617188 11.746094 14.648438 11.746094h31.574219c-8.132813-73.1875-25.070313-226.664062-33.332031-301h-88.242188c-8.289062 0-15 6.710938-15 15zm0 0"/><path d="m316.566406 211h-76.566406v90.8125c26.085938 1.980469 48.382812 8.953125 64.324219 19.417969zm0 0"/><path d="m435 211h-88.242188c-24.953124 224.582031-33.320312 300.886719-33.332031 301h31.574219c7.03125 0 13.125-4.878906 14.648438-11.746094l57.386718-259.253906h17.964844c8.289062 0 15-6.710938 15-15s-6.710938-15-15-15zm0 0"/></svg>