<svg height="512pt" viewBox="0 0 512 512" width="512pt" xmlns="http://www.w3.org/2000/svg"><path d="m482 120c-16.5 0-30 13.5-30 30 0 47.402344-39.097656 90-91 90-49.800781 0-90-40.199219-90-90s40.199219-90 90-90c33.898438 0 64.601562 18.601562 79.898438 46.5 10.800781-10.5 25.199218-16.5 41.101562-16.5 6.597656 0 12.898438 1.199219 18.898438 3-22.5-54.601562-77.199219-93-139.898438-93-82.800781 0-150 67.199219-150 150s67.199219 150 150 150c80.367188 0 151-64.78125 151-150 0-16.5-13.5-30-30-30zm0 0"/><path d="m0 150c0 85.21875 70.632812 150 151 150 30 0 57.898438-9 81.300781-24.300781-13.800781-14.398438-25.5-30.898438-34.199219-49.5-13.5 8.699219-29.699218 13.800781-47.101562 13.800781-51.902344 0-91-42.597656-91-90 0-16.5-13.5-30-30-30s-30 13.5-30 30zm0 0"/><path d="m11.101562 93c6-1.800781 12.300782-3 18.898438-3 15.902344 0 30.300781 6 41.101562 16.5 15.296876-27.898438 46-46.5 79.898438-46.5 17.402344 0 33.601562 5.097656 47.101562 13.800781 8.699219-18.601562 20.398438-35.101562 34.199219-49.5-23.402343-15.300781-51.300781-24.300781-81.300781-24.300781-62.699219 0-117.398438 38.398438-139.898438 93zm0 0"/><path d="m443.988281 310.050781c-23.773437 80.863281-99.425781 141.949219-187.988281 141.949219s-164.214844-61.085938-187.988281-141.949219c-27.527344-14.160156-50.980469-35.117187-68.011719-60.765625v5.714844c0 140.609375 115.390625 257 256 257s256-116.390625 256-257v-5.714844c-17.03125 25.648438-40.484375 46.605469-68.011719 60.765625zm0 0"/></svg>