<svg height="512pt" viewBox="0 0 512 512" width="512pt" xmlns="http://www.w3.org/2000/svg"><path d="m497 452h-482c-8.285156 0-15 6.714844-15 15 0 24.851562 20.148438 45 45 45h422c24.851562 0 45-20.148438 45-45 0-8.285156-6.714844-15-15-15zm0 0"/><path d="m256 0c-41.351562 0-75 33.648438-75 75v.308594c-15.246094 11.496094-25.191406 28.429687-28.480469 46.980468-13.410156 4.25-24.066406 15.570313-28.800781 28.710938h264.554688c-4.710938-13.058594-15.257813-24.335938-28.550782-28.632812-6.050781-35.328126-36.695312-62.367188-73.722656-62.367188-8.277344 0-15-6.722656-15-15v-30c0-8.289062-6.710938-15-15-15zm0 0"/><path d="m85.769531 215.085938-6.554687 26.222656c16.140625.785156 30.996094 8.914062 40.011718 22.441406 7.941407 11.925781 27.101563 11.925781 35.039063 0 9.492187-14.238281 25.371094-22.734375 42.480469-22.734375s32.988281 8.496094 42.480468 22.734375c7.9375 11.925781 27.101563 11.925781 35.039063 0 9.492187-14.238281 25.371094-22.734375 42.480469-22.734375s32.988281 8.496094 42.480468 22.734375c7.9375 11.925781 27.097657 11.925781 35.039063 0 8.878906-13.304688 23.082031-20.929688 38.597656-22.136719l-6.636719-26.539062c-5.007812-20.054688-22.964843-34.074219-43.648437-34.074219h-253.15625c-20.683594 0-38.640625 14.019531-43.652344 34.085938zm0 0"/><path d="m319.867188 331.453125c7.96875-2.050781 16.171874 3.871094 18.179687 11.914063l19.65625 78.632812h120l-37.289063-150.183594c-.785156-.140625-1.386718-.703125-2.203124-.757812-7.777344-.644532-14.75 2.960937-18.984376 9.332031-9.492187 14.238281-25.371093 22.734375-42.480468 22.734375-17.105469 0-32.984375-8.496094-42.476563-22.734375-7.941406-11.925781-27.101562-11.925781-35.039062 0-9.492188 14.238281-25.371094 22.734375-42.480469 22.734375s-32.988281-8.496094-42.480469-22.734375c-7.941406-11.925781-27.101562-11.925781-35.039062 0-9.492188 14.238281-25.371094 22.734375-42.480469 22.734375s-32.988281-8.496094-42.480469-22.734375c-3.96875-5.949219-10.328125-9.359375-17.476562-9.375-.015625 0-.027344 0-.042969 0-1.898438 0-3.519531.828125-5.28125 1.289063l-37.171875 149.695312h120l19.65625-78.632812c1.992187-8.042969 10.152344-13.992188 18.179687-11.914063 8.042969 2.007813 12.933594 11.152344 10.914063 19.179687l-17.84375 71.367188h141.59375l-17.84375-71.367188c-2.019531-8.027343 2.871094-17.171874 10.914063-19.179687zm0 0"/></svg>