<svg height="512pt" viewBox="-71 0 512 512" width="512pt" xmlns="http://www.w3.org/2000/svg"><path d="m355 0h-340c-8.285156 0-15 6.714844-15 15v482c0 8.285156 6.714844 15 15 15h340c8.285156 0 15-6.714844 15-15v-482c0-8.285156-6.714844-15-15-15zm-194 431h-86c-8.285156 0-15-6.714844-15-15s6.714844-15 15-15h86c8.285156 0 15 6.714844 15 15s-6.714844 15-15 15zm0-60h-86c-8.285156 0-15-6.714844-15-15s6.714844-15 15-15h86c8.285156 0 15 6.714844 15 15s-6.714844 15-15 15zm0-60h-86c-8.285156 0-15-6.714844-15-15s6.714844-15 15-15h86c8.285156 0 15 6.714844 15 15s-6.714844 15-15 15zm0-141h-86c-8.285156 0-15-6.714844-15-15s6.714844-15 15-15h86c8.285156 0 15 6.714844 15 15s-6.714844 15-15 15zm134 261h-40c-8.285156 0-15-6.714844-15-15s6.714844-15 15-15h40c8.285156 0 15 6.714844 15 15s-6.714844 15-15 15zm0-60h-40c-8.285156 0-15-6.714844-15-15s6.714844-15 15-15h40c8.285156 0 15 6.714844 15 15s-6.714844 15-15 15zm0-60h-40c-8.285156 0-15-6.714844-15-15s6.714844-15 15-15h40c8.285156 0 15 6.714844 15 15s-6.714844 15-15 15zm-30-171c24.8125 0 45 20.1875 45 45 0 19.554688-12.539062 36.226562-30 42.421875v7.578125c0 8.285156-6.714844 15-15 15s-15-6.714844-15-15v-5h-15c-8.285156 0-15-6.714844-15-15s6.714844-15 15-15h30c8.269531 0 15-6.730469 15-15s-6.730469-15-15-15c-24.8125 0-45-20.1875-45-45 0-19.554688 12.539062-36.226562 30-42.421875v-7.578125c0-8.285156 6.714844-15 15-15s15 6.714844 15 15v5h15c8.285156 0 15 6.714844 15 15s-6.714844 15-15 15h-30c-8.269531 0-15 6.730469-15 15s6.730469 15 15 15zm0 0"/></svg>