<svg height="512pt" viewBox="0 0 512.0007 512" width="512pt" xmlns="http://www.w3.org/2000/svg"><path d="m488.316406 155.320312c-1.265625-1.488281-2.566406-2.933593-3.90625-4.335937-18.851562 17.96875-44.359375 29.015625-72.394531 29.015625-28.039063 0-53.546875-11.046875-72.398437-29.015625-1.339844 1.402344-2.640626 2.847656-3.902344 4.335937-18.992188 22.394532-27.132813 51.839844-22.339844 80.800782l43.769531 263.339844c1.203125 7.234374 7.464844 12.539062 14.796875 12.539062h80.144532c7.335937 0 13.59375-5.304688 14.796874-12.539062l43.773438-263.347657c4.792969-28.953125-3.351562-58.398437-22.339844-80.792969zm0 0"/><path d="m60.203125 499.464844c1.207031 7.234375 7.464844 12.535156 14.796875 12.535156h80c7.332031 0 13.589844-5.300781 14.796875-12.535156l12.910156-77.464844h-135.414062zm0 0"/><path d="m205.625 198.996094c-2.351562-17.050782-9.460938-32.972656-20.351562-46.046875-18.621094 16.804687-43.273438 27.050781-70.273438 27.050781s-51.652344-10.246094-70.273438-27.050781c-10.890624 13.074219-18 28.996093-20.347656 46.046875l-24.238281 175.957031c-.589844 4.296875.703125 8.636719 3.550781 11.902344 2.851563 3.269531 6.972656 5.144531 11.308594 5.144531h200c4.335938 0 8.457031-1.875 11.308594-5.144531 2.847656-3.265625 4.144531-7.605469 3.550781-11.902344zm0 0"/><path d="m115 150c41.355469 0 75-33.644531 75-75s-33.644531-75-75-75-75 33.644531-75 75 33.644531 75 75 75zm0 0"/><path d="m412 150c41.355469 0 75-33.644531 75-75s-33.644531-75-75-75-75 33.644531-75 75 33.644531 75 75 75zm0 0"/></svg>