<svg height="512pt" viewBox="0 -11 512 512" width="512pt" xmlns="http://www.w3.org/2000/svg"><path d="m124.492188 475c0 8.285156 6.71875 15 15 15h233.015624c8.285157 0 15-6.714844 15-15v-30h-263.015624zm0 0"/><path d="m476.835938 127.5c-12.359376-21.40625-35.109376-34.09375-58.867188-34.46875-.375-23.757812-13.066406-46.511719-34.46875-58.867188-21.40625-12.359374-47.453125-11.96875-68.214844-.417968-12.203125-20.386719-34.570312-33.746094-59.285156-33.746094s-47.082031 13.359375-59.285156 33.746094c-20.761719-11.554688-46.808594-11.941406-68.214844.417968-21.402344 12.355469-34.09375 35.109376-34.46875 58.867188-23.757812.375-46.511719 13.066406-58.867188 34.46875-2.3125 4.007812-4.1875 8.195312-5.632812 12.5h452.9375c-1.445312-4.304688-3.320312-8.492188-5.632812-12.5zm0 0"/><path d="m497 170h-482c-8.285156 0-15 6.714844-15 15v19c0 84.75 41.980469 163.503906 111.023438 211h289.953124c69.042969-47.496094 111.023438-126.25 111.023438-211v-19c0-8.285156-6.714844-15-15-15zm0 0"/></svg>