<svg height="512pt" viewBox="0 0 512 512" width="512pt" xmlns="http://www.w3.org/2000/svg"><path d="m249.789062 383.210938c11.339844 11.339843 31.082032 11.339843 42.421876 0 5.667968-5.667969 8.789062-13.199219 8.789062-21.210938 0-16.570312-13.417969-30-30-30h-15c-41.351562 0-75 33.648438-75 75s33.648438 75 75 75c88.660156 0 135-57.003906 135-120 0-66.167969-53.832031-120-120-120h-30c-66.167969 0-120 53.832031-120 120 0 35.21875 15.527344 66.621094 39.769531 88.59375-6.128906-13.320312-9.769531-28-9.769531-43.59375 0-57.890625 47.109375-105 105-105h15c33.140625 0 60 26.839844 60 60 0 16.023438-6.238281 31.085938-17.578125 42.421875-22.675781 22.675781-62.167969 22.675781-84.84375 0-5.859375-5.859375-5.859375-15.351563 0-21.210937 5.859375-5.859376 15.351563-5.859376 21.210937 0zm0 0"/><path d="m316 120h-120c-107.519531 0-196 89.480469-196 197s88.480469 195 196 195h45c-82.703125 0-150-67.296875-150-150s67.296875-150 150-150h30c82.703125 0 150 67.296875 150 150s-67.296875 150-150 150h45c107.519531 0 196-87.480469 196-195s-88.480469-197-196-197zm0 0"/><path d="m303.851562 47.738281c12.953126 10.84375 22.355469 25.738281 25.699219 42.949219 28.804688 1.726562 56.117188 8.832031 81.015625 20.429688 24.90625-24.503907 40.433594-58.5 40.433594-96.117188 0-8.289062-6.710938-15-15-15h-30c-41.015625 0-77.367188 18.777344-102.148438 47.738281zm0 0"/><path d="m76 0c-8.289062 0-15 6.710938-15 15 0 37.617188 15.527344 71.613281 40.433594 96.117188 24.898437-11.597657 52.210937-18.703126 81.015625-20.429688 3.34375-17.210938 12.746093-32.105469 25.699219-42.949219-24.78125-28.960937-61.132813-47.738281-102.148438-47.738281zm0 0"/><path d="m256 60c-19.53125 0-36.023438 12.578125-42.238281 30h84.476562c-6.214843-17.421875-22.707031-30-42.238281-30zm0 0"/></svg>