<svg height="512pt" viewBox="0 0 512 512" width="512pt" xmlns="http://www.w3.org/2000/svg"><path d="m226 151c-8.277344 0-15 6.722656-15 15s6.722656 15 15 15 15-6.722656 15-15-6.722656-15-15-15zm0 0"/><path d="m271 301c-16.539062 0-30 13.460938-30 30s13.460938 30 30 30 30-13.460938 30-30-13.460938-30-30-30zm0 0"/><path d="m181 271c-16.539062 0-30 13.460938-30 30s13.460938 30 30 30 30-13.460938 30-30-13.460938-30-30-30zm0 0"/><path d="m329.960938 192.160156c7.925781-58.667968-42.917969-109.699218-104.050782-99.929687-39.738281 6.445312-71.101562 40.414062-74.574218 80.785156-2.199219 25.625 6.800781 50.0625 24.078124 68.546875 1.867188-.175781 3.671876-.5625 5.585938-.5625 26.160156 0 48.21875 16.917969 56.410156 40.308594 9.589844-6.5 21.152344-10.308594 33.589844-10.308594 30.515625 0 55.492188 22.964844 59.238281 52.480469 13.542969-7.441407 24.273438-20.246094 28.390625-35.3125 5.976563-21.769531.292969-44.019531-15.222656-59.503907-10.296875-10.265624-15.1875-23.566406-13.445312-36.503906zm-103.960938 18.839844c-24.8125 0-45-20.1875-45-45s20.1875-45 45-45 45 20.1875 45 45-20.1875 45-45 45zm0 0"/><path d="m437 0h-362c-41.351562 0-75 34.648438-75 76 0 36.226562 25.8125 66.519531 60 73.492188v287.507812c0 8.289062 6.710938 15 15 15h362c8.289062 0 15-6.710938 15-15v-287.507812c34.1875-6.972657 60-37.265626 60-73.492188 0-41.351562-33.648438-76-75-76zm-49.429688 296.105469c-7.996093 29.179687-30.890624 52.546875-59.765624 60.996093-1.175782.339844-2.300782.5-3.460938.792969-9.902344 19.546875-29.972656 33.105469-53.34375 33.105469-26.15625 0-48.21875-16.917969-56.410156-40.3125-9.589844 6.503906-21.152344 10.3125-33.589844 10.3125-33.089844 0-60-26.910156-60-60 0-19.855469 9.796875-37.347656 24.695312-48.273438-17.792968-23.371093-26.816406-52.214843-24.242187-82.273437 4.628906-53.878906 46.539063-99.230469 99.652344-107.84375 80.441406-12.917969 149.28125 54.304687 138.589843 133.566406-.480468 3.515625 1.347657 7.71875 4.894532 11.25 23.261718 23.21875 31.84375 56.367188 22.980468 88.679688zm0 0"/><path d="m482 219.789062v72.421876l25.605469-25.605469c5.859375-5.859375 5.859375-15.351563 0-21.210938zm0 0"/><path d="m266.605469 507.605469 25.605469-25.605469h-72.421876l25.605469 25.605469c2.929688 2.929687 6.765625 4.394531 10.605469 4.394531 3.835938 0 7.675781-1.464844 10.605469-4.394531zm0 0"/><path d="m30 292.210938v-72.421876l-25.605469 25.605469c-5.859375 5.859375-5.859375 15.351563 0 21.210938zm0 0"/></svg>