<svg height="512pt" viewBox="-32 0 512 512" width="512pt" xmlns="http://www.w3.org/2000/svg"><path d="m328.800781 346c0-2.636719-.6875-5.230469-2.007812-7.515625l-12.992188-22.5-13.007812 22.53125c-1.304688 2.253906-1.992188 4.847656-1.992188 7.484375 0 8.277344 6.722657 15 15 15 8.277344 0 15-6.722656 15-15zm0 0"/><path d="m297.40625 421h149.820312l-19.992187-180h-149.820313l7.265626 65.425781 16.128906-27.925781c5.359375-9.285156 20.625-9.285156 25.984375 0l26.003906 45.015625c3.9375 6.855469 6.003906 14.617187 6.003906 22.484375 0 24.8125-20.1875 45-45 45-7.335937 0-14.164062-1.929688-20.289062-5.058594zm0 0"/><path d="m238.800781 121v24.390625c19.007813 16.164063 32.121094 39.132813 35.222657 65.609375h149.394531c-3.664063-21.660156-16.550781-39.8125-34.617188-50.253906v-39.746094zm0 0"/><path d="m447.601562 451h-150c-2.738281 23.234375-12.84375 45.238281-28.554687 61h107.902344c35.566406 0 64.960937-27.027344 70.652343-61zm0 0"/><path d="m88.800781 15v17.578125c0 21.109375-8.152343 42.578125-22.011719 58.421875h134.023438c-13.859375-15.84375-22.011719-37.3125-22.011719-58.421875v-17.578125c0-8.289062-6.707031-15-15-15h-60c-8.289062 0-15 6.710938-15 15zm0 0"/><path d="m343.800781 0h-60c-8.289062 0-15 6.710938-15 15v17.578125c0 21.109375-8.152343 42.578125-22.011719 58.421875h134.023438c-13.859375-15.84375-22.011719-37.3125-22.011719-58.421875v-17.578125c0-8.289062-6.707031-15-15-15zm0 0"/><path d="m.371094 421h266.855468l-19.992187-180h-226.871094zm94.421875-97.457031 26.015625-45.042969c5.359375-9.285156 20.625-9.285156 25.984375 0l26.003906 45.015625c3.9375 6.855469 6.003906 14.617187 6.003906 22.484375 0 24.8125-20.1875 45-45 45s-45-20.1875-45-45c0-7.867188 2.066407-15.628906 5.992188-22.457031zm0 0"/><path d="m133.800781 361c8.277344 0 15-6.722656 15-15 0-2.636719-.6875-5.230469-2.007812-7.515625l-12.992188-22.5-13.007812 22.53125c-1.304688 2.253906-1.992188 4.847656-1.992188 7.484375 0 8.277344 6.722657 15 15 15zm0 0"/><path d="m58.800781 160.695312c-17.996093 10.480469-31.085937 28.617188-34.730469 50.304688h219.460938c-3.640625-21.6875-16.730469-39.824219-34.730469-50.304688v-39.695312h-150zm0 0"/><path d="m70.652344 512h126.296875c35.566406 0 64.960937-27.027344 70.652343-61h-267.601562c5.691406 33.972656 35.085938 61 70.652344 61zm0 0"/></svg>