<svg height="512pt" viewBox="0 0 512 512" width="512pt" xmlns="http://www.w3.org/2000/svg"><path d="m467 0c-11.207031 0-21.460938 4.128906-29.347656 10.929688 13.835937 6.148437 26.558594 14.851562 37.574218 25.867187 11.167969 11.167969 19.765626 23.941406 25.816407 37.582031 6.816406-7.890625 10.957031-18.15625 10.957031-29.378906 0-24.8125-20.1875-45-45-45zm0 0"/><path d="m10.9375 437.644531c-6.804688 7.886719-10.9375 18.144531-10.9375 29.355469 0 24.8125 20.1875 45 45 45 11.214844 0 21.476562-4.132812 29.363281-10.941406-13.824219-6.148438-26.535156-14.847656-37.542969-25.855469-11.019531-11.019531-19.726562-23.738281-25.882812-37.558594zm0 0"/><path d="m319.660156 58.011719-10.046875 10.046875 37.585938 75.167968c3.703125 7.410157.699219 16.417969-6.710938 20.125-2.148437 1.074219-4.441406 1.585938-6.695312 1.585938-5.503907 0-10.800781-3.039062-13.425781-8.296875l-33.113282-66.222656-27.136718 27.136719 37.582031 75.167968c3.707031 7.410156.703125 16.421875-6.707031 20.125-2.152344 1.078125-4.441407 1.585938-6.695313 1.585938-5.492187 0-10.78125-3.027344-13.414063-8.269532l-33.125-66.25-27.136718 27.140626 37.582031 75.167968c3.707031 7.40625.703125 16.417969-6.707031 20.121094-2.152344 1.078125-4.441406 1.589844-6.695313 1.589844-5.488281 0-10.773437-3.023438-13.40625-8.253906l-28.316406-56.625-4.820313-9.640626-27.136718 27.136719 37.585937 75.167969c3.703125 7.410156.699219 16.417969-6.710937 20.125-2.152344 1.074219-4.441406 1.585938-6.695313 1.585938-5.484375 0-10.765625-3.023438-13.402343-8.25-.007813-.015626-.015626-.03125-.023438-.046876l-33.113281-66.222656-27.136719 27.136719 37.585938 75.167969c3.703124 7.40625.699218 16.417968-6.710938 20.125-2.152344 1.074218-4.441406 1.585937-6.695312 1.585937-5.503907 0-10.796876-3.039062-13.425782-8.292969 0 0 0 0 0-.003906l-33.113281-66.222656-31.230469 31.230469c-17.945312 17.941406-27.824218 41.800781-27.824218 67.175781s9.878906 49.230469 27.824218 67.175781c18.519532 18.519531 42.847656 27.78125 67.175782 27.78125 24.324218 0 48.652343-9.261719 67.171874-27.78125l261.632813-261.628906c37.039063-37.042969 37.039063-97.308594 0-134.351563-37.042969-37.039062-97.3125-37.035156-134.355469.003907zm-98.609375 196.984375.320313.640625s-.113282-.222657-.320313-.640625zm-.628906-1.261719.253906.515625c-.078125-.160156-.164062-.332031-.253906-.515625zm50.152344-48.179687.273437.542968c-.039062-.078125-.132812-.265625-.273437-.542968zm0 0"/></svg>