<svg height="512pt" viewBox="0 0 512 512" width="512pt" xmlns="http://www.w3.org/2000/svg"><path d="m454.886719 57.113281c-36.832031-36.828125-85.800781-57.113281-137.886719-57.113281s-101.054688 20.285156-137.886719 57.113281c-72.460937 72.460938-75.863281 188.234375-10.203125 264.761719l-28.933594 28.9375c-23-13.554688-53.171874-10.46875-72.90625 9.265625l-49.496093 49.496094c-11.332031 11.332031-17.574219 26.398437-17.574219 42.425781s6.242188 31.09375 17.574219 42.425781 26.398437 17.574219 42.425781 17.574219 31.09375-6.242188 42.425781-17.574219l49.5-49.496093c19.730469-19.734376 22.820313-49.90625 9.261719-72.90625l28.9375-28.933594c35.3125 30.351562 79.820312 46.910156 126.875 46.910156 52.085938 0 101.054688-20.28125 137.886719-57.113281 76.027343-76.03125 76.027343-199.742188 0-275.773438zm-17.886719 189.886719h-240c-8.285156 0-15-6.714844-15-15s6.714844-15 15-15h5.976562c6.730469-51.4375 47.585938-92.292969 99.023438-99.023438v-10.976562h-5c-8.285156 0-15-6.714844-15-15s6.714844-15 15-15h40c8.285156 0 15 6.714844 15 15s-6.714844 15-15 15h-5v10.976562c51.4375 6.730469 92.292969 47.585938 99.023438 99.023438h5.976562c8.285156 0 15 6.714844 15 15s-6.714844 15-15 15zm0 0"/><path d="m317 147c-41.75 0-76.570312 30.261719-83.675781 70h167.351562c-7.105469-39.738281-41.925781-70-83.675781-70zm0 0"/></svg>