<svg height="512pt" viewBox="-61 0 511 512" width="512pt" xmlns="http://www.w3.org/2000/svg"><path d="m54.589844 180h280c8.28125 0 15-6.714844 15-15v-30c0-8.285156-6.71875-15-15-15h-5.839844c-7.484375-67.40625-64.792969-120-134.160156-120-69.371094 0-126.675782 52.59375-134.164063 120h-5.835937c-8.285156 0-15 6.714844-15 15v30c0 8.285156 6.714844 15 15 15zm180-105c8.28125 0 15 6.714844 15 15s-6.71875 15-15 15c-8.285156 0-15-6.714844-15-15s6.714844-15 15-15zm-40-27c8.28125 0 15 6.714844 15 15s-6.71875 15-15 15c-8.285156 0-15-6.714844-15-15s6.714844-15 15-15zm-40 27c8.28125 0 15 6.714844 15 15s-6.71875 15-15 15c-8.285156 0-15-6.714844-15-15s6.714844-15 15-15zm0 0"/><path d="m338.429688 270h11.542968l-15.894531-60h-278.980469l-15.894531 60zm0 0"/><path d="m385.796875 405.234375-27.875-105.234375h-326.664063l-27.878906 105.234375c-6.808594 25.703125-1.414062 52.53125 14.804688 73.605469 16.21875 21.074218 40.769531 33.160156 67.363281 33.160156h218.085937c26.589844 0 51.144532-12.085938 67.359376-33.160156 16.21875-21.070313 21.613281-47.902344 14.804687-73.605469zm0 0"/></svg>