<svg height="512pt" viewBox="0 0 512 512" width="512pt" xmlns="http://www.w3.org/2000/svg"><path d="m511.953125 353.050781c.273437-3.921875-.972656-7.949219-3.816406-11.101562-23.578125-26.121094-57.125-41.953125-94.464844-44.574219-37.242187-2.621094-73.054687 8.273438-100.84375 30.664062l-11.121094 8.960938h-73.707031c-17.324219 0-32.386719 9.847656-39.902344 24.238281-3.570312 6.828125-5.449218 14.671875-5.042968 22.984375 1.171874 24.089844 21.566406 42.777344 45.683593 42.777344h107.261719c8.285156 0 15 6.714844 15 15s-6.714844 15-15 15h-106.933594c-41.398437 0-75.789062-33.09375-76.0625-74.492188-.082031-11.976562 2.671875-23.3125 7.609375-33.390624l-93.582031-41.277344c-14.828125-6.535156-31.78125-5.160156-45.355469 3.691406-13.570312 8.847656-21.675781 23.804688-21.675781 40.007812 0 16.816407 8.996094 32.574219 23.476562 41.125l160.972657 95.03125c26.929687 15.902344 57.695312 24.304688 88.96875 24.304688h223.582031c8.285156 0 15-6.714844 15-15v-143c0-.320312-.027344-.632812-.046875-.949219zm0 0"/><path d="m271 50.609375v-20.609375h10c8.285156 0 15-6.714844 15-15s-6.714844-15-15-15h-50c-8.285156 0-15 6.714844-15 15s6.714844 15 15 15h10v20.609375c-79.8125 6.4375-145.480469 63.75-164.453125 139.390625h358.90625c-18.972656-75.640625-84.640625-132.953125-164.453125-139.390625zm0 0"/><path d="m61 250h390c8.285156 0 15-6.714844 15-15s-6.714844-15-15-15h-390c-8.285156 0-15 6.714844-15 15s6.714844 15 15 15zm0 0"/></svg>