<svg height="512pt" viewBox="0 0 512 512" width="512pt" xmlns="http://www.w3.org/2000/svg"><path d="m486.476562 169.734375-135.507812 135.507813c2.113281 4.554687 3.460938 9.527343 3.878906 14.757812h151.121094c3.929688-16.03125 6.03125-32.773438 6.03125-50 0-36.285156-9.253906-70.453125-25.523438-100.265625zm0 0"/><path d="m335.785156 359.574219 84.117188 84.117187c33.742187-22.976562 60.460937-55.519531 76.25-93.691406h-150.191406c-2.855469 3.707031-6.289063 6.949219-10.175782 9.574219zm0 0"/><path d="m315 183.433594c8.285156 0 15 6.714844 15 15 0 32.164062-13.6875 61.1875-35.535156 81.566406h17.035156c6.519531 0 12.699219 1.449219 18.257812 4.03125l140.089844-140.089844c-38.355468-50.941406-99.316406-83.941406-167.847656-83.941406h-257c-8.269531 0-15-6.730469-15-15s6.730469-15 15-15h150c8.285156 0 15-6.714844 15-15s-6.714844-15-15-15h-150c-24.8125 0-45 20.1875-45 45 0 19.703125 12.730469 36.472656 30.394531 42.554688 6.304688 103.789062 90.171875 186.980468 194.25 192.183593 42.082031-3.1875 75.355469-38.421875 75.355469-81.304687 0-8.285156 6.714844-15 15-15zm-140-28.433594c-8.285156 0-15-6.714844-15-15s6.714844-15 15-15 15 6.714844 15 15-6.714844 15-15 15zm0 0"/><path d="m285 367v113h17c32.589844 0 63.46875-7.464844 91.019531-20.769531l-92.230469-92.230469zm0 0"/><path d="m131.824219 361.203125c-6.632813 12.191406-6.824219 24.214844-6.824219 25.546875s.191406 13.355469 6.824219 25.546875c2.296875 4.214844 5.082031 7.957031 8.316406 11.203125-3.234375 3.246094-6.023437 6.988281-8.316406 11.203125-6.632813 12.191406-6.824219 24.214844-6.824219 25.546875s.191406 13.355469 6.824219 25.546875c9.195312 16.894531 26.304687 26.203125 48.175781 26.203125 26.21875 0 55.335938-22.226562 75-32v-41.5h-75c-8.285156 0-15-6.714844-15-15s6.714844-15 15-15h75v-41.5c-19.664062-9.773438-48.78125-32-75-32-21.871094 0-38.980469 9.308594-48.175781 26.203125zm0 0"/></svg>