<svg height="512pt" viewBox="0 0 512.00022 512" width="512pt" xmlns="http://www.w3.org/2000/svg"><path d="m76 0c-8.289062 0-15 6.710938-15 15v16.398438c-19.398438 2.953124-39.34375 11.230468-52.222656 24.121093-11.660156 11.71875-11.761719 31.640625.042968 43.449219 11.8125 11.777344 31.835938 11.527344 43.410157-.042969 5.390625-5.390625 15.699219-7.925781 23.769531-7.925781s18.378906 2.535156 23.769531 7.925781c11.652344 11.710938 30.652344 11.765625 42.421875.027344 11.824219-11.824219 11.65625-31.78125.027344-43.40625-12.878906-12.914063-31.816406-21.195313-51.21875-24.148437v-16.398438c0-8.289062-6.707031-15-15-15zm0 0"/><path d="m106 121c0 16.570312-13.429688 30-30 30s-30-13.429688-30-30 13.429688-30 30-30 30 13.429688 30 30zm0 0"/><path d="m142.191406 248.953125c11.824219-11.824219 11.65625-30.78125.027344-42.40625-16.199219-16.246094-41.976562-25.546875-66.21875-25.546875-24.230469 0-51.019531 9.300781-67.222656 25.519531-11.660156 11.71875-11.761719 30.640625.042968 42.449219 11.8125 11.777344 31.835938 11.527344 43.410157-.042969 5.390625-5.390625 15.699219-7.925781 23.769531-7.925781s18.378906 2.535156 23.769531 7.925781c11.652344 11.710938 30.652344 11.765625 42.421875.027344zm0 0"/><path d="m106 271c0 16.570312-13.429688 30-30 30s-30-13.429688-30-30 13.429688-30 30-30 30 13.429688 30 30zm0 0"/><path d="m8.820312 399.96875c11.8125 11.777344 31.835938 11.527344 43.410157-.042969 5.390625-5.390625 15.699219-7.925781 23.769531-7.925781s18.378906 2.535156 23.769531 7.925781c11.652344 11.710938 30.652344 11.765625 42.421875.027344 11.824219-11.824219 11.65625-31.78125.027344-43.40625-16.199219-16.246094-41.976562-25.546875-66.21875-25.546875-24.230469 0-51.019531 9.300781-67.222656 25.519531-11.660156 11.71875-11.761719 31.640625.042968 43.449219zm0 0"/><path d="m106 422c0 16.570312-13.429688 30-30 30s-30-13.429688-30-30 13.429688-30 30-30 30 13.429688 30 30zm0 0"/><path d="m256 0c-8.289062 0-15 6.710938-15 15v16.398438c-19.398438 2.953124-38.34375 11.230468-51.222656 24.121093-11.660156 11.71875-11.761719 31.640625.042968 43.449219 11.8125 11.777344 30.835938 11.527344 42.410157-.042969 5.390625-5.390625 15.699219-7.925781 23.769531-7.925781s18.378906 2.535156 23.769531 7.925781c11.652344 11.710938 30.652344 11.765625 42.421875.027344 11.824219-11.824219 11.65625-31.78125.027344-43.40625-12.878906-12.914063-31.816406-21.195313-51.21875-24.148437v-16.398438c0-8.289062-6.707031-15-15-15zm0 0"/><path d="m286 121c0 16.570312-13.429688 30-30 30s-30-13.429688-30-30 13.429688-30 30-30 30 13.429688 30 30zm0 0"/><path d="m189.820312 248.96875c11.8125 11.777344 30.835938 11.527344 42.410157-.042969 5.390625-5.390625 15.699219-7.925781 23.769531-7.925781s18.378906 2.535156 23.769531 7.925781c11.652344 11.710938 30.652344 11.765625 42.421875.027344 11.824219-11.824219 11.65625-30.78125.027344-42.40625-16.199219-16.246094-41.976562-25.546875-66.21875-25.546875-24.230469 0-50.019531 9.300781-66.222656 25.519531-11.660156 11.71875-11.761719 30.640625.042968 42.449219zm0 0"/><path d="m286 271c0 16.570312-13.429688 30-30 30s-30-13.429688-30-30 13.429688-30 30-30 30 13.429688 30 30zm0 0"/><path d="m189.820312 399.96875c11.8125 11.777344 30.835938 11.527344 42.410157-.042969 5.390625-5.390625 15.699219-7.925781 23.769531-7.925781s18.378906 2.535156 23.769531 7.925781c11.652344 11.710938 30.652344 11.765625 42.421875.027344 11.824219-11.824219 11.65625-31.78125.027344-43.40625-16.199219-16.246094-41.976562-25.546875-66.21875-25.546875-24.230469 0-50.019531 9.300781-66.222656 25.519531-11.660156 11.71875-11.761719 31.640625.042968 43.449219zm0 0"/><path d="m286 422c0 16.570312-13.429688 30-30 30s-30-13.429688-30-30 13.429688-30 30-30 30 13.429688 30 30zm0 0"/><path d="m451 31.398438v-16.398438c0-8.289062-6.707031-15-15-15-8.289062 0-15 6.710938-15 15v16.398438c-19.398438 2.953124-38.34375 11.230468-51.222656 24.121093-11.660156 11.71875-11.761719 31.640625.042968 43.449219 11.8125 11.777344 30.835938 11.527344 42.410157-.042969 5.390625-5.390625 15.699219-7.925781 23.769531-7.925781s18.378906 2.535156 23.769531 7.925781c11.652344 11.710938 31.652344 11.765625 43.421875.027344 11.824219-11.824219 11.65625-31.78125.027344-43.40625-12.878906-12.914063-32.816406-21.195313-52.21875-24.148437zm0 0"/><path d="m466 121c0 16.570312-13.429688 30-30 30s-30-13.429688-30-30 13.429688-30 30-30 30 13.429688 30 30zm0 0"/><path d="m436 181c-24.230469 0-50.019531 9.300781-66.222656 25.519531-11.660156 11.71875-11.761719 30.640625.042968 42.449219 11.8125 11.777344 30.835938 11.527344 42.410157-.042969 5.390625-5.390625 15.699219-7.925781 23.769531-7.925781s18.378906 2.535156 23.769531 7.925781c11.652344 11.710938 31.652344 11.765625 43.421875.027344 11.824219-11.824219 11.65625-30.78125.027344-42.40625-16.199219-16.246094-42.976562-25.546875-67.21875-25.546875zm0 0"/><path d="m466 271c0 16.570312-13.429688 30-30 30s-30-13.429688-30-30 13.429688-30 30-30 30 13.429688 30 30zm0 0"/><path d="m436 331c-24.230469 0-50.019531 9.300781-66.222656 25.519531-11.660156 11.71875-11.761719 31.640625.042968 43.449219 11.8125 11.777344 30.835938 11.527344 42.410157-.042969 5.390625-5.390625 15.699219-7.925781 23.769531-7.925781s18.378906 2.535156 23.769531 7.925781c11.652344 11.710938 31.652344 11.765625 43.421875.027344 11.824219-11.824219 11.65625-31.78125.027344-43.40625-16.199219-16.246094-42.976562-25.546875-67.21875-25.546875zm0 0"/><path d="m61 479.871094v17.128906c0 8.292969 6.710938 15 15 15 8.292969 0 15-6.707031 15-15v-17.128906c-4.824219 1.25-9.789062 2.128906-15 2.128906-5.207031 0-10.175781-.875-15-2.128906zm0 0"/><path d="m241 479.871094v17.128906c0 8.292969 6.710938 15 15 15 8.292969 0 15-6.707031 15-15v-17.128906c-4.824219 1.25-9.789062 2.128906-15 2.128906-5.207031 0-10.175781-.875-15-2.128906zm0 0"/><path d="m421 479.871094v17.128906c0 8.292969 6.710938 15 15 15 8.292969 0 15-6.707031 15-15v-17.128906c-4.824219 1.25-9.789062 2.128906-15 2.128906-5.207031 0-10.175781-.875-15-2.128906zm0 0"/><path d="m466 422c0 16.570312-13.429688 30-30 30s-30-13.429688-30-30 13.429688-30 30-30 30 13.429688 30 30zm0 0"/></svg>