<svg height="512pt" viewBox="-121 0 512 512" width="512pt" xmlns="http://www.w3.org/2000/svg"><path d="m255.035156 30c8.402344 0 15-6.601562 15-15 0-8.402344-6.597656-15-15-15h-60c-7.199218 0-13.199218 5.097656-14.699218 12l-9.597657 49h30.597657l6-31zm0 0"/><path d="m7.238281 238.300781c4.199219 21.898438 9.597657 48.898438 17.398438 81.898438 3.300781 14.101562 5.101562 29.101562 5.402343 44.699219.296876 15.300781-3 37.5-7.203124 56.101562h224.402343c-4.203125-18.601562-7.5-40.800781-7.203125-56.101562.300782-15.597657 2.101563-30.597657 5.402344-44.699219 7.800781-33 13.199219-60 17.398438-81.898438 3.601562-19.203125 4.800781-38.101562 4.203124-57.300781h-125.703124l16.800781 16.800781c5.699219 6 5.699219 15.300781 0 21.296875l-42.601563 42.300782c-2.699218 3-6.597656 4.5-10.5 4.5-3.898437 0-7.796875-1.5-10.496094-4.5l-42.601562-42.300782c-5.699219-5.996094-5.699219-15.296875 0-21.296875l16.800781-16.800781h-65.703125c-.597656 19.199219.601563 38.097656 4.203125 57.300781zm82.796875 77.699219c0-8.402344 6.601563-15 15-15h60c8.402344 0 15 6.597656 15 15v60c0 8.398438-6.597656 15-15 15h-60c-8.398437 0-15-6.601562-15-15zm0 0"/><path d="m105.035156 229.601562 21.300782-21.300781-21.300782-21-21.300781 21zm0 0"/><path d="m120.035156 331h30v30h-30zm0 0"/><path d="m2.738281 505.699219c3 3.898437 7.5 6.300781 12.296875 6.300781h240c4.800782 0 9.300782-2.402344 12.300782-6.300781 2.699218-3.898438 3.601562-9 1.800781-13.5l-13.199219-41.199219h-241.800781l-13.199219 41.199219c-1.800781 4.5-.9023438 9.601562 1.800781 13.5zm0 0"/><path d="m264.335938 151c-4.199219-27.898438-12.898438-55.5-25.800782-81.601562-2.699218-5.097657-7.796875-8.398438-13.5-8.398438h-23.699218l-18 90zm0 0"/><path d="m31.535156 69.398438c-12.898437 26.101562-21.597656 53.703124-25.796875 81.601562h147l18-90h-125.703125c-5.699218 0-10.796875 3.300781-13.5 8.398438zm0 0"/></svg>