<svg height="511pt" viewBox="-90 1 511 511.9995" width="511pt" xmlns="http://www.w3.org/2000/svg"><path d="m322.765625 230.875c-4.773437-2.640625-10.605469-2.484375-15.230469.414062-20.230468 12.679688-43.546875 19.503907-67.421875 19.734376-.421875.003906-.835937.007812-1.257812.007812-23.4375 0-46.421875-6.363281-66.535157-18.433594l-1.507812-.902344c-49.433594-29.660156-111.207031-30.273437-161.21875-1.601562l-1.554688.894531c-4.664062 2.671875-7.539062 7.636719-7.539062 13.011719v63c0 5.351562 2.851562 10.296875 7.480469 12.976562 4.628906 2.683594 10.335937 2.699219 14.976562.035157l1.558594-.890625c40.59375-23.273438 90.738281-22.777344 130.863281 1.300781l1.503906.902344c24.785157 14.867187 53.09375 22.707031 81.972657 22.707031.515625 0 1.03125-.003906 1.546875-.007812 29.414062-.285157 58.136718-8.691407 83.0625-24.3125 4.375-2.742188 7.035156-7.546876 7.035156-12.710938v-63c0-5.457031-2.964844-10.484375-7.734375-13.125zm0 0"/><path d="m298.914062 47.292969c-2.539062-5.082031-7.730468-8.292969-13.414062-8.292969h-151.289062l-34.605469-34.605469c-5.855469-5.859375-15.355469-5.859375-21.210938 0-5.859375 5.855469-5.859375 15.355469 0 21.210938l13.390625 13.394531h-46.285156c-5.683594 0-10.875 3.210938-13.417969 8.292969l-18.351562 36.707031h303.539062zm0 0"/><path d="m32.082031 503.707031c2.542969 5.082031 7.734375 8.292969 13.417969 8.292969h240c5.683594 0 10.875-3.210938 13.414062-8.292969l18.355469-36.707031h-303.539062zm0 0"/><path d="m.5 114v86.871094c27.148438-14.316406 57.542969-21.859375 88.335938-21.859375 34.335937 0 68.019531 9.324219 97.414062 26.957031l1.503906.90625c15.4375 9.257812 33.105469 14.152344 51.105469 14.152344l.9375-.003906c18.363281-.175782 36.269531-5.417969 51.808594-15.15625 7.171875-4.492188 15.433593-6.867188 23.894531-6.867188 5.117188 0 10.195312.902344 15 2.597656v-87.597656zm0 0"/><path d="m238.855469 374.03125c-34.300781 0-67.984375-9.332031-97.402344-26.984375l-1.503906-.898437c-15.417969-9.25-33.089844-14.140626-51.113281-14.140626-17.324219 0-34.40625 4.542969-49.398438 13.140626l-1.550781.890624c-6.8125 3.902344-14.550781 5.960938-22.386719 5.960938-5.125 0-10.199219-.894531-15-2.589844v87.589844h330v-86.65625c-27.46875 15.199219-58.296875 23.371094-89.804688 23.675781-.617187.007813-1.839843.011719-1.839843.011719zm0 0"/></svg>