<svg height="512pt" viewBox="0 -16 512 512" width="512pt" xmlns="http://www.w3.org/2000/svg"><path d="m271 390h-30c0-49.621094-40.433594-90-90-90-49.800781 0-90 40.199219-90 90h-30c0-66.300781 53.699219-120 120-120s120 53.699219 120 120zm0 0"/><path d="m46 120c-8.289062 0-15 6.710938-15 15s6.710938 15 15 15h15v120.765625c17.472656-13.226563 37.878906-22.601563 60-27.285156v-243.480469h-75c-8.289062 0-15 6.710938-15 15s6.710938 15 15 15h15v30h-15c-8.289062 0-15 6.710938-15 15s6.710938 15 15 15h15v30zm0 0"/><path d="m497 420h-482c-8.285156 0-15 6.714844-15 15 0 24.851562 20.148438 45 45 45h422c24.851562 0 45-20.148438 45-45 0-8.285156-6.714844-15-15-15zm0 0"/><path d="m481 45c0-8.289062-6.710938-15-15-15h-203.789062l-25.605469-25.605469c-2.8125-2.8125-6.621094-4.394531-10.605469-4.394531h-75v30h30v30h-30v30h30v30h-30v30h75c3.984375 0 7.792969-1.582031 10.605469-4.394531l25.605469-25.605469h203.789062c8.289062 0 15-6.710938 15-15zm0 0"/><path d="m151 360c16.5 0 30 13.5 30 30h30c0-33-27-60-60-60s-60 27-60 60h30c0-16.5 13.5-30 30-30zm0 0"/><path d="m301 210c-40.730469 0-78.203125 13.738281-108.390625 36.605469 11.796875 3.4375 22.941406 8.171875 33.351563 14.242187 22.152343-12.910156 47.566406-20.847656 75.039062-20.847656 82.800781 0 150 67.199219 150 150h30c0-99.042969-80.265625-180-180-180zm0 0"/><path d="m301 300c49.5 0 90 40.5 90 90h30c0-66.300781-53.699219-120-120-120-17.261719 0-33.578125 3.785156-48.402344 10.339844 7.9375 7.359375 15.238282 15.359375 21.441406 24.269531 8.570313-2.730469 17.515626-4.609375 26.960938-4.609375zm0 0"/><path d="m301 330c-4.128906 0-8.15625.421875-12.050781 1.21875 3.996093 9.347656 7.039062 19.179688 9.078125 29.382812 1.027344-.109374 1.917968-.601562 2.972656-.601562 16.570312 0 30 13.429688 30 30h30c0-33.089844-26.910156-60-60-60zm0 0"/></svg>