<svg height="512pt" viewBox="0 0 512 512" width="512pt" xmlns="http://www.w3.org/2000/svg"><path d="m124.492188 497c0 8.285156 6.714843 15 15 15h233.015624c8.285157 0 15-6.714844 15-15v-15h-263.015624zm0 0"/><path d="m272 60h-71v-15c0-24.8125-20.1875-45-45-45h-141c-8.285156 0-15 6.714844-15 15s6.714844 15 15 15h141c8.269531 0 15 6.730469 15 15v15h-156c-8.285156 0-15 6.714844-15 15s6.714844 15 15 15h156v15c0 8.269531-6.730469 15-15 15h-141c-8.285156 0-15 6.714844-15 15s6.714844 15 15 15h141c24.8125 0 45-20.1875 45-45v-15h71zm0 0"/><path d="m317 120h150c24.8125 0 45-20.1875 45-45s-20.1875-45-45-45h-150c-8.285156 0-15 6.714844-15 15v60c0 8.285156 6.714844 15 15 15zm0 0"/><path d="m316 183c75.015625 0 136.726562 56.96875 144.230469 130h30.121093c-7.609374-89.625-82.757812-160-174.351562-160-56.253906 0-106.285156 26.558594-138.296875 67.800781-12.929687-5.035156-26.992187-7.800781-41.703125-7.800781-58.429688 0-106.675781 43.574219-114.027344 100h30.375c7.085938-39.785156 41.828125-70 83.652344-70s76.566406 30.214844 83.652344 70h30.375c-1.273438-9.765625-3.773438-19.140625-7.335938-27.976562 14.761719-25.136719 42.050782-42.023438 73.308594-42.023438 41.824219 0 76.566406 30.214844 83.652344 70h30.375c-7.351563-56.425781-55.597656-100-114.027344-100-36.449219 0-68.933594 16.957031-90.003906 43.410156-6.269532-7.875-13.554688-14.90625-21.652344-20.902344 26.59375-32.070312 66.734375-52.507812 111.65625-52.507812zm0 0"/><path d="m263.089844 313h105.820312c-6.53125-23.082031-27.738281-40-52.910156-40s-46.378906 16.917969-52.910156 40zm0 0"/><path d="m0 347c0 26.15625 8.867188 48.230469 26.359375 65.601562 38.808594 38.546876 107.085937 39.398438 112.929687 39.398438h.234376 232.953124.234376c5.847656 0 74.125-.851562 112.929687-39.398438 17.492187-17.371093 26.359375-39.445312 26.359375-65.601562v-4h-512zm0 0"/><path d="m83.089844 313h105.820312c-6.53125-23.082031-27.738281-40-52.910156-40s-46.378906 16.917969-52.910156 40zm0 0"/></svg>