<svg height="512pt" viewBox="0 -32 512 512" width="512pt" xmlns="http://www.w3.org/2000/svg"><path d="m407 70h-61v-35c0-19.300781-15.699219-35-35-35h-110c-19.300781 0-35 15.699219-35 35v35h-61c-32.589844 0-60.378906 20.902344-70.699219 50h443.398438c-10.320313-29.097656-38.109375-50-70.699219-50zm-211-35c0-2.757812 2.242188-5 5-5h110c2.757812 0 5 2.242188 5 5v35h-120zm0 0"/><path d="m497 150h-482c-8.285156 0-15 6.714844-15 15s6.714844 15 15 15h15v192c0 41.355469 33.644531 75 75 75h302c41.355469 0 75-33.644531 75-75v-74.578125c-4.695312 1.664063-9.742188 2.578125-15 2.578125-24.8125 0-45-20.1875-45-45v-13c0-8.269531-6.730469-15-15-15s-15 6.730469-15 15v13c0 24.8125-20.1875 45-45 45s-45-20.1875-45-45v-75h30v75c0 8.269531 6.730469 15 15 15s15-6.730469 15-15v-13c0-24.8125 20.1875-45 45-45s45 20.1875 45 45v13c0 8.269531 6.730469 15 15 15s15-6.730469 15-15v-75h15c8.285156 0 15-6.714844 15-15s-6.714844-15-15-15zm0 0"/></svg>