<svg height="511pt" viewBox="-38 0 511 511.99992" width="511pt" xmlns="http://www.w3.org/2000/svg"><path d="m428.582031 32.390625c-7.199219-4.5-16.5-2.398437-20.699219 4.5l-123.300781 198.109375c9.597657 3.601562 18.898438 7.5 27.898438 12l120.601562-193.90625c4.5-7.203125 2.398438-16.5-4.5-20.703125zm0 0"/><path d="m330.480469 451h-300c-8.28125 0-15 6.714844-15 15 0 24.851562 20.148437 46 45 46h240c24.855469 0 45-21.148438 45-46 0-8.285156-6.714844-15-15-15zm0 0"/><path d="m45.480469 375.578125v45.421875h90v-78.652344c-17.710938 4.308594-34.339844 10.660156-45.027344 18.667969-12.65625 9.550781-28.066406 14.617187-44.488281 14.617187-.164063 0-.320313-.050781-.484375-.054687zm0 0"/><path d="m315.4375 376c-16.304688 0-31.847656-5.1875-44.925781-14.984375-10.761719-8.070313-27.554688-14.460937-45.03125-18.757813v78.742188h90v-45.003906c-.015625 0-.027344.003906-.042969.003906zm0 0"/><path d="m72.464844 337.007812c15.894531-11.917968 39.578125-20.535156 63.015625-25.578124v-91.265626c-38.457031 6.097657-83.871094 19.996094-116.980469 44.832032-19.863281 14.882812-23.90625 43.140625-9.023438 63 14.457032 19.265625 43.796876 23.484375 62.988282 9.011718zm0 0"/><path d="m180.511719 216.332031c-10.523438 0-12.007813.355469-15.03125.535157v204.132812h30v-204.105469c-5.113281-.292969-10.210938-.5625-14.96875-.5625zm0 0"/><path d="m262.378906 298.597656c-6.898437-4.199218-9-13.5-4.496094-20.699218l26.699219-42.898438c-19.5-6.898438-39.601562-11.699219-59.101562-14.699219v91.195313c23.402343 5.101562 47.101562 13.5 63 25.503906 18.046875 13.878906 46.671875 12.394531 63-9.003906 15-19.796875 10.800781-47.996094-9-62.996094-9-6.898438-19.199219-12.902344-30-18l-29.398438 47.097656c-4.351562 7.253906-14.144531 8.871094-20.703125 4.5zm0 0"/><path d="m337.191406 1.574219c-7.441406-3.675781-16.40625-.703125-20.128906 6.710937l-90.351562 181.707032c4.273437.726562 14.335937 2.042968 30.621093 5.851562l86.566407-174.140625c3.707031-7.414063.703124-16.421875-6.707032-20.128906zm0 0"/></svg>