<svg height="512pt" viewBox="0 -83 512 512" width="512pt" xmlns="http://www.w3.org/2000/svg"><path d="m152.019531 64.921875c1.539063-15.855469 6.429688-30.632813 14.253907-43.644531-17.921876-4.863282-32.703126-6.160156-33.773438-6.234375-5.304688-.4375-10.238281 1.949219-13.285156 6.183593-.601563.839844-8.457032 12.042969-15.976563 27.808594 14.410157 3.902344 27.464844 10.761719 38.722657 19.945313 3.304687-1.449219 6.6875-2.734375 10.058593-4.058594zm0 0"/><path d="m345.863281 21.527344c7.738281 12.953125 12.585938 27.636718 14.117188 43.394531 3.371093 1.324219 6.753906 2.609375 10.058593 4.058594 11.492188-9.375 24.84375-16.363281 39.601563-20.21875-7.480469-15.621094-15.25-26.699219-15.84375-27.523438-3.046875-4.246093-7.851563-6.636719-13.285156-6.195312-1.089844.082031-16.332031 1.421875-34.648438 6.484375zm0 0"/><path d="m436 75c-13.082031 0-25.195312 3.648438-35.902344 9.535156 41.808594 24.640625 77.726563 59.558594 102.367188 101.367188 5.890625-10.707032 9.535156-22.820313 9.535156-35.902344 0-41.421875-34.578125-75-76-75zm0 0"/><path d="m327.8125 54.523438c-8.957031-31.398438-37.539062-54.523438-71.8125-54.523438s-62.855469 23.125-71.8125 54.523438c22.988281-6 46.96875-9.523438 71.8125-9.523438s48.824219 3.523438 71.8125 9.523438zm0 0"/><path d="m0 150c0 13.082031 3.644531 25.195312 9.535156 35.902344 24.640625-41.808594 60.558594-76.726563 102.367188-101.367188-10.707032-5.886718-22.820313-9.535156-35.902344-9.535156-41.421875 0-76 33.578125-76 75zm0 0"/><path d="m344.183594 147.054688c0 8.277343 6.722656 15 15 15s15-6.722657 15-15c0-8.273438-6.722656-15-15-15s-15 6.722656-15 15zm0 0"/><path d="m331 315c0 16.570312-13.429688 30-30 30s-30-13.429688-30-30 13.429688-30 30-30 30 13.429688 30 30zm0 0"/><path d="m385.488281 110.710938c11.273438 8.183593 18.695313 21.375 18.695313 36.34375 0 24.8125-20.1875 45-45 45s-45-20.1875-45-45 20.1875-45 45-45c7.722656 0 14.882812 2.132812 21.238281 5.574218-36.84375-20.699218-79.238281-32.628906-124.421875-32.628906-140.609375 0-256 114.390625-256 255 0 8.289062 6.710938 15 15 15h234.320312c-5.152343-8.855469-8.320312-19.015625-8.320312-30 0-33.136719 26.863281-60 60-60s60 26.863281 60 60c0 10.984375-3.167969 21.144531-8.320312 30h144.320312c8.289062 0 15-6.710938 15-15 0-93.3125-51.53125-174.84375-126.511719-219.289062zm-279.488281 174.289062c-8.285156 0-15-6.714844-15-15s6.714844-15 15-15 15 6.714844 15 15-6.714844 15-15 15zm60-30c-24.8125 0-45-20.1875-45-45s20.1875-45 45-45c8.289062 0 15 6.710938 15 15s-6.710938 15-15 15c-8.277344 0-15 6.722656-15 15s6.722656 15 15 15 15-6.722656 15-15c0-8.289062 6.710938-15 15-15s15 6.710938 15 15c0 24.8125-20.1875 45-45 45zm90-60c-8.285156 0-15-6.714844-15-15s6.714844-15 15-15 15 6.714844 15 15-6.714844 15-15 15zm150 90c-8.285156 0-15-6.714844-15-15s6.714844-15 15-15 15 6.714844 15 15-6.714844 15-15 15zm0 0"/></svg>