<svg height="511pt" viewBox="0 0 511 511.99962" width="511pt" xmlns="http://www.w3.org/2000/svg"><path d="m288.550781.09375c-8.097656-.902344-15.898437 4.796875-17.09375 12.898438l-11.101562 78.085937h26.097656c1.5 0 2.996094 0 4.5.296875l10.496094-74.183594c.902343-8.101562-4.796875-15.898437-12.898438-17.097656zm0 0"/><path d="m381.234375 30.988281c-8.097656-2.699219-16.496094 1.5-18.894531 9.296875l-23.695313 72.386719c9.597657 9 16.796875 20.695313 20.09375 33.894531l31.792969-96.683594c2.703125-7.800781-1.5-16.496093-9.296875-18.894531zm0 0"/><path d="m310.238281 452.011719h-107.558593l-59.988282 59.988281h227.535156zm0 0"/><path d="m172.683594 271.042969h167.546875l59.988281-59.988281h-287.523438zm0 0"/><path d="m3.023438 294.359375c4.519531 6.792969 13.785156 8.808594 20.796874 4.160156l70.476563-46.316406 26.480469 239.296875 65.085937-65.089844c2.8125-2.8125 6.621094-4.394531 10.605469-4.394531h119.976562c3.984376 0 7.792969 1.582031 10.605469 4.394531l65.085938 65.089844 26.480469-239.296875 70.476562 46.316406c7.015625 4.652344 16.277344 2.628907 20.796875-4.160156 4.597656-6.898437 2.738281-16.199219-4.160156-20.796875l-75.761719-49.84375-72.925781 72.925781c-2.8125 2.8125-6.621094 4.394531-10.601563 4.394531h-179.96875c-3.984375 0-7.789062-1.582031-10.601562-4.394531l-72.925782-72.925781-75.761718 49.84375c-6.898438 4.597656-8.757813 13.898438-4.160156 20.796875zm0 0"/><path d="m152.675781 152.265625c-18.597656 3.597656-34.792969 14.097656-45.890625 28.792969h140.675782l12.894531-89.980469h-33.890625c-36.59375 0-67.1875 26.394531-73.789063 61.1875zm0 0"/><path d="m278.054688 181.058594h37.792968l22.792969-68.386719c-12.296875-12.597656-29.09375-20.394531-47.6875-21.296875zm0 0"/><path d="m360.238281 152.265625c-.300781-2.101563-.898437-3.898437-1.5-5.699219l-11.695312 34.492188h59.085937c-11.097656-14.695313-27.292968-25.195313-45.890625-28.792969zm0 0"/></svg>