<svg height="512pt" viewBox="0 0 511 512" width="512pt" xmlns="http://www.w3.org/2000/svg"><path d="m132.171875 259.179688 1.1875 1.183593c6.226563-6.746093 12.847656-13.082031 19.78125-19.011719-6.964844-17.855468-10.640625-36.984374-10.640625-56.351562 0-85.46875 69.53125-155 155-155s155 69.53125 155 155c0 19.367188-3.675781 38.492188-10.636719 56.347656 7.214844 6.171875 14.089844 12.789063 20.539063 19.84375l1.054687 1.058594.46875.625c.296875.332031.582031.675781.878907 1.007812 11.546874-24.523437 17.695312-51.503906 17.695312-78.882812 0-102.007812-82.988281-185-185-185s-185 82.992188-185 185c0 23.714844 4.609375 47.132812 13.347656 68.917969 2.238282 1.546875 4.359375 3.296875 6.324219 5.261719zm0 0"/><path d="m341.324219 190.761719c-1.878907-8.105469-5.972657-15.550781-12.003907-21.582031-8.5-8.5-19.800781-13.179688-31.820312-13.179688-21.289062 0-39.160156 14.867188-43.808594 34.757812 14.460938-3.136718 29.140625-4.757812 43.808594-4.757812 14.671875 0 29.359375 1.625 43.824219 4.761719zm0 0"/><path d="m419.832031 262c-35.15625-29.148438-79.203125-46-122.332031-46-43.132812 0-87.175781 16.851562-122.332031 46zm0 0"/><path d="m449.316406 292h-303.605468c-3.417969 4.25-6.730469 8.65625-9.910157 13.234375l-24.839843-24.839844c-2.8125-2.816406-6.628907-4.394531-10.605469-4.394531h-84.855469c-6.066406 0-11.539062 3.652344-13.859375 9.257812-2.320313 5.605469-1.035156 12.058594 3.253906 16.347657l62.480469 62.480469c16.847656 16.847656 24.539062 41.144531 20.578125 64.992187-3.621094 21.777344-5.453125 44.625-5.453125 67.921875 0 3.980469 1.582031 7.792969 4.394531 10.605469 2.8125 2.816406 6.628907 4.394531 10.605469 4.394531h400c8.285156 0 15-6.714844 15-15 0-82.117188-22.347656-154.292969-63.183594-205zm0 0"/></svg>