<svg height="512pt" viewBox="0 0 512 512" width="512pt" xmlns="http://www.w3.org/2000/svg"><path d="m437.019531 74.980469c-48.351562-48.351563-112.640625-74.980469-181.019531-74.980469s-132.667969 26.628906-181.019531 74.980469c-48.351563 48.351562-74.980469 112.640625-74.980469 181.019531s26.628906 132.667969 74.980469 181.019531c48.351562 48.351563 112.640625 74.980469 181.019531 74.980469s132.667969-26.628906 181.019531-74.980469c48.351563-48.351562 74.980469-112.640625 74.980469-181.019531s-26.628906-132.667969-74.980469-181.019531zm-31.769531 77.53125c7.175781-4.144531 16.347656-1.6875 20.492188 5.488281 4.140624 7.175781 1.683593 16.347656-5.492188 20.488281-7.171875 4.144531-16.347656 1.6875-20.488281-5.488281-4.144531-7.175781-1.6875-16.347656 5.488281-20.488281zm-149.25-92.511719c8.285156 0 15 6.714844 15 15s-6.714844 15-15 15-15-6.714844-15-15 6.714844-15 15-15zm-98 26.257812c7.175781-4.140624 16.347656-1.683593 20.488281 5.492188 4.144531 7.171875 1.6875 16.347656-5.488281 20.488281-7.175781 4.144531-16.347656 1.683594-20.488281-5.488281-4.144531-7.175781-1.6875-16.347656 5.488281-20.492188zm-98 169.742188c0-8.285156 6.714844-15 15-15s15 6.714844 15 15-6.714844 15-15 15-15-6.714844-15-15zm46.75 103.488281c-7.175781 4.144531-16.347656 1.6875-20.492188-5.488281-4.140624-7.175781-1.683593-16.347656 5.492188-20.488281 7.171875-4.144531 16.347656-1.6875 20.488281 5.488281 4.144531 7.175781 1.6875 16.347656-5.488281 20.488281zm5.488281-186.488281c-4.140625 7.175781-13.3125 9.632812-20.488281 5.488281-7.175781-4.140625-9.632812-13.3125-5.488281-20.488281 4.140625-7.175781 13.3125-9.632812 20.488281-5.488281 7.175781 4.140625 9.632812 13.3125 5.488281 20.488281zm66.25 247.25c-4.140625 7.175781-13.3125 9.632812-20.488281 5.492188-7.175781-4.144532-9.632812-13.316407-5.488281-20.492188 4.140625-7.171875 13.3125-9.632812 20.488281-5.488281 7.175781 4.140625 9.632812 13.3125 5.488281 20.488281zm77.511719 31.75c-8.285156 0-15-6.714844-15-15s6.714844-15 15-15 15 6.714844 15 15-6.714844 15-15 15zm0-151c-20.292969 0-37.484375-13.507812-43.078125-32h-64.921875c-8.285156 0-15-6.714844-15-15s6.714844-15 15-15h66.34375c4.84375-11.816406 14.566406-21.132812 26.65625-25.421875v-79.578125c0-8.285156 6.714844-15 15-15s15 6.714844 15 15v79.578125c17.460938 6.195313 30 22.867187 30 42.421875 0 24.8125-20.1875 45-45 45zm98 124.742188c-7.175781 4.140624-16.347656 1.683593-20.488281-5.492188-4.144531-7.171875-1.6875-16.347656 5.488281-20.488281 7.175781-4.144531 16.347656-1.683594 20.488281 5.488281 4.144531 7.175781 1.6875 16.347656-5.488281 20.492188zm5.488281-318.992188c-4.140625 7.171875-13.3125 9.632812-20.488281 5.488281-7.175781-4.140625-9.632812-13.316406-5.488281-20.488281 4.140625-7.175781 13.3125-9.632812 20.488281-5.492188 7.175781 4.144532 9.632812 13.316407 5.488281 20.492188zm66.253907 247.25c-4.144532 7.175781-13.316407 9.632812-20.492188 5.488281-7.171875-4.140625-9.632812-13.3125-5.488281-20.488281 4.140625-7.175781 13.316406-9.632812 20.488281-5.488281 7.175781 4.140625 9.632812 13.3125 5.492188 20.488281zm11.257812-83c-8.285156 0-15-6.714844-15-15s6.714844-15 15-15 15 6.714844 15 15-6.714844 15-15 15zm0 0"/><path d="m256 241c-8.269531 0-15 6.730469-15 15s6.730469 15 15 15 15-6.730469 15-15-6.730469-15-15-15zm0 0"/></svg>