<svg height="512pt" viewBox="0 -81 512 512" width="512pt" xmlns="http://www.w3.org/2000/svg"><path d="m408.027344 122.972656c-37.050782-37.050781-85.246094-58.90625-137.027344-62.449218v-30.523438h15c8.285156 0 15-6.714844 15-15s-6.714844-15-15-15h-60c-8.285156 0-15 6.714844-15 15s6.714844 15 15 15h15v30.523438c-51.78125 3.542968-99.976562 25.398437-137.027344 62.449218-29.785156 29.78125-49.738281 66.769532-58.269531 107.027344h420.59375c-8.53125-40.257812-28.484375-77.246094-58.269531-107.027344zm0 0"/><path d="m497 260h-482c-8.285156 0-15 6.714844-15 15 0 41.355469 33.644531 75 75 75h362c41.355469 0 75-33.644531 75-75 0-8.285156-6.714844-15-15-15zm0 0"/></svg>