<svg height="512pt" viewBox="0 0 512 512" width="512pt" xmlns="http://www.w3.org/2000/svg"><path d="m422 347v119.203125c0 25.179687 20.605469 46.222656 45.78125 45.789063 24.453125-.417969 44.21875-20.4375 44.21875-44.992188v-135h-75c-8.285156 0-15 6.714844-15 15zm0 0"/><path d="m135 0c-8.285156 0-15 6.714844-15 15v141c0 8.269531-6.730469 15-15 15h-15v-156c0-8.285156-6.714844-15-15-15s-15 6.714844-15 15v156h-15c-8.269531 0-15-6.730469-15-15v-141c0-8.285156-6.714844-15-15-15s-15 6.714844-15 15v141c0 24.8125 20.1875 45 45 45h15v101h30v-101h15c24.8125 0 45-20.1875 45-45v-141c0-8.285156-6.714844-15-15-15zm0 0"/><path d="m275 0c-48.648438 0-85 67.191406-85 127.273438 0 28.683593 8.578125 52.5625 24.8125 69.058593 11.976562 12.171875 27.410156 19.808594 45.1875 22.53125v83.136719h30v-83.136719c17.777344-2.71875 33.210938-10.359375 45.1875-22.53125 16.234375-16.496093 24.8125-40.375 24.8125-69.058593 0-60.082032-36.351562-127.273438-85-127.273438zm0 0"/><path d="m504.015625 1.742188c-6.164063-3.246094-13.613281-1.835938-18.164063 3.226562-29.945312 33.269531-53.332031 72.152344-69.515624 115.558594-16.148438 43.316406-24.335938 89.035156-24.335938 135.894531v30.578125c0 8.285156 6.714844 15 15 15h105v-286.566406c0-5.671875-2.96875-11.050782-7.984375-13.691406zm0 0"/><path d="m305 332h-60c-8.285156 0-15 6.714844-15 15v119.203125c0 25.179687 20.605469 46.222656 45.78125 45.789063 24.453125-.417969 44.21875-20.4375 44.21875-44.992188v-120c0-8.285156-6.714844-15-15-15zm0 0"/><path d="m105 332h-60c-8.285156 0-15 6.714844-15 15v119.203125c0 25.179687 20.605469 46.222656 45.78125 45.789063 24.453125-.417969 44.21875-20.4375 44.21875-44.992188v-120c0-8.285156-6.714844-15-15-15zm0 0"/></svg>