<svg height="512pt" viewBox="0 0 512 512" width="512pt" xmlns="http://www.w3.org/2000/svg"><path d="m448.023438 275.125c11.390624-16.296875 17.628906-35.78125 17.628906-56.203125 0-54.269531-44.148438-98.421875-98.421875-98.421875-1.445313 0-2.890625.03125-4.335938.097656.53125-4.289062.796875-8.59375.796875-12.90625 0-59.378906-48.308594-107.691406-107.691406-107.691406s-107.691406 48.3125-107.691406 107.691406c0 4.3125.265625 8.617188.796875 12.90625-1.445313-.066406-2.890625-.097656-4.335938-.097656-54.269531 0-98.421875 44.152344-98.421875 98.421875 0 20.421875 6.238282 39.90625 17.628906 56.203125-37.46875 14.054688-63.976562 50.296875-63.976562 92.105469 0 21.347656 6.726562 41.660156 19.449219 58.738281 12.464843 16.726562 29.527343 28.875 49.308593 35.113281 64.113282 20.390625 107.140626 21.8125 172.242188 21.910157v-67.78125l-94.371094-75.496094c-6.46875-5.175782-7.519531-14.617188-2.34375-21.085938 5.175782-6.46875 14.617188-7.519531 21.085938-2.339844l75.628906 60.5v-61.578124l-94.371094-75.496094c-6.46875-5.175782-7.519531-14.617188-2.34375-21.085938 5.175782-6.46875 14.617188-7.515625 21.085938-2.339844l75.628906 60.5v-118.789062c0-8.285156 6.714844-15 15-15s15 6.714844 15 15v118.789062l75.628906-60.503906c6.46875-5.171875 15.90625-4.125 21.085938 2.34375 5.175781 6.46875 4.125 15.910156-2.34375 21.082032l-94.371094 75.5v61.578124l75.628906-60.503906c6.46875-5.175781 15.90625-4.125 21.085938 2.34375 5.175781 6.46875 4.125 15.910156-2.34375 21.082032l-94.371094 75.5v67.78125c65.097656-.097657 108.125-1.519532 172.210938-21.898438 19.8125-6.25 36.875-18.394531 49.339843-35.125 12.722657-17.078125 19.449219-37.390625 19.449219-58.738281 0-41.808594-26.507812-78.050781-63.976562-92.105469zm0 0"/><path d="m241 482.992188v14.007812c0 8.285156 6.714844 15 15 15s15-6.714844 15-15v-14.007812c-4.875.007812-9.859375.007812-15 .007812s-10.125 0-15-.007812zm0 0"/></svg>