<svg height="512pt" viewBox="0 0 512 512" width="512pt" xmlns="http://www.w3.org/2000/svg"><path d="m482 106v240c0 74.441406-61.558594 136-136 136h-240c-5.210938 0-10.15625-.960938-15.210938-1.539062 19.242188 19.757812 46 31.539062 75.210938 31.539062h240c57.890625 0 106-48.109375 106-106v-240c0-29.210938-11.78125-55.96875-31.539062-75.210938.578124 5.054688 1.539062 10 1.539062 15.210938zm0 0"/><path d="m361 346v-15h-30v30h15c8.277344 0 15-6.722656 15-15zm0 0"/><path d="m211 331h30v30h-30zm0 0"/><path d="m211 91h30v30h-30zm0 0"/><path d="m106 361h15v-30h-30v15c0 8.277344 6.722656 15 15 15zm0 0"/><path d="m121 91h-15c-8.277344 0-15 6.722656-15 15v15h30zm0 0"/><path d="m91 211h30v30h-30zm0 0"/><path d="m211 211h30v30h-30zm0 0"/><path d="m361 106c0-8.277344-6.722656-15-15-15h-15v30h30zm0 0"/><path d="m331 211h30v30h-30zm0 0"/><path d="m106 452h240c57.890625 0 106-48.109375 106-106v-240c0-57.890625-48.109375-106-106-106h-240c-57.890625 0-106 48.109375-106 106v240c0 57.890625 48.109375 106 106 106zm195-376c0-8.289062 6.710938-15 15-15h30c24.8125 0 45 20.1875 45 45v30c0 8.289062-6.710938 15-15 15h-60c-8.289062 0-15-6.710938-15-15zm0 120c0-8.289062 6.710938-15 15-15h60c8.289062 0 15 6.710938 15 15v60c0 8.289062-6.710938 15-15 15h-60c-8.289062 0-15-6.710938-15-15zm0 120c0-8.289062 6.710938-15 15-15h60c8.289062 0 15 6.710938 15 15v30c0 24.8125-20.1875 45-45 45h-30c-8.289062 0-15-6.710938-15-15zm-120-240c0-8.289062 6.710938-15 15-15h60c8.289062 0 15 6.710938 15 15v60c0 8.289062-6.710938 15-15 15h-60c-8.289062 0-15-6.710938-15-15zm0 120c0-8.289062 6.710938-15 15-15h60c8.289062 0 15 6.710938 15 15v60c0 8.289062-6.710938 15-15 15h-60c-8.289062 0-15-6.710938-15-15zm0 120c0-8.289062 6.710938-15 15-15h60c8.289062 0 15 6.710938 15 15v60c0 8.289062-6.710938 15-15 15h-60c-8.289062 0-15-6.710938-15-15zm-120-210c0-24.8125 20.1875-45 45-45h30c8.289062 0 15 6.710938 15 15v60c0 8.289062-6.710938 15-15 15h-60c-8.289062 0-15-6.710938-15-15zm0 90c0-8.289062 6.710938-15 15-15h60c8.289062 0 15 6.710938 15 15v60c0 8.289062-6.710938 15-15 15h-60c-8.289062 0-15-6.710938-15-15zm0 120c0-8.289062 6.710938-15 15-15h60c8.289062 0 15 6.710938 15 15v60c0 8.289062-6.710938 15-15 15h-30c-24.8125 0-45-20.1875-45-45zm0 0"/></svg>