<svg height="512pt" viewBox="0 0 512 512.001" width="512pt" xmlns="http://www.w3.org/2000/svg"><path d="m37.402344 247.148438c-22.339844 13-37.402344 37.191406-37.402344 64.851562 0 39.105469 30.089844 71.300781 68.332031 74.6875-20.5-33.417969-32.332031-72.695312-32.332031-114.6875 0-8.359375.480469-16.652344 1.402344-24.851562zm0 0"/><path d="m474.601562 247.148438c.929688 8.222656 1.398438 16.519531 1.398438 24.851562 0 41.992188-11.832031 81.269531-32.328125 114.6875 38.238281-3.386719 68.328125-35.582031 68.328125-74.6875 0-27.65625-15.058594-51.851562-37.398438-64.851562zm0 0"/><path d="m98.132812 118.792969c8.421876-8.679688 20.195313-13.65625 32.296876-13.65625 6.875 0 13.769531 1.609375 19.9375 4.660156l30.3125 14.984375c65.101562 32.179688 137.898437 49.1875 210.519531 49.1875h31.613281c19.691406 0 36.925781 12.609375 42.886719 31.378906.246093.769532.476562 1.546875.714843 2.324219l22.746094 13.238281c-3.042968-57.636718-26.925781-111.398437-68.050781-152.519531-44.101563-44.101563-102.738281-68.390625-165.109375-68.390625s-121.007812 24.289062-165.109375 68.390625c-41.121094 41.121094-65.007813 94.882813-68.050781 152.519531l22.699218-13.210937c10.070313-33.054688 27.910157-63.476563 52.59375-88.90625zm0 0"/><path d="m355.515625 414.683594c-3.242187-1.839844-6.707031-2.757813-10.167969-2.757813-3.601562 0-7.199218.996094-10.535156 2.984375l-40.183594 23.996094c4.042969 6.746094 6.371094 14.628906 6.371094 23.050781 0 8.429688-2.332031 16.320313-6.382812 23.070313l40.195312 24c3.257812 1.945312 6.902344 2.972656 10.535156 2.972656 3.488282 0 7.003906-.949219 10.164063-2.742188 6.664062-3.785156 10.488281-10.363281 10.488281-18.050781v-58.472656c0-7.6875-3.820312-14.265625-10.484375-18.050781zm0 0"/><path d="m437.105469 214.429688c-1.976563-6.230469-7.761719-10.457032-14.296875-10.457032h-31.609375c-77.207031 0-154.601563-18.085937-223.8125-52.296875l-30.316407-14.988281c-5.839843-2.886719-12.875-1.671875-17.410156 3-34.601562 35.652344-53.660156 82.640625-53.660156 132.3125 0 52.894531 21.734375 100.804688 56.734375 135.285156 4.410156-7.640625 10.855469-14.101562 18.941406-18.691406 16.035157-9.101562 35.058594-8.894531 50.890625.558594l49.996094 29.855468c4.246094-1.332031 8.757812-2.050781 13.4375-2.050781 4.675781 0 9.191406.71875 13.433594 2.050781l50-29.855468c15.828125-9.453125 34.851562-9.660156 50.890625-.558594 8.085937 4.589844 14.53125 11.050781 18.941406 18.6875 35-34.476562 56.734375-82.386719 56.734375-135.28125 0-19.621094-2.992188-38.992188-8.894531-57.570312zm-247.105469 79.570312c-8.285156 0-15-6.714844-15-15s6.714844-15 15-15 15 6.714844 15 15-6.714844 15-15 15zm66 92c-24.8125 0-45-20.1875-45-45 0-8.285156 6.714844-15 15-15s15 6.714844 15 15c0 8.269531 6.730469 15 15 15 8.273438 0 15-6.730469 15-15 0-8.285156 6.714844-15 15-15s15 6.714844 15 15c0 24.8125-20.1875 45-45 45zm66-92c-8.285156 0-15-6.714844-15-15s6.714844-15 15-15 15 6.714844 15 15-6.714844 15-15 15zm0 0"/><path d="m217.371094 438.90625-40.183594-23.996094c-6.539062-3.902344-14.082031-3.984375-20.699219-.226562-6.664062 3.78125-10.488281 10.359375-10.488281 18.050781v58.472656c0 7.6875 3.824219 14.265625 10.488281 18.050781 3.164063 1.792969 6.675781 2.742188 10.164063 2.742188 3.632812 0 7.277344-1.027344 10.535156-2.972656l40.195312-24c-4.046874-6.75-6.382812-14.644532-6.382812-23.070313 0-8.421875 2.332031-16.304687 6.371094-23.050781zm0 0"/><path d="m256 446.957031c-8.269531 0-15 6.730469-15 15s6.730469 15 15 15c8.273438 0 15-6.730469 15-15 0-8.273437-6.726562-15-15-15zm0 0"/></svg>