<svg height="512pt" viewBox="0 0 512 512" width="512pt" xmlns="http://www.w3.org/2000/svg"><path d="m482 90h-70v70h30v125c0 19.328125 15.667969 35 35 35 19.328125 0 35-15.671875 35-35v-165c0-16.570312-13.429688-30-30-30zm0 0"/><path d="m367 0h-352c-5.53125 0-10.617188 3.046875-13.226562 7.921875-2.609376 4.878906-2.324219 10.796875.746093 15.398437l44.453125 66.679688h335.027344v-75c0-8.285156-6.714844-15-15-15zm0 0"/><path d="m75 120h-15v30h75c8.285156 0 15 6.714844 15 15s-6.714844 15-15 15h-75v30h75c8.285156 0 15 6.714844 15 15s-6.714844 15-15 15h-75v30h75c8.285156 0 15 6.714844 15 15s-6.714844 15-15 15h-75v30h75c8.285156 0 15 6.714844 15 15s-6.714844 15-15 15h-75v30h75c8.285156 0 15 6.714844 15 15s-6.714844 15-15 15h-75v77c0 8.285156 6.714844 15 15 15h292c8.285156 0 15-6.714844 15-15v-377zm0 0"/></svg>