<svg height="512pt" viewBox="-41 0 512 512" width="512pt" xmlns="http://www.w3.org/2000/svg"><path d="m430 232h-51.664062c-1.671876 3.527344-3.957032 6.835938-6.871094 9.75l-61.714844 61.714844c-6.824219 6.820312-15.789062 10.234375-24.75 10.234375-8.964844 0-17.925781-3.410157-24.75-10.234375l-61.714844-61.714844c-2.914062-2.914062-5.199218-6.222656-6.871094-9.75h-191.664062v190h108.785156l-50.25-50.25c-13.648437-13.648438-13.648437-35.851562 0-49.5l61.714844-61.714844c13.648438-13.644531 35.851562-13.644531 49.496094 0l61.71875 61.714844c13.644531 13.648438 13.644531 35.851562 0 49.5l-50.25 50.25h248.785156zm0 0"/><path d="m210.25 350.535156c1.949219-1.949218 1.949219-5.121094 0-7.070312l-61.714844-61.714844c-.976562-.976562-2.253906-1.464844-3.535156-1.464844s-2.5625.488282-3.535156 1.464844l-61.71875 61.714844c-1.949219 1.949218-1.949219 5.121094 0 7.070312l61.71875 61.714844c1.945312 1.949219 5.121094 1.949219 7.070312 0zm0 0"/><path d="m191.664062 202c1.671876-3.527344 3.957032-6.835938 6.871094-9.75l61.714844-61.714844c13.648438-13.644531 35.851562-13.644531 49.496094 0l61.71875 61.714844c2.914062 2.914062 5.199218 6.222656 6.871094 9.75h51.664062v-187c0-8.285156-6.714844-15-15-15h-400c-8.285156 0-15 6.714844-15 15v187zm0 0"/><path d="m0 452v45c0 8.285156 6.714844 15 15 15h400c8.285156 0 15-6.714844 15-15v-45zm0 0"/><path d="m288.535156 282.25 61.71875-61.714844c1.949219-1.949218 1.949219-5.121094 0-7.070312l-61.71875-61.714844c-.972656-.976562-2.253906-1.464844-3.535156-1.464844s-2.5625.488282-3.535156 1.464844l-61.71875 61.714844c-1.949219 1.949218-1.949219 5.121094 0 7.070312l61.71875 61.714844c1.949218 1.949219 5.121094 1.949219 7.070312 0zm0 0"/></svg>