<svg height="511pt" viewBox="-40 0 511 511.99952" width="511pt" xmlns="http://www.w3.org/2000/svg"><path d="m120.273438 46.472656-22.5-38.96875c-4.140626-7.175781-13.316407-9.632812-20.488282-5.492187l-69.28125 40c-7.175781 4.144531-9.632812 13.316406-5.492187 20.492187l22.5 38.96875zm0 0"/><path d="m242.5 397v-145h-171.984375c-.015625 0-.03125 0-.046875 0h-48.042969c-9.648437 0-16.785156 8.972656-14.617187 18.371094l53.078125 230c1.570312 6.808594 7.628906 11.628906 14.613281 11.628906h282c6.984375 0 13.046875-4.820312 14.617188-11.628906l13.472656-58.371094h-98.085938c-24.855468 0-45.003906-20.148438-45.003906-45zm0 0"/><path d="m417.5 252h-145v145c0 8.285156 6.71875 15 15 15h130c8.285156 0 15-6.714844 15-15v-130c0-8.285156-6.714844-15-15-15zm0 0"/><path d="m75.894531 189.609375c-9.21875 8.726563-15.695312 20.019531-18.617187 32.390625h222.070312l-33.273437-57.632812c-15.339844-26.570313-46.734375-38.214844-74.925781-29.777344l-35.875-62.136719-95.261719 55zm0 0"/></svg>