<svg height="512pt" viewBox="-91 0 512 512" width="512pt" xmlns="http://www.w3.org/2000/svg"><path d="m268.738281 442.273438-88.320312-20.3125v-52.4375c-4.976563.375-9.996094.582031-15.050781.582031-5.058594 0-10.074219-.207031-15.054688-.582031v52.4375l-88.320312 20.3125c-6.835938 1.574218-11.679688 7.660156-11.679688 14.671874v40c0 8.316407 6.738281 15.054688 15.054688 15.054688h200c8.3125 0 15.050781-6.738281 15.050781-15.054688v-40c0-7.011718-4.84375-13.097656-11.679688-14.671874zm0 0"/><path d="m289.824219 10.855469c-1.867188-6.429688-7.761719-10.855469-14.457031-10.855469h-220c-6.699219 0-12.589844 4.425781-14.457032 10.855469l-31.070312 107.023437h311.054687zm0 0"/><path d="m328.429688 147.878906h-326.125c-7.484376 44.433594 3.375 89.527344 30.925781 126.210938 31.503906 41.957031 79.667969 66.015625 132.136719 66.015625 52.464843 0 100.628906-24.0625 132.136718-66.015625 27.546875-36.683594 38.40625-81.777344 30.925782-126.210938zm0 0"/></svg>