<svg id="Layer_1" enable-background="new 0 0 512 512" height="512" viewBox="0 0 512 512" width="512" xmlns="http://www.w3.org/2000/svg"><g><path d="m292.042 81.5c0 2.447.229 4.836.659 7.149 16.779-14.141 34.927-26.221 54.156-35.979-5.756-4.801-12.977-7.67-20.815-7.67-18.748 0-34 16.374-34 36.5z"/><path d="m209.925 81.05c13.432-9.442 29.369-14.55 46.075-14.55 2.548 0 5.092.128 7.622.367 4.922-22.676 21.021-40.992 41.942-48.36-13.506-11.756-30.983-18.507-49.563-18.507-24.002 0-46.157 11.25-60.294 30.015-15.843-2.907-32.385.431-46.104 9.647-2.2 1.478-4.286 3.083-6.253 4.8 4.285.609 8.452 1.822 12.442 3.658 19.121 8.799 37.255 19.86 54.133 32.93z"/><path d="m263.844 97.127c-2.586-.406-5.209-.627-7.844-.627-7.821 0-15.376 1.795-22.214 5.17 7.76 7.465 15.175 15.398 22.209 23.773 4.134-4.922 8.415-9.672 12.805-14.283-2.131-4.423-3.812-9.119-4.956-14.033z"/><path d="m258.836 171.783c-14.387 21.866-25.934 45.774-34.408 71.014l.812.528 6.231-4.051c7.319-4.759 15.801-7.273 24.53-7.273s17.21 2.515 24.529 7.273l6.231 4.052 6.229-4.051c7.318-4.759 15.801-7.274 24.53-7.274 8.728 0 17.209 2.514 24.527 7.271l6.233 4.053 6.229-4.051c7.32-4.759 15.803-7.273 24.531-7.273 3.704 0 7.395.466 10.976 1.366v-144.367c0-5.112-2.604-9.873-6.909-12.63-4.304-2.758-9.718-3.133-14.361-.996-43.606 20.067-81.613 53.405-109.91 96.409z"/><path d="m386.195 263.816c-4.834-2.624-10.718-2.39-15.33.609l-22.583 14.684-22.584-14.684c-4.973-3.232-11.381-3.233-16.354 0l-22.583 14.684-22.584-14.684c-4.972-3.232-11.381-3.232-16.353 0l-22.584 14.684-22.584-14.684c-4.972-3.232-11.381-3.232-16.353 0l-22.584 14.684-22.584-14.684c-4.61-2.997-10.494-3.232-15.33-.608-4.835 2.624-7.846 7.683-7.846 13.184v160c0 41.355 33.645 75 75 75h126.083c41.354 0 74.999-33.645 74.999-75v-160.001c0-5.501-3.011-10.561-7.846-13.184z"/><path d="m157.487 239.272 6.232 4.052 6.231-4.052c7.318-4.758 15.8-7.273 24.529-7.273.641 0 1.281.018 1.919.045 9.256-27.24 21.796-53.074 37.376-76.752 1.171-1.78 2.362-3.54 3.564-5.289-26.028-32.54-58.152-58.094-94.086-74.63-4.645-2.137-10.057-1.763-14.362.996-4.305 2.758-6.909 7.518-6.909 12.63v144.367c3.581-.901 7.272-1.367 10.976-1.367 8.73.001 17.213 2.516 24.53 7.273z"/></g></svg>